<svg xmlns="http://www.w3.org/2000/svg" viewBox="0 0 124.3 145.8"><g id="Layer_2" data-name="Layer 2"><g id="Layer_1-2" data-name="Layer 1"><path d="M73.4,72.6a3.7,3.7,0,0,0,2.2-4.7l-.3-.6,8.6-9.9-6.8-.9L70,66a3.7,3.7,0,0,0,3.4,6.6Z" fill="#ffb8b8"/><path d="M121.6,74.7a3.7,3.7,0,0,0-.3-5.2l-.5-.4,2.7-12.8-6.4,2.5-1.6,11.8a3.7,3.7,0,0,0,6.1,4.1Z" fill="#ffb8b8"/><polygon points="91 141.4 86.5 141.4 84.4 124.1 91 124.1 91 141.4" fill="#ffb8b8"/><path d="M92.1,145.8H77.6v-.2a5.8,5.8,0,0,1,5.7-5.7h8.8Z" fill="#2f2e41"/><polygon points="113 141.4 108.5 141.4 106.3 124.1 113 124.1 113 141.4" fill="#ffb8b8"/><path d="M114.1,145.8H99.6v-.2a5.7,5.7,0,0,1,5.7-5.7h8.8Z" fill="#2f2e41"/><path d="M91.4,132.4l-6.3-.3a1.7,1.7,0,0,1-1.6-1.7l1.8-58.7h.1c11.2-4,20.4-3.7,28.2,1h.1l1.1,57.2a1.8,1.8,0,0,1-1.7,1.7h-5.4a1.7,1.7,0,0,1-1.6-1.3L98.8,93a.4.4,0,0,0-.6-.4c-.3,0-.4.2-.5.5l-4.6,37.8a1.7,1.7,0,0,1-1.6,1.5Z" fill="#2f2e41"/><circle cx="97.6" cy="11.2" r="9" fill="#ffb8b8"/><path d="M76.4,65.4a1.3,1.3,0,0,1-.7-.6l-1.8-2.6a1.7,1.7,0,0,1,.1-1.9l7-9.5,4.4-21a5.3,5.3,0,0,1,6.8-3.1,5.4,5.4,0,0,1,3.1,6.9L93.2,47a16.4,16.4,0,0,1-5.9,10.4l-9.2,7.8a1.5,1.5,0,0,1-1.3.3Z" fill="#6c63ff"/><path d="M121.2,66.4h-.9l-3.1-.8a1.6,1.6,0,0,1-1.2-1.4l-1-11.8L104.4,33.7a5.3,5.3,0,0,1,9.9-3.7h0l7.3,11.4a16.7,16.7,0,0,1,2.5,11.7l-1.8,11.9a1.4,1.4,0,0,1-.7,1.1A.5.5,0,0,1,121.2,66.4Z" fill="#6c63ff"/><path d="M87.8,27.1a15.3,15.3,0,0,1,12.3-4.9h.4a15.3,15.3,0,0,1,13.8,18.6,48.9,48.9,0,0,0,1.3,24.9l2.4,7.5a1.6,1.6,0,0,1-1,2h-.5l-12.3.7L101,70.5v5.6L86,77h0a1.7,1.7,0,0,1-1.7-1.7h0l1.7-21L83.9,39.9A15.5,15.5,0,0,1,87.8,27.1Z" fill="#6c63ff"/><path d="M103.9,19.7c-.8.5-4.1.8-4.4-.1h0a14.7,14.7,0,0,1,0-2.1,2.4,2.4,0,0,0-.5-2c-.9-1-2.4-.4-3.7-.7a3.2,3.2,0,0,1-2.5-3.4V11A2.5,2.5,0,0,0,91,8.1h-.6c-1.3.1-2.7.5-3.8-.5s-1.1-2.7-.7-3.7S90.5,1.1,92.2.6a14.5,14.5,0,0,1,12.6,2.1,5.9,5.9,0,0,1,2.5,2.9,3.2,3.2,0,0,1-.8,3.7,6.5,6.5,0,0,1,1.6,6.5C107.6,17.4,105.1,19,103.9,19.7Z" fill="#2f2e41"/><path d="M65.7,40.4H11.1a.2.2,0,0,1-.2-.2c0-.2.1-.3.2-.3H65.7a.3.3,0,0,1,.3.3Z" fill="#fff"/><path d="M53.8,40.4H22.7l-.2-.2c0-.2.1-.3.2-.3H53.8c.1,0,.2.1.2.3A.2.2,0,0,1,53.8,40.4Z" fill="#3f3d56"/><path d="M38.5,40.4a.2.2,0,0,1-.2-.2V24.6a.2.2,0,0,1,.2-.2c.2,0,.3.1.3.2V40.2C38.8,40.3,38.7,40.4,38.5,40.4Z" fill="#3f3d56"/><path d="M54.1,40.4a.2.2,0,0,1-.2-.2V9.1c0-.2.1-.3.2-.3s.2.1.2.3V40.2A.2.2,0,0,1,54.1,40.4Z" fill="#3f3d56"/><circle cx="2.7" cy="9.1" r="2.7" fill="#fff"/><circle cx="2.7" cy="24.6" r="2.7" fill="#fff"/><circle cx="2.7" cy="40.2" r="2.7" fill="#fff"/><path d="M65.7,9.3H11.1a.2.2,0,0,1-.2-.2c0-.2.1-.3.2-.3H65.7a.3.3,0,0,1,.3.3Z" fill="#fff"/><path d="M65.7,24.9H11.1c-.1,0-.2-.2-.2-.3a.2.2,0,0,1,.2-.2H65.7c.1,0,.3.1.3.2Z" fill="#fff"/><circle cx="22.9" cy="40.2" r="2.7" fill="#6c63ff"/><circle cx="38.5" cy="24.6" r="2.7" fill="#6c63ff"/><circle cx="38.5" cy="40.2" r="2.7" fill="#6c63ff"/><circle cx="54.1" cy="9.1" r="2.7" fill="#6c63ff"/><circle cx="54.1" cy="24.6" r="2.7" fill="#6c63ff"/><circle cx="54.1" cy="40.2" r="2.7" fill="#6c63ff"/></g></g></svg>