<svg xmlns="http://www.w3.org/2000/svg" viewBox="0 0 145.3 146.6"><g id="Layer_2" data-name="Layer 2"><g id="Layer_1-2" data-name="Layer 1"><path d="M99.5,51.5l.5.3,16.6-7.1.6-4.4h6.6l-.4,10-21.9,5.8c0,.2-.1.3-.1.5a3.8,3.8,0,0,1-5.1,1.8,3.7,3.7,0,0,1-1.8-5,3.9,3.9,0,0,1,5-1.9Z" fill="#ffb8b8"/><polygon points="126.2 142.4 121.7 142.4 119.5 124.9 126.2 124.9 126.2 142.4" fill="#ffb8b8"/><path d="M118.5,141.1h8.7v5.5H113A5.5,5.5,0,0,1,118.5,141.1Z" fill="#2f2e41"/><polygon points="143.9 141.1 139.4 141.6 135.5 124.4 142.2 123.7 143.9 141.1" fill="#ffb8b8"/><path d="M136,140.6l8.7-.9h0l.6,5.5h0l-14.2,1.4h0a5.5,5.5,0,0,1,4.9-6Z" fill="#2f2e41"/><circle cx="127.5" cy="12.7" r="9.1" fill="#ffb8b8"/><path d="M120.7,138.9a1.6,1.6,0,0,1-1.6-1.4c-2.4-13-10.1-55.7-10.3-56.9h0V77.4c0-.1.1-.2.1-.3l1.1-1.5.4-.2c5.8-.3,24.7-1.1,25.6.1h0c.9,1.1.6,4.6.5,5.3h0l8.5,54.4a1.6,1.6,0,0,1-1.3,1.9l-5.3.9a1.7,1.7,0,0,1-1.9-1.2c-1.6-5.2-7.2-22.9-9.1-29.7a.2.2,0,0,0-.2-.2c-.1,0-.1.1-.1.2.1,6.5.3,23.1.4,28.9v.6a1.7,1.7,0,0,1-1.5,1.7l-5.2.5Z" fill="#2f2e41"/><path id="e15ec395-f7cd-4347-89a2-a03d95a452a7" d="M121.7,25.4a6.9,6.9,0,0,0-3,4.4,38.4,38.4,0,0,0-1.9,10l-.5,10.3-7.2,27c6.2,5.3,9.8,4.1,18.1-.2s9.3,1.4,9.3,1.4l1.6-23,2.4-25.2a9.8,9.8,0,0,0-1.8-1.7A18.4,18.4,0,0,0,123,25Z" fill="#b3b3b3"/><path d="M119.4,57l.6.2L136.4,49l.3-4.4,6.7-.5.4,10.2-21.9,7.2a3.9,3.9,0,0,1-7.6-1.8,4.1,4.1,0,0,1,4.7-2.9l.4.2Z" fill="#ffb8b8"/><path id="bf6aefed-5d84-44a4-8c4e-9d1f3daa58d8" d="M140.4,30.2c4,1.4,4.7,16.9,4.7,16.9-4.7-2.6-10.4,1.7-10.4,1.7s-1.2-4.1-2.6-9.3a9,9,0,0,1,1.9-8.6S136.3,28.8,140.4,30.2Z" fill="#b3b3b3"/><path id="f516f9fe-dc87-4aac-a802-2e179304beb7" d="M135.7,15.1c-1.2-.9-2.7.7-2.7.7l-.9-8.1s-5.7.7-9.3-.2-4.2,3.2-4.2,3.2a29,29,0,0,1-.1-5.1c.2-2,3.2-4,8.4-5.4s7.9,4.5,7.9,4.5C138.4,6.5,136.8,16,135.7,15.1Z" fill="#2f2e41"/><path d="M101.3,75c.1-1,.1-2,.1-3A48.8,48.8,0,0,0,52.6,23.2V75Z" fill="#6c63ff"/><path d="M48.9,79.4V27.6A48.9,48.9,0,1,0,97.6,79.4Z" fill="#3f3d56"/></g></g></svg>