<svg xmlns="http://www.w3.org/2000/svg" width="41.468" height="47.238" viewBox="0 0 41.468 47.238"><g transform="translate(1.5 1.5)"><path d="M395.581,676.369V639.824a3.847,3.847,0,0,1,3.847-3.847h33.66a.962.962,0,0,1,.962.962v34.942h0" transform="translate(-395.581 -635.977)" fill="none" stroke="#a9e4eb" stroke-linecap="round" stroke-linejoin="round" stroke-width="3"/><path d="M434.049,903.152v7.694a.962.962,0,0,1-.962.962H399.909a4.328,4.328,0,0,1,0-8.655h34.141Z" transform="translate(-395.581 -867.569)" fill="none" stroke="#a9e4eb" stroke-linecap="round" stroke-linejoin="round" stroke-width="3"/><line x2="30.775" transform="translate(6.732 39.911)" fill="none" stroke="#a9e4eb" stroke-linecap="round" stroke-width="3"/><path d="M461.531,679.3h21.158V687H460.569v-6.732A.962.962,0,0,1,461.531,679.3Z" transform="translate(-451.914 -673.532)" fill="none" stroke="#a9e4eb" stroke-linecap="round" stroke-linejoin="round" stroke-width="3"/><path d="M485.843,785.325H501.23m-15.387,4.809H501.23M489.209,780.4h8.655" transform="translate(-473.822 -761.162)" fill="none" stroke="#a9e4eb" stroke-linecap="round" stroke-linejoin="round" stroke-width="3"/></g></svg>