<svg xmlns="http://www.w3.org/2000/svg" viewBox="0 0 38.5 15"><g id="Layer_2" data-name="Layer 2"><g id="Layer_1-2" data-name="Layer 1"><path d="M0,7.5A7.6,7.6,0,0,0,7.5,15,7.6,7.6,0,0,0,15,7.5,7.6,7.6,0,0,0,7.5,0,7.6,7.6,0,0,0,0,7.5Z" fill="#6279e8"/><line x1="19" y1="2.3" x2="37.2" y2="2.3" fill="none" stroke="#6279e8" stroke-linecap="round" stroke-linejoin="round" stroke-width="2.48"/><line x1="19" y1="7.5" x2="28.7" y2="7.5" fill="none" stroke="#6279e8" stroke-linecap="round" stroke-linejoin="round" stroke-width="2.48"/><line x1="19" y1="12.7" x2="35.8" y2="12.7" fill="none" stroke="#6279e8" stroke-linecap="round" stroke-linejoin="round" stroke-width="2.48"/><path d="M7.5,7.5V0A7.6,7.6,0,0,0,0,7.5,7.6,7.6,0,0,0,7.5,15,7.6,7.6,0,0,0,15,7.5Z" fill="#fff" opacity="0.3"/></g></g></svg>