<svg xmlns="http://www.w3.org/2000/svg" xmlns:xlink="http://www.w3.org/1999/xlink" viewBox="0 0 41.73 41.73"><defs><style>.cls-1{fill:url(#linear-gradient);}</style><linearGradient id="linear-gradient" x1="3.44" y1="34.53" x2="39.8" y2="6.01" gradientUnits="userSpaceOnUse"><stop offset="0" stop-color="#f8cac9"/><stop offset="1" stop-color="#ff5748"/></linearGradient></defs><g id="레이어_2" data-name="레이어 2"><g id="_11" data-name="11"><path class="cls-1" d="M20.86,0A20.87,20.87,0,1,0,41.73,20.86,20.86,20.86,0,0,0,20.86,0Zm-.07,34.63h-.13a2.92,2.92,0,1,1,2.92-2.92A2.85,2.85,0,0,1,20.79,34.63Zm5.5-16.27L24,20.86a2.54,2.54,0,0,0-.83,1.88,2.54,2.54,0,0,1-2.5,2.51,2.42,2.42,0,0,1-2.51-2.32v-.19A4.66,4.66,0,0,1,19.82,19l1.88-2.3a4.74,4.74,0,0,0,1.46-2.92,2.18,2.18,0,0,0-2.08-2.29h-.22a2.45,2.45,0,0,0-2.5,1.87,2.7,2.7,0,0,1-2.5,1.46,2.19,2.19,0,0,1-2.3-2.07v-.22a2.31,2.31,0,0,1,.21-1,7,7,0,0,1,7.09-4.39,6.75,6.75,0,0,1,7.28,6.2c0,.16,0,.32,0,.48A6.83,6.83,0,0,1,26.29,18.36Z"/></g></g></svg>