<svg xmlns="http://www.w3.org/2000/svg" width="225.776" height="207.601" viewBox="0 0 225.776 207.601"><g transform="matrix(0.839, 0.545, -0.545, 0.839, 45.731, -87.555)"><path d="M264.733,324.769c-17.87-3.136-38.645-2.588-61.043,0,4.544-25.766,4.756-51.006,0-75.639h61.043a213.183,213.183,0,0,1,0,75.639Z" transform="translate(-159.807 -173.23)" fill="#f2f2f2"/><rect width="21.234" height="6.967" transform="translate(65.481 71.587)" fill="#3f3d56"/><g transform="matrix(0.819, -0.574, 0.574, 0.819, 96.238, 190.068)"><path d="M3.382,75.639c17.874-3.136,38.645-2.591,61.043,0-4.544-25.77-4.752-51.01,0-75.639H3.382A213.185,213.185,0,0,0,3.382,75.639Z" transform="translate(2.744 7.845)" opacity="0.1"/><path d="M3.381,75.639c17.874-3.136,38.645-2.591,61.043,0-4.544-25.77-4.752-51.01,0-75.639H3.381a213.184,213.184,0,0,0,0,75.639Z" transform="translate(0 4.317)" fill="#f2f2f2"/><rect width="21.234" height="6.967" transform="translate(42.83 6.967) rotate(180)" fill="#3f3d56"/><rect width="37.637" height="5.097" transform="translate(13.457 24.111)" fill="#6c63ff"/><rect width="37.637" height="5.097" transform="translate(13.457 34.697)" fill="#6c63ff"/></g><g transform="matrix(0.602, -0.799, 0.799, 0.602, 137.278, 81.712)"><path d="M3.381,75.639c17.874-3.136,38.645-2.591,61.043,0-4.544-25.77-4.752-51.01,0-75.639H3.381a213.184,213.184,0,0,0,0,75.639Z" transform="translate(22.914 4.317)" fill="#f2f2f2"/><rect width="21.234" height="6.967" transform="translate(65.752 6.967) rotate(180)" fill="#3f3d56"/><path d="M0,0" transform="translate(0 34.744)" fill="none" stroke="#3f3d56" stroke-miterlimit="10" stroke-width="2"/><rect width="37.637" height="5.097" transform="translate(36.293 17.027)" fill="#6c63ff"/><rect width="37.637" height="5.097" transform="translate(36.293 27.612)" fill="#6c63ff"/></g><rect width="37.637" height="5.097" transform="translate(57.138 89.849)" fill="#6c63ff"/></g></svg>