<svg xmlns="http://www.w3.org/2000/svg" viewBox="0 0 24 20"><g id="Layer_2" data-name="Layer 2"><g id="_16" data-name="16"><g id="그룹_3068" data-name="그룹 3068"><path id="패스_552" data-name="패스 552" d="M23.7,11.3l-3-3h0l-8-8a1,1,0,0,0-1.4,0l-8,8h0l-3,3a1,1,0,0,0,0,1.4,1,1,0,0,0,1.4,0L3,11.4V17a2.9,2.9,0,0,0,3,3H18a3,3,0,0,0,3-3V11.4l1.3,1.3a1,1,0,0,0,1.4-1.4ZM11,18V15a.9.9,0,0,1,1-1,1,1,0,0,1,1,1v3Zm8-1a1,1,0,0,1-1,1H15V15a3,3,0,0,0-3-3,2.9,2.9,0,0,0-3,3H9v3H6a.9.9,0,0,1-1-1V9.4l7-7,7,7Z" fill="#fff"/></g></g></g></svg>