<svg xmlns="http://www.w3.org/2000/svg" viewBox="0 0 125.9 93.9"><g id="Layer_2" data-name="Layer 2"><g id="Layer_1-2" data-name="Layer 1"><path d="M120.8,0l-2.1,14.8c-.7,5.1-1.5,10.2-2.4,15.2v.4h-.3l-8.5-1.5-8.5-1.3L81.8,25.1l-1.1-.2.9-.6L91.4,18l9.9-6.2Zm-.1.1L101.3,12.8,91.7,19l-9.6,6-.2-.8,17,2.9,8.5,1.3,8.6,1.2-.4.3c.6-5,1.5-9.8,2.4-14.7Z" fill="#fff"/><path d="M110,29.3a6.8,6.8,0,0,1,6.1-5.6.5.5,0,0,0,0-1,7.7,7.7,0,0,0-7,6.3c-.1.6.8.9.9.3Z" fill="#fff"/><path d="M94.9,9.4l3.2-2.9c.2-.2.2-.6,0-.7a.5.5,0,0,0-.7,0L94.2,8.7c-.2.2-.2.6,0,.7a.5.5,0,0,0,.7,0Z" fill="#fff"/><path d="M94.9,6.2l2,3a.5.5,0,0,0,.7.1.5.5,0,0,0,.2-.6l-2-3a.4.4,0,0,0-.7-.2.6.6,0,0,0-.2.7Z" fill="#fff"/><path d="M123,11.6c-.2,1.9-.3,3.9-.5,5.8a.5.5,0,0,0,.5.5,2.9,2.9,0,0,0,2.2-.6,2,2,0,0,0,.7-2,1.5,1.5,0,0,0-2.9.1.5.5,0,0,0,.5.5.5.5,0,0,0,.5-.5l.2-.2h.3a.4.4,0,0,1,.4.6c0,.9-1.1,1.2-1.9,1.1l.5.5c.2-1.9.3-3.9.5-5.8a.5.5,0,1,0-1,0Z" fill="#fff"/><path d="M98.3,30.4a2.4,2.4,0,0,0-1.1,1.9,1.8,1.8,0,0,0,1,1.7,1.6,1.6,0,0,0,1.9-.7,2.6,2.6,0,0,0,.4-2.1c-.2-.4-.4-.8-.8-.9a1.5,1.5,0,0,0-1.3,0,.5.5,0,0,0-.1.7.5.5,0,0,0,.6.2h.3s.1.1,0,.1h.1c.1,0,.1.1.1,0s0,.1,0,.1h.1c-.1,0-.1-.1-.1,0h.1c0,.1,0,.1.1.2h0v.2h0c-.1.1,0-.1,0,0a.6.6,0,0,0-.1.4s-.1.1-.1,0v.4h-.1c0,.1-.1.1-.1.2h0c0-.1-.1,0-.1,0h-.6c.1,0,0,0,0-.1h-.1c0-.1.1,0,0,0s0-.1-.1-.2h-.1a.1.1,0,0,1,.1-.1h0v-.2h0v-.2l.2-.2h0l.2-.2h.1s.1-.1,0-.1a.5.5,0,0,0,.2-.6c-.1-.2-.5-.4-.7-.2Z" fill="#fff"/><path d="M99.9,32.1a.9.9,0,0,0-.1.5V33a.9.9,0,0,0,.3.7,1.6,1.6,0,0,0,1.4.8l.4-.2c0-.1.1-.2.1-.3s-.2-.6-.5-.5h-.2l-.3-.2h.1l-.2-.3h.1c-.1-.1-.2-.2-.2-.3v-.1h0v-.4h0c0-.1.1-.2,0-.4s-.1-.2-.2-.3h-.4l-.3.2Z" fill="#fff"/><path d="M88.3,93.4,62.8,79.2,37.5,64.9,12.1,50.5,5.8,46.9,2.6,45.2A5.3,5.3,0,0,1,.2,42.1a4.9,4.9,0,0,1,.5-3.9l2-3.1L6.6,29l4-6.1,2-3a5.5,5.5,0,0,1,3.4-2,5,5,0,0,1,3.8.6L23,20.3l6.3,3.6L54.6,38.4,79.8,52.9,105,67.6,79.6,53.4,54.2,39.1,28.9,24.7l-6.4-3.6-3.1-1.8a5.1,5.1,0,0,0-3.2-.5,4.6,4.6,0,0,0-2.8,1.7l-2,3L7.5,29.6l-4,6.1-2,3a4.5,4.5,0,0,0-.4,3.2,4,4,0,0,0,2,2.4l3.1,1.8,6.4,3.7L37.8,64.2,63.1,78.8Z" fill="#fff"/><path d="M117.6,93.9l-14.7-.2H88v-.2l-1.8-4.4a8.8,8.8,0,0,1-.7-2.3,5.2,5.2,0,0,1,.3-2.5A6.2,6.2,0,0,1,89,80.6l2-1.2a5.7,5.7,0,0,0,1.5-1.6,6.8,6.8,0,0,0,.7-2V73.5a6.5,6.5,0,0,1,2.4-4.3A7.2,7.2,0,0,1,97.9,68l1.2-.2h1.2l4.7-.5h.2v.2L113.7,81l4.3,6.8,1.1,1.7.5.8a1.8,1.8,0,0,1,.4,1A2.4,2.4,0,0,1,117.6,93.9Zm0,0a2.4,2.4,0,0,0,2.4-2.6,1.9,1.9,0,0,0-.4-.9l-.6-.9-1.1-1.7-4.4-6.7-8.8-13.3h.3l-4.6.6-2.3.4a5,5,0,0,0-1.9,1,5.3,5.3,0,0,0-2,3.7,4,4,0,0,0,0,1.1v1.2a6.3,6.3,0,0,1-.9,2.4,7.7,7.7,0,0,1-1.7,1.9l-2.1,1.2a5.8,5.8,0,0,0-2.9,3.1,8.3,8.3,0,0,0-.3,2.2,8.6,8.6,0,0,0,.7,2.1l1.6,4.5-.3-.2,14.6.4Z" fill="#fff"/><path d="M107.1,88.2a9.4,9.4,0,0,0,.4,5.5l10.1.2a2.3,2.3,0,0,0,2.1-3.4l-5.9-9.2C110.7,82.9,108,85,107.1,88.2Z" fill="#fff"/><path d="M93,73,72.1,61.4,51.3,49.5,30.7,37.4,20.4,31.2,10.2,25l10.4,5.8L31,36.7,51.8,48.6,72.4,60.7Z" fill="#fff"/><path d="M86.9,81.6,66,70,45.2,58.1,24.6,46,14.3,39.8,4.1,33.6l10.4,5.8L25,45.3,45.7,57.2,66.4,69.3Z" fill="#fff"/></g></g></svg>