<svg xmlns="http://www.w3.org/2000/svg" viewBox="0 0 128.2 183.8"><g id="Layer_2" data-name="Layer 2"><g id="Layer_1-2" data-name="Layer 1"><path d="M119.5,124.3a64.5,64.5,0,0,1-38.7,30.1,62.1,62.1,0,0,1-25,1.8,64.3,64.3,0,0,1-42.6-24.6,63.8,63.8,0,0,1-11-22.5A67.4,67.4,0,0,1,.5,84.2,66.2,66.2,0,0,1,8.4,60.4,64,64,0,0,1,47.3,30.3a66.3,66.3,0,0,1,25.1-1.8,65.3,65.3,0,0,1,23.8,8.1,63.6,63.6,0,0,1,18.9,16.5,66.9,66.9,0,0,1,11,22.6A64.9,64.9,0,0,1,119.5,124.3Zm-.1-.1a63.4,63.4,0,0,0,7.9-23.6,64.4,64.4,0,0,0-1.8-24.7,65.5,65.5,0,0,0-11.2-22.2A64.2,64.2,0,0,0,95.7,37.5a61.2,61.2,0,0,0-23.5-7.9,61.9,61.9,0,0,0-24.6,1.6A61.9,61.9,0,0,0,25.3,42.1,63.3,63.3,0,0,0,.9,84.2,61,61,0,0,0,2.6,109a64,64,0,0,0,29.8,38.5,65.4,65.4,0,0,0,23.5,7.9,64.3,64.3,0,0,0,24.7-1.6,63,63,0,0,0,38.8-29.6Z" fill="#fff"/><polygon points="118.5 0.1 116.6 3.6 116.4 3.4 118.4 0 118.5 0.1" fill="#fff"/><polygon points="114.6 7.1 112.7 10.6 112.3 10.3 114.3 6.9 114.6 7.1" fill="#fff"/><polygon points="110.7 14 108.8 17.5 108.2 17.2 110.2 13.7 110.7 14" fill="#fff"/><polygon points="106.8 21 104.8 24.5 104.2 24.1 106.2 20.6 106.8 21" fill="#fff"/><polygon points="102.9 28 100.9 31.4 100.1 31 102.2 27.6 102.9 28" fill="#fff"/><polygon points="98.9 34.9 96.9 38.4 96.1 37.9 98.1 34.5 98.9 34.9" fill="#fff"/><polygon points="94.9 41.8 92.9 45.3 92.2 44.9 94.2 41.4 94.9 41.8" fill="#fff"/><polygon points="90.9 48.8 88.8 52.2 88.2 51.9 90.2 48.4 90.9 48.8" fill="#fff"/><polygon points="86.8 55.7 84.8 59.1 84.3 58.8 86.3 55.4 86.8 55.7" fill="#fff"/><polygon points="82.7 62.5 80.7 66 80.4 65.8 82.4 62.3 82.7 62.5" fill="#fff"/><polygon points="78.7 69.5 76.7 72.9 76.4 72.8 78.4 69.3 78.7 69.5" fill="#fff"/><polygon points="74.7 76.4 72.7 79.9 72.4 79.7 74.4 76.2 74.7 76.4" fill="#fff"/><polygon points="70.8 83.3 68.8 86.8 68.4 86.6 70.4 83.1 70.8 83.3" fill="#fff"/><polygon points="66.8 90.3 64.9 93.8 64.4 93.5 66.4 90 66.8 90.3" fill="#fff"/><polygon points="62.9 97.3 60.9 100.8 60.3 100.4 62.3 96.9 62.9 97.3" fill="#fff"/><polygon points="59 104.2 57 107.7 56.3 107.3 58.3 103.8 59 104.2" fill="#fff"/><polygon points="55 111.2 53 114.7 52.2 114.2 54.2 110.8 55 111.2" fill="#fff"/><polygon points="51.1 118.2 49.1 121.6 48.2 121.1 50.2 117.7 51.1 118.2" fill="#fff"/><polygon points="47.1 125.1 45.1 128.6 44.2 128.1 46.2 124.6 47.1 125.1" fill="#fff"/><polygon points="43.1 132 41.1 135.5 40.2 135 42.2 131.5 43.1 132" fill="#fff"/><polygon points="39.1 139 37.1 142.4 36.2 141.9 38.2 138.5 39.1 139" fill="#fff"/><polygon points="35.1 145.9 33.1 149.4 32.3 148.9 34.3 145.4 35.1 145.9" fill="#fff"/><polygon points="31.1 152.8 29.1 156.3 28.4 155.8 30.3 152.4 31.1 152.8" fill="#fff"/><polygon points="27 159.7 25 163.2 24.4 162.8 26.4 159.3 27 159.7" fill="#fff"/><polygon points="23 166.6 21 170.1 20.5 169.8 22.5 166.3 23 166.6" fill="#fff"/><polygon points="18.9 173.5 16.9 176.9 16.6 176.8 18.5 173.3 18.9 173.5" fill="#fff"/><polygon points="14.9 180.4 12.8 183.8 12.7 183.8 14.6 180.3 14.9 180.4" fill="#fff"/><path d="M63.8,121.6l17.8-7.3c.6-.2.3-1.2-.3-.9l-17.8,7.2c-.6.3-.3,1.2.3,1Z" fill="#fff"/><path d="M71.4,109.4c1.1,5.1,2.3,10.2,3.4,15.3a.5.5,0,1,0,.9-.2l-3.3-15.3a.5.5,0,0,0-1,.2Z" fill="#fff"/></g></g></svg>