<svg xmlns="http://www.w3.org/2000/svg" width="162" height="211.673" viewBox="0 0 162 211.673"><g transform="translate(-290.654 -632.727)"><g transform="translate(326.019 635.977)"><path d="M395.581,734.62V645.372a9.394,9.394,0,0,1,9.395-9.395h82.2a2.349,2.349,0,0,1,2.349,2.349v85.334h0" transform="translate(-395.581 -635.977)" fill="none" stroke="#a9e4eb" stroke-linecap="round" stroke-linejoin="round" stroke-width="6.5"/><path d="M489.526,903.152v18.789a2.349,2.349,0,0,1-2.349,2.349H406.15a10.569,10.569,0,0,1,0-21.138h83.377Z" transform="translate(-395.581 -816.253)" fill="none" stroke="#a9e4eb" stroke-linecap="round" stroke-linejoin="round" stroke-width="6.5"/><line x2="75.156" transform="translate(16.44 97.468)" fill="none" stroke="#a9e4eb" stroke-linecap="round" stroke-width="6.5"/><path d="M462.918,679.3h51.67v18.789H460.569V681.651A2.349,2.349,0,0,1,462.918,679.3Z" transform="translate(-439.431 -665.21)" fill="none" stroke="#a9e4eb" stroke-linecap="round" stroke-linejoin="round" stroke-width="6.5"/><path d="M485.843,792.433h37.578m-37.578,11.743h37.578M494.063,780.4H515.2" transform="translate(-456.485 -733.423)" fill="none" stroke="#a9e4eb" stroke-linecap="round" stroke-linejoin="round" stroke-width="6.5"/></g><text transform="translate(292.487 813.993)" fill="#fff" font-size="40" font-family="Typo_SsangmunDong_B, Typo_SsangmunDong"><tspan x="0" y="0">수학노트</tspan></text><text transform="translate(371.654 840.4)" fill="#fff" font-size="15" font-family="MalgunGothic, Malgun Gothic"><tspan x="-80.306" y="0">진단</tspan><tspan y="0" font-family="SegoeUI, Segoe UI">·</tspan><tspan y="0">추천</tspan><tspan y="0" font-family="SegoeUI, Segoe UI">·</tspan><tspan y="0">기출문제</tspan><tspan y="0" font-family="SegoeUI, Segoe UI"> </tspan><tspan y="0">풀이</tspan></text></g></svg>