<svg xmlns="http://www.w3.org/2000/svg" xmlns:xlink="http://www.w3.org/1999/xlink" viewBox="0 0 198.7 82.67"><defs><style>.cls-1{fill:none;}.cls-2{fill:#4545b5;}.cls-3{clip-path:url(#clip-path);}.cls-4{fill:#aed7ff;stroke:#aed7ff;stroke-miterlimit:10;stroke-width:1.5px;}</style><clipPath id="clip-path" transform="translate(0 -10)"><rect id="SVGID" class="cls-1" x="10.26" width="159.1" height="41.69"/></clipPath></defs><g id="레이어_2" data-name="레이어 2"><g id="레이어_1-2" data-name="레이어 1"><path class="cls-2" d="M188.75,73.06a15.33,15.33,0,0,0,4.63-4.33h0A13.11,13.11,0,0,0,195.69,61a15.65,15.65,0,0,0-1.91-7.57,14.82,14.82,0,0,0-5.6-5.68,17.18,17.18,0,0,0-8.76-2.14H62.32V75.35a6.88,6.88,0,0,1-.63,3.08A4.13,4.13,0,0,1,60,80.24a5.39,5.39,0,0,1-2.68.64,4.62,4.62,0,0,1-3.62-1.41,5.91,5.91,0,0,1-1.32-4.12V45.56H0V57.35H11v35H24v-35H39.36V75.59a16.75,16.75,0,0,0,2.41,9,16.25,16.25,0,0,0,6.56,6,19.45,19.45,0,0,0,8.94,2.1,20.11,20.11,0,0,0,6.91-1.18A17.15,17.15,0,0,0,70,88a16.13,16.13,0,0,0,3.92-5.49,17.22,17.22,0,0,0,1.41-6.94V57.35H90.66v35h13v-35h15.58a3.38,3.38,0,0,0-.08.34,48.6,48.6,0,0,0-.82,9.74v3a48.32,48.32,0,0,0,.82,9.72,14.3,14.3,0,0,0,4,7.18,17.88,17.88,0,0,0,3.71,3,16.45,16.45,0,0,0,4.31,1.78,20.67,20.67,0,0,0,5.17.6,18.91,18.91,0,0,0,7.43-1.35,18.49,18.49,0,0,0,5.79-4,14.28,14.28,0,0,0,3.23-4.89A20.66,20.66,0,0,0,154.1,77c.18-1.83.27-4,.27-6.54v-3c0-2.51-.09-4.72-.27-6.54a19.86,19.86,0,0,0-.66-3.54h7.26v35h13V75.64h2.09l7.94,16.67h15Zm-6-12.09a3.46,3.46,0,0,1-.45,1.73A3.26,3.26,0,0,1,181,64a4,4,0,0,1-2,.49h-5.25v-7h5.25a4.06,4.06,0,0,1,2,.5,3.19,3.19,0,0,1,1.28,1.27A3.6,3.6,0,0,1,182.71,61Zm-41.33,8a48.38,48.38,0,0,1-.37,7.53,7,7,0,0,1-1,2.79,4.81,4.81,0,0,1-7.23,0,4.93,4.93,0,0,1-.75-1.43,13.44,13.44,0,0,1-.48-2.9c-.12-1.37-.18-3.38-.18-6s.06-4.63.18-6A13.8,13.8,0,0,1,132,60a5,5,0,0,1,.75-1.44,4.1,4.1,0,0,1,1.48-1.14,5,5,0,0,1,2.12-.44,5.07,5.07,0,0,1,2.2.46A3.5,3.5,0,0,1,140,58.56a6.22,6.22,0,0,1,1,2.75A50.34,50.34,0,0,1,141.38,68.93Z" transform="translate(0 -10)"/><g class="cls-3"><polygon class="cls-4" points="45.04 19.14 35.95 1.05 31.86 1.05 43.06 23.29 43.06 38.97 46.83 38.97 46.83 23.29 58.03 1.05 53.94 1.05 45.04 19.14"/><path class="cls-4" d="M86.76,18.3h0a10.8,10.8,0,0,0-2.47-3.64A13.46,13.46,0,0,0,80,11.77a13.94,13.94,0,0,0-10.47,0,13.24,13.24,0,0,0-4.35,2.89,10.8,10.8,0,0,0-2.47,3.64,15.36,15.36,0,0,0-.91,4.32c-.12,1.59-.18,4-.18,7.39s.06,5.8.18,7.39a15.36,15.36,0,0,0,.91,4.32,10.7,10.7,0,0,0,2.47,3.64,13.12,13.12,0,0,0,4.37,2.89,13.74,13.74,0,0,0,10.44,0,13.24,13.24,0,0,0,4.35-2.89,10.7,10.7,0,0,0,2.47-3.64,15.36,15.36,0,0,0,.91-4.32c.12-1.57.18-4.06.18-7.39s-.06-5.81-.18-7.39A15.36,15.36,0,0,0,86.76,18.3ZM84.08,30c0,2.89-.06,5.13-.18,6.65a13.51,13.51,0,0,1-.74,3.73,7.82,7.82,0,0,1-1.8,2.72,9.33,9.33,0,0,1-3,2,9.79,9.79,0,0,1-7.24,0,9,9,0,0,1-3-2,7.54,7.54,0,0,1-1.77-2.7,13.43,13.43,0,0,1-.75-3.75c-.12-1.52-.18-3.76-.18-6.65,0-1.93,0-3.61.08-5a24.51,24.51,0,0,1,.37-3.63,9.55,9.55,0,0,1,.8-2.56A7.87,7.87,0,0,1,68,16.89a8.69,8.69,0,0,1,3.06-2,9.85,9.85,0,0,1,3.61-.68,9.7,9.7,0,0,1,3.61.68,8.89,8.89,0,0,1,3,2,7.76,7.76,0,0,1,1.79,2.71,13.35,13.35,0,0,1,.75,3.76C84,24.88,84.08,27.12,84.08,30Z" transform="translate(0 -10)"/><path class="cls-4" d="M118.86,36.15a10.73,10.73,0,0,1-1.17,5.11,8.26,8.26,0,0,1-3.31,3.37,10.64,10.64,0,0,1-9.82,0,8.34,8.34,0,0,1-3.29-3.37,10.68,10.68,0,0,1-1.17-5.11V11.05H96.32V36.5A13.11,13.11,0,0,0,98,43.1a11.69,11.69,0,0,0,4.71,4.56,15,15,0,0,0,13.57,0A11.73,11.73,0,0,0,121,43.1a13.11,13.11,0,0,0,1.68-6.6V11.05h-3.78Z" transform="translate(0 -10)"/><path class="cls-4" d="M149.93,31.75a10.57,10.57,0,0,0,5.89-3.32,10.36,10.36,0,0,0,2.39-7,10.69,10.69,0,0,0-1.44-5.61,9.36,9.36,0,0,0-4-3.58,12.93,12.93,0,0,0-5.67-1.2H132.58V49h3.77v-17h9.4l8.82,17h4.35Zm2.39-5a6.9,6.9,0,0,1-2.4,1.29,10.7,10.7,0,0,1-3.15.44H136.35v-14h10.42a8.39,8.39,0,0,1,5.61,1.78,6.43,6.43,0,0,1,2.05,5.21,7.85,7.85,0,0,1-.57,3.11A5.74,5.74,0,0,1,152.32,26.76Z" transform="translate(0 -10)"/></g></g></g></svg>