<svg xmlns="http://www.w3.org/2000/svg" viewBox="0 0 162.41 162.8"><defs><style>.cls-1{fill:#4545b5;}.cls-2{fill:#aed7ff;}.cls-3{fill:#fff;}.cls-4{fill:none;}</style></defs><g id="레이어_2" data-name="레이어 2"><g id="레이어_1-2" data-name="레이어 1"><g id="로고"><path class="cls-1" d="M74,21.23a2.58,2.58,0,0,0,2.58-2.58V2.57a2.58,2.58,0,0,0-5.15,0V18.65A2.58,2.58,0,0,0,74,21.23Z"/><path class="cls-2" d="M51.71,25.32a2.56,2.56,0,0,0,2.23,1.29,2.57,2.57,0,0,0,2.22-3.86l-4-7a2.57,2.57,0,1,0-4.45,2.57Z"/><path class="cls-1" d="M24,32.94l13.93,8a2.57,2.57,0,0,0,2.57-4.46l-13.93-8A2.57,2.57,0,0,0,24,32.94Z"/><path class="cls-1" d="M108.85,41.33a2.63,2.63,0,0,0,1.29-.35l13.92-8a2.57,2.57,0,0,0-2.57-4.46l-13.93,8a2.58,2.58,0,0,0,1.29,4.81Z"/><path class="cls-2" d="M92.85,26.27a2.57,2.57,0,0,0,3.51-.95l4-7a2.57,2.57,0,0,0-4.45-2.57l-4,7A2.57,2.57,0,0,0,92.85,26.27Z"/><path class="cls-3" d="M33.84,88.44H49.92a2.57,2.57,0,0,0,2.57-2.57h0a2.57,2.57,0,0,0-2.57-2.57H33.84a2.57,2.57,0,0,0-2.58,2.57h0A2.57,2.57,0,0,0,33.84,88.44Z"/><path class="cls-3" d="M58,104.73H25.8a2.58,2.58,0,1,0,0,5.15H58a2.58,2.58,0,1,0,0-5.15Z"/><path class="cls-3" d="M58,94H25.8a2.58,2.58,0,1,0,0,5.15H58A2.58,2.58,0,1,0,58,94Z"/><path class="cls-3" d="M156.84,120a12.11,12.11,0,0,0-15.73-6.61l-12.92,5.24-3.85-9.47a8.37,8.37,0,1,0-15.51,6.3l4,9.91a8.67,8.67,0,0,0-2.77.61,8.39,8.39,0,0,0-4.6,10.91l4.18,10.3A25.14,25.14,0,0,0,142.38,161a2.8,2.8,0,0,0,1.54-3.63,2.8,2.8,0,0,0-3.64-1.54A19.56,19.56,0,0,1,114.84,145l-4.18-10.3a2.79,2.79,0,0,1,5.17-2.1L120,143a2.79,2.79,0,0,0,5.17-2.1L114,113.31a2.79,2.79,0,1,1,5.17-2.1l4.9,12.05h0s0,0,0,0a2.56,2.56,0,0,0,.11.24s0,0,0,0l.12.21,0,0,.12.17s0,0,.05.05l.14.15s0,0,0,0l.15.13.06,0,.15.11.06,0,.17.1.07,0,.18.09.06,0,.19.07.06,0,.2,0h.07l.19,0h.27a.22.22,0,0,1,.08,0H127l.18,0,.11,0,.16,0,.13-.05.14,0,15.51-6.29a6.53,6.53,0,0,1,8.39,3.36l5.28,27.67a2.79,2.79,0,0,0,5.31.56,2.91,2.91,0,0,0,.17-1.61L157,120.55v0h0s0,0,0,0,0-.15-.06-.23,0-.14-.07-.21,0,0,0,0h0l0,0Z"/><path class="cls-4" d="M135.78,110V56.28H82.07a5.47,5.47,0,0,0-5.46,5.46h0v64.32a2.58,2.58,0,1,1-5.15,0V61.74h0A5.47,5.47,0,0,0,66,56.28H12.29v75.25H66a10.52,10.52,0,0,1,8,3.77,10.53,10.53,0,0,1,8-3.77H99.94a13.43,13.43,0,0,0,0,4.15h35.86a4.15,4.15,0,0,0,4.15-4.15V108.3q-.37.12-.75.27Z"/><path class="cls-3" d="M80.5,142.16c0,4.94-5.6,8.6-10.8,5a5.53,5.53,0,0,1-2.13-4.94A1.58,1.58,0,0,0,66,140.57H10.29a6.14,6.14,0,0,1-6.14-6.15V60.7A10.19,10.19,0,0,0,0,68.89v65.53a10.3,10.3,0,0,0,10.29,10.3H63.74a10.61,10.61,0,0,0,20.59,0h18.8l-1.68-4.15H82.08A1.59,1.59,0,0,0,80.5,142.16Z"/><path class="cls-3" d="M143.93,60.7v46.72a16.85,16.85,0,0,1,4.14.09V68.89A10.21,10.21,0,0,0,143.93,60.7Z"/><path class="cls-3" d="M140.21,53.7a5.12,5.12,0,0,0-4.43-2.57H82.07a10.5,10.5,0,0,0-6.84,2.57A11.33,11.33,0,0,0,74,54.9a10.37,10.37,0,0,0-1.19-1.2A10.5,10.5,0,0,0,66,51.13H12.29a5.22,5.22,0,0,0-5.15,5.15v75.25a5.16,5.16,0,0,0,5.15,5.15H66a5.47,5.47,0,0,1,5.47,5.46,2.58,2.58,0,1,0,5.15,0,5.47,5.47,0,0,1,5.46-5.46h18c-.08-.34-.13-.67-.18-1a13.43,13.43,0,0,1,0-4.15H82.07a10.53,10.53,0,0,0-8,3.77,10.52,10.52,0,0,0-8-3.77H12.29V56.28H66a5.47,5.47,0,0,1,5.47,5.46h0v64.32a2.58,2.58,0,1,0,5.15,0V61.74h0a5.47,5.47,0,0,1,5.46-5.46h53.71V110l3.4-1.38q.38-.15.75-.27c.33-.12.66-.23,1-.32V56.28A5.15,5.15,0,0,0,140.21,53.7Z"/></g></g></g></svg>