<svg xmlns="http://www.w3.org/2000/svg" xmlns:xlink="http://www.w3.org/1999/xlink" viewBox="0 0 198.7 253.5"><defs><style>.cls-1{fill:none;}.cls-2{fill:#4545b5;}.cls-3{clip-path:url(#clip-path);}.cls-4,.cls-5{fill:#aed7ff;}.cls-4{stroke:#aed7ff;stroke-miterlimit:10;stroke-width:1.5px;}.cls-6{fill:#fff;}</style><clipPath id="clip-path"><rect class="cls-1" x="10.26" y="160.82" width="159.1" height="41.69"/></clipPath></defs><g id="레이어_2" data-name="레이어 2"><g id="_1" data-name="1"><g id="로고"><path class="cls-2" d="M188.75,233.88a15.09,15.09,0,0,0,4.63-4.33h0a13.11,13.11,0,0,0,2.31-7.78,15.65,15.65,0,0,0-1.91-7.57,14.73,14.73,0,0,0-5.6-5.67,17.08,17.08,0,0,0-8.76-2.15H62.32v29.79a6.88,6.88,0,0,1-.63,3.08A4.13,4.13,0,0,1,60,241.06a5.39,5.39,0,0,1-2.68.64,4.64,4.64,0,0,1-3.62-1.4,5.92,5.92,0,0,1-1.32-4.13V206.38H0v11.79H11v35H24v-35H39.36v18.24a16.75,16.75,0,0,0,2.41,9,16.25,16.25,0,0,0,6.56,6,19.46,19.46,0,0,0,8.94,2.11,20.35,20.35,0,0,0,6.91-1.18,17.47,17.47,0,0,0,5.8-3.47,16.07,16.07,0,0,0,3.92-5.5,17.18,17.18,0,0,0,1.41-6.94V218.17H90.66v35h13v-35h15.58c0,.11-.06.23-.08.34a48.6,48.6,0,0,0-.82,9.74v3a48.32,48.32,0,0,0,.82,9.72,14.26,14.26,0,0,0,4,7.18,17.88,17.88,0,0,0,3.71,3,16.82,16.82,0,0,0,4.31,1.79,21.15,21.15,0,0,0,5.17.6,18.91,18.91,0,0,0,7.43-1.36,18.32,18.32,0,0,0,5.79-4,14.28,14.28,0,0,0,3.23-4.89,20.57,20.57,0,0,0,1.3-5.48c.18-1.83.27-4,.27-6.54v-3c0-2.51-.09-4.71-.27-6.54a19.86,19.86,0,0,0-.66-3.54h7.26v35h13V236.46h2.09l7.94,16.67h15Zm-6-12.09a3.43,3.43,0,0,1-.45,1.73,3.26,3.26,0,0,1-1.28,1.27,4,4,0,0,1-2,.5h-5.25v-7h5.25a4.06,4.06,0,0,1,2,.5,3.15,3.15,0,0,1,1.28,1.28A3.54,3.54,0,0,1,182.71,221.79Zm-41.33,8a48.38,48.38,0,0,1-.37,7.53,7,7,0,0,1-1,2.79,4.81,4.81,0,0,1-7.23,0,4.93,4.93,0,0,1-.75-1.43,13.32,13.32,0,0,1-.48-2.9c-.12-1.37-.18-3.38-.18-6s.06-4.63.18-6a13.68,13.68,0,0,1,.48-2.92,4.75,4.75,0,0,1,.75-1.44,4,4,0,0,1,1.48-1.15,5,5,0,0,1,2.12-.44,5.22,5.22,0,0,1,2.2.46,3.5,3.5,0,0,1,1.43,1.12,6.27,6.27,0,0,1,1,2.76A50.09,50.09,0,0,1,141.38,229.75Z"/><g class="cls-3"><polygon class="cls-4" points="45.04 189.96 35.95 171.87 31.86 171.87 43.06 194.12 43.06 209.8 46.83 209.8 46.83 194.12 58.03 171.87 53.94 171.87 45.04 189.96"/><path class="cls-4" d="M86.76,179.13h0a10.76,10.76,0,0,0-2.47-3.63,13.33,13.33,0,0,0-4.34-2.9,13.94,13.94,0,0,0-10.47,0,13.27,13.27,0,0,0-4.35,2.9,10.7,10.7,0,0,0-2.47,3.64,15.28,15.28,0,0,0-.91,4.32c-.12,1.58-.18,4-.18,7.38s.06,5.8.18,7.39a15.28,15.28,0,0,0,.91,4.32,10.7,10.7,0,0,0,2.47,3.64,13.3,13.3,0,0,0,4.37,2.9,13.64,13.64,0,0,0,5.22,1,13.83,13.83,0,0,0,5.22-1,13.43,13.43,0,0,0,4.35-2.9,10.7,10.7,0,0,0,2.47-3.64,15.28,15.28,0,0,0,.91-4.32c.12-1.57.18-4.06.18-7.39s-.06-5.81-.18-7.38A15.28,15.28,0,0,0,86.76,179.13Zm-2.68,11.7c0,2.89-.06,5.13-.18,6.65a13.51,13.51,0,0,1-.74,3.73,7.73,7.73,0,0,1-1.8,2.72,9.33,9.33,0,0,1-3,2,9.79,9.79,0,0,1-7.24,0,9.21,9.21,0,0,1-3-2,7.59,7.59,0,0,1-1.77-2.69,13.58,13.58,0,0,1-.75-3.76c-.12-1.52-.18-3.75-.18-6.65,0-1.92,0-3.61.08-5a24.51,24.51,0,0,1,.37-3.63,9.55,9.55,0,0,1,.8-2.56A7.87,7.87,0,0,1,68,177.71a9,9,0,0,1,3.06-2,9.85,9.85,0,0,1,3.61-.68,9.7,9.7,0,0,1,3.61.68,9.19,9.19,0,0,1,3,2,7.76,7.76,0,0,1,1.79,2.71,13.35,13.35,0,0,1,.75,3.76C84,185.7,84.08,187.94,84.08,190.83Z"/><path class="cls-4" d="M118.86,197a10.68,10.68,0,0,1-1.17,5.11,8.26,8.26,0,0,1-3.31,3.37,10.57,10.57,0,0,1-9.82,0,8.34,8.34,0,0,1-3.29-3.37A10.68,10.68,0,0,1,100.1,197v-25.1H96.32v25.45A13.15,13.15,0,0,0,98,203.93a11.66,11.66,0,0,0,4.71,4.55,15,15,0,0,0,13.57,0,11.78,11.78,0,0,0,4.68-4.55,13.12,13.12,0,0,0,1.68-6.61V171.87h-3.78Z"/><path class="cls-4" d="M149.93,192.58a10.64,10.64,0,0,0,5.89-3.33,10.36,10.36,0,0,0,2.39-7,10.69,10.69,0,0,0-1.44-5.61,9.36,9.36,0,0,0-4-3.58,13.07,13.07,0,0,0-5.67-1.2H132.58V209.8h3.77v-17h9.4l8.82,17h4.35Zm2.39-5a6.74,6.74,0,0,1-2.4,1.29,10.7,10.7,0,0,1-3.15.44H136.35v-14h10.42a8.39,8.39,0,0,1,5.61,1.78,6.44,6.44,0,0,1,2.05,5.22,7.8,7.8,0,0,1-.57,3.1A5.74,5.74,0,0,1,152.32,187.58Z"/></g><g id="로고-2" data-name="로고"><path class="cls-2" d="M97.79,21.23a2.58,2.58,0,0,0,2.57-2.58V2.57a2.57,2.57,0,1,0-5.14,0V18.65A2.58,2.58,0,0,0,97.79,21.23Z"/><path class="cls-5" d="M75.46,25.32a2.58,2.58,0,0,0,2.23,1.29A2.62,2.62,0,0,0,79,26.27a2.58,2.58,0,0,0,.94-3.52l-4-7a2.57,2.57,0,0,0-4.46,2.57Z"/><path class="cls-2" d="M47.77,32.94l13.92,8a2.63,2.63,0,0,0,1.29.35,2.58,2.58,0,0,0,1.29-4.81l-13.93-8a2.57,2.57,0,0,0-2.57,4.46Z"/><path class="cls-2" d="M132.61,41.33a2.57,2.57,0,0,0,1.28-.35l13.93-8a2.58,2.58,0,0,0-2.58-4.46l-13.92,8a2.58,2.58,0,0,0,1.29,4.81Z"/><path class="cls-5" d="M116.61,26.27a2.57,2.57,0,0,0,3.51-.95l4-7a2.57,2.57,0,0,0-4.46-2.57l-4,7A2.57,2.57,0,0,0,116.61,26.27Z"/><path class="cls-6" d="M57.59,88.44H73.67a2.57,2.57,0,0,0,2.57-2.57h0a2.57,2.57,0,0,0-2.57-2.57H57.59A2.57,2.57,0,0,0,55,85.86h0A2.57,2.57,0,0,0,57.59,88.44Z"/><path class="cls-6" d="M81.71,104.73H49.55a2.58,2.58,0,0,0,0,5.15H81.71a2.58,2.58,0,0,0,0-5.15Z"/><path class="cls-6" d="M81.71,94H49.55a2.58,2.58,0,0,0,0,5.15H81.71a2.58,2.58,0,0,0,0-5.15Z"/><path class="cls-6" d="M180.6,120a12.11,12.11,0,0,0-15.73-6.61l-12.93,5.24-3.85-9.47a8.37,8.37,0,1,0-15.5,6.3l4,9.91a8.61,8.61,0,0,0-2.76.61,8.38,8.38,0,0,0-4.6,10.91l4.18,10.3A25.14,25.14,0,0,0,166.14,161a2.79,2.79,0,0,0,1.52-1.5,2.79,2.79,0,0,0-3.62-3.67A19.55,19.55,0,0,1,138.6,145l-4.18-10.3a2.79,2.79,0,0,1,5.17-2.1L143.78,143a2.79,2.79,0,1,0,5.17-2.1l-11.19-27.56a2.79,2.79,0,1,1,5.17-2.1l4.89,12.05h0l0,0,.1.24,0,0a2.25,2.25,0,0,0,.12.21l0,0,.12.17.05.05.13.15.06,0s.09.09.15.13l.06,0,.15.11.06,0,.17.1.07,0,.17.09.07,0,.18.07.07,0,.19,0h.07l.2,0h.27a.22.22,0,0,1,.08,0h.29l.18,0,.11,0,.16,0,.13-.05.14,0L167,118.51a6.52,6.52,0,0,1,8.38,3.36l5.28,27.67a2.79,2.79,0,0,0,5.31.56,2.74,2.74,0,0,0,.17-1.61l-5.33-27.94v0h0a.08.08,0,0,0,0,0c0-.07,0-.15,0-.23a1.8,1.8,0,0,0-.08-.21s0,0,0,0h0s0,0,0,0Z"/><path class="cls-1" d="M159.54,110V56.28H105.83a5.48,5.48,0,0,0-5.47,5.46h0v64.32a2.57,2.57,0,1,1-5.14,0V61.74h0a5.47,5.47,0,0,0-5.47-5.46H36.05v75.25h53.7a10.53,10.53,0,0,1,8,3.77,10.53,10.53,0,0,1,8-3.77H123.7a13.13,13.13,0,0,0,0,4.15h35.86a4.15,4.15,0,0,0,4.15-4.15V108.3q-.37.12-.75.27Z"/><path class="cls-6" d="M104.26,142.16c0,4.94-5.6,8.6-10.8,5a5.48,5.48,0,0,1-2.13-4.94,1.58,1.58,0,0,0-1.58-1.65H34.05a6.15,6.15,0,0,1-6.15-6.15V60.7a10.21,10.21,0,0,0-4.14,8.19v65.53a10.29,10.29,0,0,0,10.29,10.3H87.49a10.62,10.62,0,0,0,20.6,0h18.8l-1.68-4.15H105.83A1.58,1.58,0,0,0,104.26,142.16Z"/><path class="cls-6" d="M167.68,60.7v46.72a16.92,16.92,0,0,1,4.15.09V68.89A10.19,10.19,0,0,0,167.68,60.7Z"/><path class="cls-6" d="M164,53.7a5.13,5.13,0,0,0-4.43-2.57H105.83A10.54,10.54,0,0,0,99,53.7a11.24,11.24,0,0,0-1.19,1.2,11.24,11.24,0,0,0-1.19-1.2,10.52,10.52,0,0,0-6.85-2.57H36.05a5.12,5.12,0,0,0-4.43,2.57,5.05,5.05,0,0,0-.72,2.58v75.25a5.16,5.16,0,0,0,5.15,5.15h53.7a5.47,5.47,0,0,1,5.47,5.46,2.57,2.57,0,1,0,5.14,0,5.48,5.48,0,0,1,5.47-5.46h18c-.08-.34-.13-.67-.18-1a13.13,13.13,0,0,1,0-4.15H105.83a10.53,10.53,0,0,0-8,3.77,10.53,10.53,0,0,0-8-3.77H36.05V56.28h53.7a5.47,5.47,0,0,1,5.47,5.46h0v64.32a2.57,2.57,0,1,0,5.14,0V61.74h0a5.48,5.48,0,0,1,5.47-5.46h53.71V110l3.4-1.38q.38-.15.75-.27c.33-.12.66-.23,1-.32V56.28A5.14,5.14,0,0,0,164,53.7Z"/></g></g></g></g></svg>