<svg xmlns="http://www.w3.org/2000/svg" width="117.709" height="68" viewBox="0 0 117.709 68"><g transform="translate(0 0)"><path d="M399.026,321.4a1.006,1.006,0,0,1-.5-.131l-28.677-16.213a1.012,1.012,0,0,1-.382-1.377l22.587-39.951a1.01,1.01,0,0,1,1.377-.382l28.677,16.213a1.012,1.012,0,0,1,.383,1.377l-22.587,39.951a1,1,0,0,1-.609.477,1.017,1.017,0,0,1-.272.037Z" transform="translate(-344.671 -256.895)" fill="#e6e6e6"/><rect width="0.234" height="34.816" transform="matrix(0.492, -0.871, 0.871, 0.492, 46.472, 8.6)" fill="#fff"/><rect width="0.234" height="34.816" transform="matrix(0.492, -0.871, 0.871, 0.492, 44.398, 12.269)" fill="#fff"/><rect width="0.234" height="34.816" transform="matrix(0.492, -0.871, 0.871, 0.492, 42.323, 15.938)" fill="#fff"/><rect width="0.234" height="34.816" transform="matrix(0.492, -0.871, 0.871, 0.492, 40.249, 19.607)" fill="#fff"/><rect width="0.234" height="34.816" transform="matrix(0.492, -0.871, 0.871, 0.492, 38.175, 23.276)" fill="#fff"/><rect width="0.234" height="34.816" transform="matrix(0.492, -0.871, 0.871, 0.492, 36.101, 26.945)" fill="#fff"/><rect width="0.234" height="34.816" transform="matrix(0.492, -0.871, 0.871, 0.492, 34.026, 30.614)" fill="#fff"/><rect width="0.234" height="34.816" transform="matrix(0.492, -0.871, 0.871, 0.492, 31.952, 34.282)" fill="#fff"/><rect width="0.234" height="34.816" transform="matrix(0.492, -0.871, 0.871, 0.492, 29.878, 37.951)" fill="#fff"/><rect width="0.234" height="34.816" transform="matrix(0.492, -0.871, 0.871, 0.492, 27.803, 41.62)" fill="#fff"/><rect width="0.234" height="34.816" transform="matrix(0.492, -0.871, 0.871, 0.492, 25.729, 45.289)" fill="#fff"/><path d="M381.026,280.4a1.006,1.006,0,0,1-.5-.131l-28.677-16.213a1.012,1.012,0,0,1-.382-1.377l22.587-39.951a1.01,1.01,0,0,1,1.377-.382l28.677,16.213a1.012,1.012,0,0,1,.383,1.377l-22.587,39.951a1,1,0,0,1-.609.477A1.015,1.015,0,0,1,381.026,280.4Z" transform="translate(-329.338 -221.972)" fill="#f2f2f2"/><rect width="0.234" height="34.816" transform="matrix(0.492, -0.871, 0.871, 0.492, 43.804, 2.524)" fill="#fff"/><rect width="0.234" height="34.816" transform="matrix(0.492, -0.871, 0.871, 0.492, 41.73, 6.193)" fill="#fff"/><rect width="0.234" height="34.816" transform="matrix(0.492, -0.871, 0.871, 0.492, 39.656, 9.862)" fill="#fff"/><rect width="0.234" height="34.816" transform="matrix(0.492, -0.871, 0.871, 0.492, 37.581, 13.531)" fill="#fff"/><rect width="0.234" height="34.816" transform="matrix(0.492, -0.871, 0.871, 0.492, 35.507, 17.199)" fill="#fff"/><rect width="0.234" height="34.816" transform="matrix(0.492, -0.871, 0.871, 0.492, 33.433, 20.868)" fill="#fff"/><rect width="0.234" height="34.816" transform="matrix(0.492, -0.871, 0.871, 0.492, 31.359, 24.537)" fill="#fff"/><rect width="0.234" height="34.816" transform="matrix(0.492, -0.871, 0.871, 0.492, 29.284, 28.206)" fill="#fff"/><rect width="0.234" height="34.816" transform="matrix(0.492, -0.871, 0.871, 0.492, 27.21, 31.875)" fill="#fff"/><rect width="0.234" height="34.816" transform="matrix(0.492, -0.871, 0.871, 0.492, 25.136, 35.544)" fill="#fff"/><rect width="0.234" height="34.816" transform="matrix(0.492, -0.871, 0.871, 0.492, 23.061, 39.213)" fill="#fff"/><path d="M268.956,220.586h-45.83v63.728h45.83a.621.621,0,0,0,.621-.621V221.207a.621.621,0,0,0-.621-.621Zm-43.244,61.969a1.138,1.138,0,1,1,1.138-1.138A1.138,1.138,0,0,1,225.712,282.555Zm0-5.793a1.138,1.138,0,1,1,1.138-1.138A1.138,1.138,0,0,1,225.712,276.761Zm0-5.793a1.138,1.138,0,1,1,1.138-1.138,1.138,1.138,0,0,1-1.138,1.138Zm0-5.793a1.138,1.138,0,1,1,1.138-1.138,1.138,1.138,0,0,1-1.138,1.138Zm0-5.793a1.138,1.138,0,1,1,1.138-1.138,1.138,1.138,0,0,1-1.138,1.138Zm0-5.793a1.138,1.138,0,1,1,1.138-1.138,1.138,1.138,0,0,1-1.138,1.138Zm0-5.793a1.138,1.138,0,1,1,1.138-1.138,1.138,1.138,0,0,1-1.138,1.138Zm0-5.793a1.138,1.138,0,1,1,1.138-1.138A1.138,1.138,0,0,1,225.712,242Zm0-5.793a1.138,1.138,0,1,1,1.138-1.138,1.138,1.138,0,0,1-1.138,1.138Zm0-5.793a1.138,1.138,0,1,1,1.138-1.138,1.138,1.138,0,0,1-1.138,1.138Zm0-5.793a1.138,1.138,0,1,1,1.138-1.138,1.138,1.138,0,0,1-1.138,1.138Z" transform="translate(-220.126 -220.586)" fill="#3f3d56"/><path d="M205.883,238.374c-.307,0-3-.014-3-.517s2.693-.517,3-.517v.207a7.817,7.817,0,0,0-2.78.31,12.622,12.622,0,0,0,5.56,0,3.454,3.454,0,0,0-1.291-.252l.018-.206c1.494.129,1.494.368,1.494.457C208.883,238.359,206.19,238.374,205.883,238.374Z" transform="translate(-202.882 -234.856)" fill="#2f2e41"/><path d="M205.883,276.766c-.307,0-3-.014-3-.517s2.693-.517,3-.517v.207a7.817,7.817,0,0,0-2.78.31,12.621,12.621,0,0,0,5.56,0,3.453,3.453,0,0,0-1.291-.252l.018-.206c1.494.129,1.494.368,1.494.457C208.883,276.752,206.19,276.766,205.883,276.766Z" transform="translate(-202.882 -267.558)" fill="#2f2e41"/><path d="M205.883,315.857c-.307,0-3-.014-3-.517s2.693-.517,3-.517v.207a7.817,7.817,0,0,0-2.78.31,12.623,12.623,0,0,0,5.56,0,3.453,3.453,0,0,0-1.291-.252l.018-.206c1.494.129,1.494.368,1.494.457C208.883,315.842,206.19,315.857,205.883,315.857Z" transform="translate(-202.882 -300.856)" fill="#2f2e41"/><path d="M205.883,354.948c-.307,0-3-.014-3-.517s2.693-.517,3-.517v.207a7.818,7.818,0,0,0-2.78.31,12.622,12.622,0,0,0,5.56,0,3.454,3.454,0,0,0-1.291-.252l.018-.206c1.494.129,1.494.368,1.494.457C208.883,354.934,206.19,354.948,205.883,354.948Z" transform="translate(-202.882 -334.154)" fill="#2f2e41"/><path d="M205.883,394.039c-.307,0-3-.014-3-.517s2.693-.517,3-.517v.207a7.818,7.818,0,0,0-2.78.31,12.621,12.621,0,0,0,5.56,0,3.453,3.453,0,0,0-1.291-.252l.018-.206c1.494.129,1.494.368,1.494.457C208.883,394.024,206.19,394.039,205.883,394.039Z" transform="translate(-202.882 -367.451)" fill="#2f2e41"/><path d="M205.883,433.13c-.307,0-3-.014-3-.517s2.693-.517,3-.517v.207a7.817,7.817,0,0,0-2.78.31,12.622,12.622,0,0,0,5.56,0,3.454,3.454,0,0,0-1.291-.252l.018-.206c1.494.129,1.494.368,1.494.457C208.883,433.115,206.19,433.13,205.883,433.13Z" transform="translate(-202.882 -400.749)" fill="#2f2e41"/><path d="M205.883,472.221c-.307,0-3-.014-3-.517s2.693-.517,3-.517v.207a7.818,7.818,0,0,0-2.78.31,12.622,12.622,0,0,0,5.56,0,3.454,3.454,0,0,0-1.291-.252l.018-.206c1.494.129,1.494.368,1.494.457C208.883,472.206,206.19,472.221,205.883,472.221Z" transform="translate(-202.882 -434.046)" fill="#2f2e41"/><path d="M205.883,511.312c-.307,0-3-.015-3-.517s2.693-.517,3-.517v.207a7.816,7.816,0,0,0-2.78.31,12.623,12.623,0,0,0,5.56,0,3.456,3.456,0,0,0-1.291-.252l.018-.206c1.494.129,1.494.368,1.494.457C208.883,511.3,206.19,511.312,205.883,511.312Z" transform="translate(-202.882 -467.344)" fill="#2f2e41"/><path d="M205.883,550.4c-.307,0-3-.015-3-.517s2.693-.517,3-.517v.207a7.815,7.815,0,0,0-2.78.31,12.622,12.622,0,0,0,5.56,0,3.455,3.455,0,0,0-1.291-.252l.018-.206c1.494.129,1.494.368,1.494.457C208.883,550.389,206.19,550.4,205.883,550.4Z" transform="translate(-202.882 -500.642)" fill="#2f2e41"/><path d="M205.883,589.494c-.307,0-3-.015-3-.517s2.693-.517,3-.517v.207a7.819,7.819,0,0,0-2.78.31,12.622,12.622,0,0,0,5.56,0,3.454,3.454,0,0,0-1.291-.252l.018-.206c1.494.129,1.494.368,1.494.457C208.883,589.48,206.19,589.494,205.883,589.494Z" transform="translate(-202.882 -533.939)" fill="#2f2e41"/><path d="M205.883,628.585c-.307,0-3-.014-3-.517s2.693-.517,3-.517v.207a7.819,7.819,0,0,0-2.78.31,12.622,12.622,0,0,0,5.56,0,3.456,3.456,0,0,0-1.291-.252l.018-.206c1.494.129,1.494.368,1.494.457C208.883,628.571,206.19,628.585,205.883,628.585Z" transform="translate(-202.882 -567.237)" fill="#2f2e41"/><path d="M334.513,326.112h-22.76a.673.673,0,0,1-.672-.672v-8.9a.673.673,0,0,1,.672-.672h22.76a.673.673,0,0,1,.672.672v8.9A.673.673,0,0,1,334.513,326.112Z" transform="translate(-295.045 -301.748)" fill="#fff"/><path d="M375.678,330.516h-5.793a.517.517,0,0,1,0-1.035h5.793a.517.517,0,0,1,0,1.035Z" transform="translate(-344.694 -313.343)" fill="#6c63ff"/><path d="M360.453,347.968H348.245a.517.517,0,1,1,0-1.035h12.208a.517.517,0,1,1,0,1.035Z" transform="translate(-326.261 -328.208)" fill="#6c63ff"/><path d="M360.453,365.419H348.245a.517.517,0,1,1,0-1.035h12.208a.517.517,0,0,1,0,1.035Z" transform="translate(-326.261 -343.073)" fill="#6c63ff"/><path d="M818.947,311.818a1.716,1.716,0,0,0,1.34-2.788c-.845-1.056-2.7-.894-3.435-2.027-.627-.959-.048-2.277.787-3.062a5.509,5.509,0,0,1,9.242,4.669c-.1.849-.337,1.879.322,2.423.585.483,1.448.209,2.183.019a7.787,7.787,0,0,1,6.4,1.191,6.174,6.174,0,0,1,2.7,4.842,4.413,4.413,0,0,1-3.176,4.282c-1.833.421-3.723-.6-5.02-1.965s-2.187-3.057-3.369-4.52a6.566,6.566,0,0,0-4.7-2.786c-1.09-.02-2.283.364-3.207-.213" transform="translate(-725.633 -290.339)" fill="#2f2e41"/><circle cx="3.64" cy="3.64" r="3.64" transform="translate(90.482 14.963)" fill="#ffb8b8"/><path d="M785.34,468.259a1.49,1.49,0,0,1,1.242-1.918l1.112-5.178,1.928,1.964-1.351,4.616a1.5,1.5,0,0,1-2.931.516Z" transform="translate(-698.961 -425.508)" fill="#ffb8b8"/><path d="M667.789,337.665,666,338l-5.383-17.682,3.821-.495Z" transform="translate(-562.714 -272.424)" fill="#ffb8b8"/><path d="M2.206,0h3.5V2.206H0A2.206,2.206,0,0,1,2.206,0Z" transform="matrix(0.983, -0.184, 0.184, 0.983, 99.75, 65.712)" fill="#2f2e41"/><path d="M618.029,352.521h-1.817l-.272-16.375h3.867Z" transform="translate(-524.656 -286.328)" fill="#ffb8b8"/><path d="M596.336,443.13h3.5v2.206h-5.71A2.206,2.206,0,0,1,596.336,443.13Z" transform="translate(-506.078 -377.456)" fill="#2f2e41"/><path d="M803.346,406.895l.167-8c-.013-.113-1.325-12.237-1.815-15.335a4.89,4.89,0,0,1,2.1-4.778c.115-.047.219-.087.323-.125h0a6.885,6.885,0,0,1,7.194,1.462,7.115,7.115,0,0,1,2.007,7.216l-.906,3.137c4.641,8.391,5.594,12,5.6,12.038l0,.011v.011c-.166,3.328-14,4.32-14.592,4.361Z" transform="translate(-712.897 -354.848)" fill="#6c63ff"/><path d="M584.995,183.616l-3.136,12.377,5.611.66Z" transform="translate(-495.625 -156.403)" fill="#6c63ff"/><path d="M856.9,443.183a1.49,1.49,0,0,1,1.983-1.136l3.361-4.093.814,2.629-3.317,3.483a1.5,1.5,0,0,1-2.842-.884Z" transform="translate(-759.95 -405.74)" fill="#ffb8b8"/><path d="M842.459,399.743l-2.926-1.893,2.785-2.948-7.55-2.3,1.943-5.659,2.39.341,6.074,4.5a3.68,3.68,0,0,1,.79,5.093l-.013.014Z" transform="translate(-741.12 -362.29)" fill="#6c63ff"/><path d="M815.85,319.025a11.928,11.928,0,0,0,5.16,1.7l-.544-.652a4,4,0,0,0,1.235.245,1.352,1.352,0,0,0,1.1-.516,1.258,1.258,0,0,0,.084-1.162,2.382,2.382,0,0,0-.749-.937,4.462,4.462,0,0,0-4.153-.742,2.667,2.667,0,0,0-1.24.8c-.313.387-1,.734-.837,1.206Z" transform="translate(-725.006 -302.49)" fill="#2f2e41"/><path d="M735.716,677.386h-45.1a.176.176,0,0,1,0-.353h45.1a.176.176,0,0,1,0,.353Z" transform="translate(-618.184 -609.385)" fill="#3f3d56"/></g></svg>