<svg xmlns="http://www.w3.org/2000/svg" width="47.587" height="52.305" viewBox="0 0 47.587 52.305"><g transform="translate(-6521.47 -95.5)"><path d="M16.944.506c6.069-1.665,14.1,1.1,19.174,3.974s6.338,9.8,8,15.871,5.264,13.32,2.39,18.4-10.258,8.217-16.328,9.882-11.923-.967-17-3.84S2.415,38.344.75,32.275A24.891,24.891,0,0,1,3.221,14.121C6.121,9.045,10.874,2.171,16.944.506Z" transform="translate(6521.469 95.497)" fill="#a9e4eb"/><g transform="translate(6525.227 97.533)"><path d="M11.82,41.633,6.341,37.739,28.6,6.426l5.478,3.894Zm1.772,4.512L15.123,44,39.749,9.38,27.637.76,3.011,35.349,1.481,37.5,1.4,39.216l3.948,2.82,2.659,1.88,3.974,2.82Z" transform="translate(-1.4 -0.76)" fill="#424b4b"/></g><path d="M12.14,19.924,6.662,16.03l-3.33-2.39L1.8,15.788,1.72,17.507,1.21,29.323,12.3,25.053l1.611-.618,1.531-2.148ZM5.56,23.308l.134-2.954,2.659,1.88Z" transform="translate(6523.507 118.482)" fill="#424b4b"/></g></svg>