<svg xmlns="http://www.w3.org/2000/svg" xmlns:xlink="http://www.w3.org/1999/xlink" viewBox="0 0 96.22 152.94"><defs><style>.cls-1,.cls-13{fill:none;}.cls-2{fill:url(#radial-gradient);}.cls-3{fill:#6943ae;}.cls-4{clip-path:url(#clip-path);}.cls-5{fill:#281f3e;}.cls-6{fill:#ff8a64;}.cls-7{fill:#632812;}.cls-8{fill:#ce4333;}.cls-9{clip-path:url(#clip-path-2);}.cls-10{fill:#fff;}.cls-11{fill:#ffae1a;}.cls-12{clip-path:url(#clip-path-3);}.cls-13{stroke:#fff;stroke-miterlimit:10;stroke-width:0.89px;}</style><radialGradient id="radial-gradient" cx="48.11" cy="48.11" r="48.11" gradientUnits="userSpaceOnUse"><stop offset="0" stop-color="#fff"/><stop offset="1" stop-color="#f3f3f9"/></radialGradient><clipPath id="clip-path"><circle class="cls-1" cx="48.11" cy="48.11" r="42.71"/></clipPath><clipPath id="clip-path-2"><path class="cls-1" d="M56.21,57.32c-2.14,5.1-8.58,5.5-10.43.74Z"/></clipPath><clipPath id="clip-path-3"><path class="cls-1" d="M76.2,91C75.08,75.46,52.11,71.66,48.33,71.14v-.06l-.27,0-.27,0v.07C44,71.67,21.06,75.52,20,91c-1.19,16.91.07,61.9.07,61.9l25.74,0h4.76l25.74,0S77.43,107.89,76.2,91Z"/></clipPath></defs><g id="레이어_2" data-name="레이어 2"><g id="_4" data-name="4"><circle class="cls-2" cx="48.11" cy="48.11" r="48.11"/><circle class="cls-3" cx="48.11" cy="48.11" r="42.71"/><g class="cls-4"><path class="cls-5" d="M56.33,24.25a4.37,4.37,0,0,0-1.72,1.55,4.66,4.66,0,0,0-2.62,3c-.9,3.26,3,4.52,3.77,6.86.88,2.57.23,4.46.26,7.12.07,5.81,3.39,10.66,8.35,3.53,2.91-4.2,5.36-9.34,5.3-14.55C69.59,24.63,62.38,21.09,56.33,24.25Z"/><rect class="cls-6" x="31.06" y="25.92" width="35.35" height="41.71" rx="14.14" transform="translate(-0.05 0.05) rotate(-0.06)"/><rect class="cls-6" x="42.4" y="59.74" width="12.73" height="22.62" transform="translate(-0.08 0.05) rotate(-0.06)"/><path class="cls-6" d="M35,48.88a4.29,4.29,0,0,0-.23-.63,4.61,4.61,0,0,0,.23-3,4.89,4.89,0,0,0-2.09-2.7,6.28,6.28,0,0,0-6.75-.6c-2,1-3,3.47-2.95,5.6a8.11,8.11,0,0,0,2.11,5.29,6.27,6.27,0,0,0,6.52,1.61A4.6,4.6,0,0,0,35,48.88Z"/><path class="cls-7" d="M54.32,40.83a7.35,7.35,0,0,0-.7,6.08c.44,1.4,3.52,6.59-.13,6.2-.43,0-.43.64,0,.69,1.75.18,2.64-.94,2.41-2.65a16.1,16.1,0,0,0-1.45-3.94,6.66,6.66,0,0,1,.46-6c.2-.39-.39-.73-.59-.34Z"/><path class="cls-5" d="M33.92,25.88a4.79,4.79,0,0,0-1,5.73c4.27,9.63,22.52,10.54,29.87,4.74,4.46-3.52,10.4-8.92,9.41-15.14C70.57,11,58.34,8.19,50.5,12.81c-4.6,2.71-9.06,7.12-13.36,10.37A24.43,24.43,0,0,0,33.92,25.88Z"/><path class="cls-5" d="M36.22,24.27A4.33,4.33,0,0,1,38,25.82a4.68,4.68,0,0,1,2.63,3c.9,3.26-3,4.53-3.76,6.87a22.31,22.31,0,0,0-1.15,7.43c-.06,5.82-2.46,10.36-7.43,3.24C25.31,42.14,22.85,37,22.9,31.8,23,24.68,30.17,21.12,36.22,24.27Z"/><path class="cls-8" d="M56.21,57.32c-2.14,5.1-8.58,5.5-10.43.74Z"/><g class="cls-9"><path class="cls-10" d="M56.05,55.51c-2.13,5.1-8.57,5.5-10.42.74Z"/></g><path class="cls-6" d="M76.2,91C75.08,75.46,52.11,71.66,48.33,71.14v-.06l-.27,0-.27,0v.07C44,71.67,21.06,75.52,20,91c-1.19,16.91.07,61.9.07,61.9l25.74,0h4.76l25.74,0S77.43,107.89,76.2,91Z"/><path class="cls-11" d="M76.2,91C75.08,75.46,52.11,71.66,48.33,71.14v-.06l-.27,0-.27,0v.07C44,71.67,21.06,75.52,20,91c-1.19,16.91.07,61.9.07,61.9l25.74,0h4.76l25.74,0S77.43,107.89,76.2,91Z"/><g class="cls-12"><path class="cls-10" d="M52.5,86.63,59.77,74a59.34,59.34,0,0,0-11.44-2.86v-.06l-.27,0-.27,0v.07a58,58,0,0,0-10.25,2.46l7.55,13C47.14,90.17,50.45,90.17,52.5,86.63Z"/></g><rect class="cls-10" x="39.43" y="70.51" width="19.03" height="3.85" transform="translate(-0.08 0.05) rotate(-0.06)"/><path class="cls-5" d="M42.37,47.88c0,1.1.63,2,1.4,2s1.4-.9,1.4-2-.63-2-1.4-2S42.37,46.78,42.37,47.88Z"/><path class="cls-5" d="M59.38,47.86c0,1.1.63,2,1.4,2s1.4-.9,1.4-2-.63-2-1.4-2S59.38,46.76,59.38,47.86Z"/><path class="cls-13" d="M49.52,47.75a7.28,7.28,0,1,1-7.28-7.67A7.48,7.48,0,0,1,49.52,47.75Z"/><path class="cls-13" d="M71.4,47.73a7.28,7.28,0,1,1-7.28-7.67A7.49,7.49,0,0,1,71.4,47.73Z"/><path class="cls-13" d="M49.52,47.75s4.52-3.48,7.34,0"/></g></g></g></svg>