<svg xmlns="http://www.w3.org/2000/svg" viewBox="0 0 111.9 81.5"><g id="Layer_2" data-name="Layer 2"><g id="Layer_1-2" data-name="Layer 1"><path d="M52.4,81.5,26.5,41.3.6.9,0,0,1,.3,56.2,18.1l55.1,18.1.6.2-.5.4L81.8,59.2Zm0,0L81.7,58.7,111,36.2v.6L55.9,19,.8,1.1,1.2.5,26.8,40.8Z" fill="#aed7ff"/><path d="M55.9,63.5,42.7,43.2c-4.4-6.8-8.9-13.6-13.2-20.4l-.7-1.1,1.2.4,27.1,9.5,27,9.5.7.3-.6.4L70,52.7Zm0,0,14-11.3,13.8-11,.2.7L56.7,32.5l-27-9.6.5-.6L43,42.7Z" fill="#aed7ff"/><path d="M45.7,70.8a4.6,4.6,0,0,1,2-1.9,8.8,8.8,0,0,1,2.4-1.1,4.4,4.4,0,0,1-1.9,1.9A11.2,11.2,0,0,1,45.7,70.8Z" fill="#aed7ff"/><path d="M38.8,60.2a9.5,9.5,0,0,1,2-2,6.4,6.4,0,0,1,2.5-1.1,9,9,0,0,1-1.9,2A7.6,7.6,0,0,1,38.8,60.2Z" fill="#aed7ff"/><path d="M32.3,49.8a4.8,4.8,0,0,1,1.8-1.7,5.7,5.7,0,0,1,2.3-.8A5.9,5.9,0,0,1,34.6,49,5.2,5.2,0,0,1,32.3,49.8Z" fill="#aed7ff"/><path d="M26.5,40.6a6.9,6.9,0,0,1,1.7-1.7,5.7,5.7,0,0,1,2.3-.8,4.8,4.8,0,0,1-1.8,1.7A4.8,4.8,0,0,1,26.5,40.6Z" fill="#aed7ff"/><path d="M20.1,31.4a5.8,5.8,0,0,1,2-1.8,5.1,5.1,0,0,1,2.5-1,6.7,6.7,0,0,1-2,1.8A6,6,0,0,1,20.1,31.4Z" fill="#aed7ff"/><path d="M14.5,22.2a8.9,8.9,0,0,1,2-1.9,7.6,7.6,0,0,1,2.6-1.1,7.1,7.1,0,0,1-2,1.9A7.6,7.6,0,0,1,14.5,22.2Z" fill="#aed7ff"/><path d="M9,12.9a6.3,6.3,0,0,1,2-1.7,6.1,6.1,0,0,1,2.5-.8,6.3,6.3,0,0,1-2,1.7A7.3,7.3,0,0,1,9,12.9Z" fill="#aed7ff"/></g></g></svg>