<svg xmlns="http://www.w3.org/2000/svg" viewBox="0 0 53.4 67.9"><g id="Layer_2" data-name="Layer 2"><g id="Layer_1-2" data-name="Layer 1"><path d="M13.9,59.3c.9-4.8,1.9-9.6,2.9-14.4l1.6-7.2,1.7-7.2c1.2-4.8,2.4-9.5,3.5-14.3s2.2-9.6,3.2-14.4L27.1,0l.3,1.8c.5,4.6,1.1,9.2,1.6,13.8l1.5,13.9c.5,4.6.9,9.2,1.3,13.8L33,57.2h-.1q-1-6.9-1.8-13.8c-.6-4.6-1.1-9.2-1.6-13.8L28,15.7c-.4-4.6-.9-9.2-1.2-13.8h.6c-1.2,4.8-2.4,9.6-3.5,14.3s-2,9.7-3,14.5l-1.6,7.2L17.6,45,14,59.3Z" transform="translate(0)" fill="#fff"/><path d="M6.7,45.9c2.8-1.7,5.6-3.2,8.5-4.6l4.5-1.9,4.2-2.3,8.4-4.7L41,28.2h.1a87,87,0,0,1-8.3,5c-2.8,1.6-5.7,3-8.6,4.3s-3,1.3-4.4,2.1-2.8,1.6-4.2,2.4a57,57,0,0,1-8.8,3.8Z" transform="translate(0)" fill="#fff"/><path d="M12.8,19.2a11.2,11.2,0,0,0-4.4,3.7,38.8,38.8,0,0,0-3,4.8A41.7,41.7,0,0,0,1.5,38.4a29.2,29.2,0,0,0-.2,11.4A25.5,25.5,0,0,0,5.9,60l2,2.1,1,.9,1.2.9a18,18,0,0,0,5,2.5,26.4,26.4,0,0,0,5.6,1.1A27.6,27.6,0,0,0,32,65.7,24.2,24.2,0,0,0,37,63a29.4,29.4,0,0,0,8-8.1,46,46,0,0,0,7.3-21.5,22.1,22.1,0,0,0-1.4-11.1,21.9,21.9,0,0,0-7.2-8.5A26.4,26.4,0,0,0,33.3,9.5a36.3,36.3,0,0,0-11.4-.2,42.4,42.4,0,0,0-11,2.8,22.5,22.5,0,0,0-5,2.9A17.4,17.4,0,0,0,2,19.2H1.9a19.3,19.3,0,0,1,8.8-7.4A42.8,42.8,0,0,1,21.8,8.5a38.3,38.3,0,0,1,11.7.1A25.5,25.5,0,0,1,44.3,13a21.6,21.6,0,0,1,7.5,8.9,23.1,23.1,0,0,1,1.5,11.6,47,47,0,0,1-7.8,21.7,33.6,33.6,0,0,1-8.3,8.1A24.9,24.9,0,0,1,32.1,66a35.8,35.8,0,0,1-5.6,1.6A26.3,26.3,0,0,1,15,66.9a19.3,19.3,0,0,1-9.7-6.4A22.8,22.8,0,0,1,.5,49.9,28.3,28.3,0,0,1,.7,38.3,40.6,40.6,0,0,1,5,27.5a25.8,25.8,0,0,1,3.2-4.9,13,13,0,0,1,4.5-3.5Z" transform="translate(0)" fill="#fff"/></g></g></svg>