<svg xmlns="http://www.w3.org/2000/svg" width="97.324" height="77.333" viewBox="0 0 97.324 77.333">
  <g id="그룹_90" data-name="그룹 90" transform="translate(0 0)">
    <path id="패스_232" data-name="패스 232" d="M748.531,587.62a5.437,5.437,0,0,1-1.951-4.687,4.4,4.4,0,0,1,3.268-3.732,3.7,3.7,0,0,1,4.213,2.341c.288-3.247.62-6.63,2.347-9.395a9.95,9.95,0,0,1,7.2-4.616,8.927,8.927,0,0,1,7.853,3.206,8.1,8.1,0,0,1,1,8.341,12.055,12.055,0,0,1-4.506,4.6,29.082,29.082,0,0,1-19.89,4.351" transform="translate(-675.932 -511.215)" fill="#f2f2f2"/>
    <path id="패스_233" data-name="패스 233" d="M813.38,573.83a47.987,47.987,0,0,0-14.1,19.065c-.134.33.4.473.534.147a47.452,47.452,0,0,1,13.957-18.821c.276-.225-.117-.614-.391-.391Z" transform="translate(-720.747 -516.556)" fill="#fff"/>
    <path id="패스_234" data-name="패스 234" d="M385.114,605.943h-7.64a.975.975,0,0,1-.974-.974V589.09a.975.975,0,0,1,.974-.974h7.64a.975.975,0,0,1,.974.974v15.879a.975.975,0,0,1-.974.974Z" transform="translate(-361.319 -528.759)" fill="#6c63ff"/>
    <path id="패스_235" data-name="패스 235" d="M505.263,520.223h-7.64A1.125,1.125,0,0,1,496.5,519.1V488.24a1.125,1.125,0,0,1,1.124-1.124h7.64a1.125,1.125,0,0,1,1.124,1.124V519.1A1.125,1.125,0,0,1,505.263,520.223Zm-7.64-32.807a.825.825,0,0,0-.824.824V519.1a.825.825,0,0,0,.824.824h7.64a.825.825,0,0,0,.824-.824V488.24a.825.825,0,0,0-.824-.824Z" transform="translate(-463.343 -442.889)" fill="#3f3d56"/>
    <path id="패스_236" data-name="패스 236" d="M626.264,408.847h-7.64a1.125,1.125,0,0,1-1.124-1.124V357.24a1.125,1.125,0,0,1,1.124-1.124h7.64a1.125,1.125,0,0,1,1.123,1.124v50.484A1.125,1.125,0,0,1,626.264,408.847Zm-7.64-52.431a.825.825,0,0,0-.824.824v50.484a.825.825,0,0,0,.824.824h7.64a.825.825,0,0,0,.824-.824V357.24a.825.825,0,0,0-.824-.824Z" transform="translate(-566.217 -331.513)" fill="#3f3d56"/>
    <path id="패스_237" data-name="패스 237" d="M749.243,292.72H741.6a.975.975,0,0,1-.974-.974V220.59a.975.975,0,0,1,.974-.974h7.64a.975.975,0,0,1,.974.974v71.157A.975.975,0,0,1,749.243,292.72Z" transform="translate(-670.9 -215.461)" fill="#6c63ff"/>
    <path id="패스_238" data-name="패스 238" d="M453.516,376.9a1.506,1.506,0,0,0-1.57-1.694l-2.663-4.885-.6,2.1,1.824,4.477a1.515,1.515,0,0,0,3.008,0Z" transform="translate(-422.689 -343.594)" fill="#a0616a"/>
    <path id="패스_239" data-name="패스 239" d="M68.816,318.641l1.483,1.083,4.883-5.206-2.189-1.6Z" transform="translate(-58.507 -266.043)" fill="#a0616a"/>
    <path id="패스_240" data-name="패스 240" d="M0,0H5.772V2.23H2.23A2.23,2.23,0,0,1,0,0H0Z" transform="matrix(-0.808, -0.59, 0.59, -0.808, 13.647, 57.147)" fill="#2f2e41"/>
    <path id="패스_241" data-name="패스 241" d="M121.2,349.172h1.837l.874-7.084H121.2Z" transform="translate(-103.043 -290.842)" fill="#a0616a"/>
    <path id="패스_242" data-name="패스 242" d="M0,0H5.772V2.23H2.23A2.23,2.23,0,0,1,0,0H0Z" transform="translate(23.535 60.036) rotate(179.997)" fill="#2f2e41"/>
    <path id="패스_243" data-name="패스 243" d="M395.774,385.556s.9,8.689-1.348,14.681l-1.648,11.385h-2.846l.3-13.482-1.049-11.984S391.28,380.762,395.774,385.556Z" transform="translate(-372.102 -354.855)" fill="#2f2e41"/>
    <path id="패스_244" data-name="패스 244" d="M76.867,202.989l3,10.336-5.842,9.288,2.921,2.472,6.666-10.411L81.661,201.94Z" transform="translate(-62.932 -171.688)" fill="#2f2e41"/>
    <circle id="타원_237" data-name="타원 237" cx="3.679" cy="3.679" r="3.679" transform="translate(17.896 0.763)" fill="#a0616a"/>
    <path id="패스_245" data-name="패스 245" d="M364.983,253.4s2.247-1.5,4.794,1.8l.674,20.748s-1.947-2.7-5.992-.15-4.944-.3-4.944-.3S356.669,254.071,364.983,253.4Z" transform="translate(-346.479 -243.893)" fill="#ccc"/>
    <path id="패스_246" data-name="패스 246" d="M413.786,266.953h0a2.623,2.623,0,0,1,2.477,2.481l.475,9.032L419.885,287l-1.8,1.5-5.842-10.187-1.2-8.373a2.622,2.622,0,0,1,2.738-2.99Z" transform="translate(-390.67 -255.704)" fill="#ccc"/>
    <path id="패스_247" data-name="패스 247" d="M392.4,199.087a1.041,1.041,0,0,0,1.8-.579,1.057,1.057,0,0,0,0-.2,4.734,4.734,0,0,1-.211-1.149.6.6,0,0,1,.11-.282c.479-.642,1.6.287,2.057-.294.277-.356-.049-.917.164-1.315.281-.526,1.113-.266,1.635-.554.581-.32.546-1.211.164-1.753a2.757,2.757,0,0,0-2.09-1.064,5.608,5.608,0,0,0-2.362.461,4.72,4.72,0,0,0-2.232,1.547,3.778,3.778,0,0,0-.382,3.216A6.064,6.064,0,0,0,392.4,199.087Z" transform="translate(-373.527 -191.884)" fill="#2f2e41"/>
    <path id="패스_248" data-name="패스 248" d="M372.308,705.666H275.341a.178.178,0,0,1,0-.357h96.967a.178.178,0,1,1,0,.357Z" transform="translate(-275.162 -628.396)" fill="#3f3d56"/>
  </g>
</svg>
