<?xml version="1.0" encoding="utf-8"?>
<!-- Generator: Adobe Illustrator 24.3.0, SVG Export Plug-In . SVG Version: 6.00 Build 0)  -->
<svg version="1.1" xmlns="http://www.w3.org/2000/svg" xmlns:xlink="http://www.w3.org/1999/xlink" x="0px" y="0px"
	 viewBox="0 0 197.16 199.38" style="enable-background:new 0 0 197.16 199.38;" xml:space="preserve">
<style type="text/css">
	.st0{opacity:0.1;fill:#6C63FF;enable-background:new    ;}
	.st1{fill:#65617D;}
	.st2{fill:url(#패스_583_2_);}
	.st3{fill:#EE8E9E;}
	.st4{fill:#DFE5EE;}
	.st5{opacity:0.1;enable-background:new    ;}
	.st6{fill:#D48A9B;}
	.st7{fill:#EFC6CD;}
	.st8{fill:#6C63FF;}
	.st9{fill:#FFFFFF;}
	.st10{fill:#FFD037;}
	.st11{fill:#9D9CB5;}
	.st12{fill:#603556;}
	.st13{fill:#5C5C8E;}
	.st14{opacity:0.1;fill:#FFFFFF;enable-background:new    ;}
	.st15{fill:#EFC8C4;}
	.st16{fill:#727A9C;}
	.st17{fill:url(#패스_583_3_);}
</style>
<g id="Layer_1">
	<g id="마스크_그룹_2" transform="translate(5 0)">
		<g id="그룹_3106" transform="translate(127.098 247.95)">
			<path id="패스_577" class="st0" d="M545.75-166.99c-0.05,0.3-0.1,0.59-0.16,0.89c-1.68,9.98-4.75,19.68-9.1,28.82
				c-0.14,0.3-0.29,0.59-0.44,0.89c-2.8,5.65-6.24,10.95-10.25,15.81c-2.08,2.67-4.57,5-7.36,6.91c-3.95,2.52-8.57,3.54-13.11,4.38
				c-4.72,0.87-9.5,1.59-14.27,2.39c-1.69,0.28-3.37,0.56-5.04,0.87c-4.61,0.83-9.18,1.8-13.64,3.07
				c-5.55,1.53-10.89,3.73-15.91,6.54c-0.4,0.23-0.8,0.47-1.2,0.71c-0.4,0.24-0.8,0.48-1.18,0.73c-0.38,0.25-0.77,0.5-1.15,0.75
				l-0.59,0.4c-0.19,0.13-0.38,0.27-0.58,0.39c-0.57,0.39-1.13,0.8-1.69,1.19l-0.02,0.02c-0.37,0.27-0.74,0.53-1.1,0.8
				c-2.07,1.53-4.09,3.13-6.1,4.74l-1.27,1.02l-1.97,1.56c-0.38,0.3-0.77,0.61-1.16,0.91c-0.28,0.22-0.56,0.44-0.85,0.66
				c-1.43,1.11-2.89,2.19-4.37,3.22c-0.35,0.25-0.71,0.49-1.06,0.73c-2.97,2.03-6.12,3.77-9.43,5.19l-0.04,0.02
				c-1.63,0.69-3.3,1.27-5.01,1.73c-0.97,0.26-1.96,0.48-2.95,0.64c-2.64,0.46-5.34,0.5-8,0.14c-5.22-0.74-10.11-3.18-15.32-4
				c-10.75-1.67-21.18,3.71-31.3,7.94c-2.48,1.04-4.98,2.01-7.51,2.92c-1.68,0.6-3.36,1.18-5.05,1.73
				c-10.31,3.33-20.93,5.61-31.7,6.78c-4.47,0.53-8.97,0.66-13.46,0.36c-1.69-0.12-3.37-0.34-5.04-0.65c-5.7-0.91-11-3.5-15.22-7.43
				c-3.48-3.52-6.18-7.73-7.94-12.36c-0.77-1.84-1.44-3.73-2.02-5.66c-0.92-3.02-1.61-6.11-2.06-9.24c-0.1-0.7-0.2-1.41-0.27-2.12
				c-0.14-1.21-0.24-2.43-0.31-3.66c-0.37-6.51,0.26-13.04,1.89-19.36c1.81-7,4.82-13.7,6.14-20.77c0.06-0.3,0.11-0.59,0.16-0.89
				c0.18-1.06,0.31-2.14,0.4-3.24c0.67-8.64-1.92-17.1-3.96-25.57c-0.07-0.3-0.14-0.59-0.21-0.89c-0.22-0.94-0.43-1.88-0.63-2.82
				c-2.02-9.03-2.27-18.36-0.73-27.49c0.05-0.3,0.11-0.6,0.17-0.89c1.07-5.51,3.17-10.77,6.2-15.5c3.21-4.71,7.15-8.88,11.67-12.35
				c2.15-1.72,4.37-3.32,6.67-4.81c1.65-1.07,3.33-2.09,5.04-3.04c13.76-7.71,29.41-11.38,45.16-10.61c0.83,0.04,1.65,0.1,2.47,0.17
				c0.86,0.07,1.72,0.16,2.58,0.26c10.03,1.16,19.8,4.03,29.5,7.17c3.25,1.06,6.5,2.12,9.74,3.18c1.44,0.47,2.88,0.93,4.33,1.39
				c7.07,2.23,14.25,4.24,21.5,5.76c1.68,0.35,3.36,0.68,5.04,0.97c5.83,1.04,11.74,1.65,17.66,1.82c2.3,0.06,4.6,0.03,6.9-0.07
				c1.16-0.05,2.32-0.13,3.49-0.23c12.02-1.03,23.6-4.48,35.24-7.72c1.68-0.47,3.37-0.94,5.04-1.39c2.21-0.59,4.43-1.17,6.65-1.7
				c13.84-3.32,26.17-1.41,39.04,5.44c2.92,1.56,5.83,3.43,7.64,6.34c1.8,2.91,2.24,6.51,2.58,9.97c0.47,4.93,0.8,9.92,0.9,14.94
				c0,0.3,0,0.59,0.02,0.89C548.1-187.15,547.41-177,545.75-166.99z"/>
			<path id="패스_578" class="st0" d="M453.97-137.28h-0.9v0.89h1.02L453.97-137.28z M443.72-137.28c0,0.01,0,0.01,0,0.02
				l-0.08,0.74v0.13h7.85v-0.06l0.56-0.84L443.72-137.28z M422.72-137.28v-28.82h9.02c-0.1-0.08-0.19-0.16-0.29-0.23l-0.13-0.1
				c-0.06-0.04-0.11-0.09-0.17-0.13c-0.06-0.04-0.2-0.14-0.3-0.21s-0.17-0.11-0.27-0.17l-0.06-0.04h-7.79v-1.58l-0.21,0.1
				l-0.22,0.12h-0.01l-0.05,0.03l-0.14,0.09c-0.05,0.03-0.1,0.06-0.14,0.09c-0.14,0.09-0.26,0.19-0.41,0.3l-0.13,0.11
				c-0.09,0.07-0.18,0.14-0.27,0.21c-0.35,0.29-0.7,0.59-1.06,0.87c-0.09,0.07-0.18,0.14-0.26,0.21c-0.19,0.14-0.39,0.27-0.6,0.39
				c-0.09,0.05-0.17,0.1-0.27,0.15l-0.15,0.07l-0.14,0.06l0,0c-0.32,0.13-0.65,0.24-0.99,0.31v28.17h-13.53
				c0.01,0.03,0.01,0.06,0.03,0.09c0.07,0.26,0.15,0.53,0.22,0.8h13.28v30.9h0.21l0.24,0.02l0.43,0.03l0.7,0.07l0.31,0.04l0.35,0.04
				h0.05c0.2,0.03,0.4,0.06,0.6,0.09l0.13,0.02l0.29,0.05l0.42,0.07l0,0l1.01-0.05l0,0l0.14,0.03c0.06,0.01,0.11,0.02,0.17,0.03
				v-31.34h20.9v-0.13l0.08-0.74c0-0.01,0-0.01,0-0.02L422.72-137.28z M453.97-137.28h-0.9v0.89h1.02L453.97-137.28z M443.15-137.28
				l-0.09,0.89h8.73l0.59-0.89H443.15z M422.73-137.28v-28.82h9.02c-0.1-0.08-0.19-0.16-0.29-0.23l-0.13-0.1
				c-0.06-0.04-0.11-0.09-0.17-0.13c-0.06-0.04-0.2-0.14-0.3-0.21s-0.17-0.11-0.26-0.17l-0.06-0.04h-7.8v-1.58l-0.21,0.1l-0.22,0.12
				h-0.01l-0.05,0.03l-0.14,0.09c-0.05,0.03-0.1,0.06-0.14,0.09c-0.14,0.09-0.26,0.19-0.41,0.3l-0.13,0.11
				c-0.09,0.07-0.18,0.14-0.27,0.21c-0.35,0.29-0.7,0.59-1.06,0.87c-0.09,0.07-0.18,0.14-0.26,0.21c-0.19,0.14-0.39,0.27-0.6,0.39
				c-0.09,0.05-0.17,0.1-0.27,0.15l-0.15,0.07l-0.14,0.06l0,0c-0.32,0.13-0.65,0.24-0.99,0.31v28.17h-13.53
				c0.01,0.03,0.01,0.06,0.03,0.09c0.07,0.26,0.15,0.53,0.22,0.8h13.27v30.89l0.21,0.01l0.24,0.02l0.43,0.03l0.7,0.07l0.31,0.04
				l0.35,0.04h0.05c0.2,0.03,0.4,0.06,0.6,0.09l0.13,0.02l0.29,0.05l0.42,0.07l0,0l1.01-0.05l0,0l0.14,0.03
				c0.06,0.01,0.11,0.02,0.17,0.03v-31.35h20.34l0.1-0.89L422.73-137.28z M491.07-197.3h56.81c0-0.3,0-0.59-0.02-0.89h-56.8v-34.99
				c-1.69,0.45-3.37,0.92-5.04,1.39v33.6h-61.79l-0.16-0.17l0.24-0.26l0,0l22.98-25.22c-2.3,0.11-4.6,0.13-6.9,0.07l-17.67,19.39
				v-21.2c-1.69-0.29-3.37-0.61-5.04-0.97v21.19l-25.84-28.34c-3.24-1.06-6.49-2.14-9.74-3.18l35.12,38.53l-0.16,0.17h-64.46v-45.88
				c-0.86-0.1-1.72-0.19-2.58-0.26c-0.82-0.07-1.65-0.13-2.47-0.17v46.32h-45.16v-35.7c-1.71,0.95-3.39,1.97-5.04,3.04v32.66h-24.56
				c-0.06,0.29-0.12,0.59-0.17,0.89h24.71v30.31h-23.35c0.07,0.3,0.14,0.59,0.21,0.89h23.15v28.82h-19.6
				c-0.05,0.3-0.1,0.59-0.16,0.89h19.75v80.58c1.67,0.31,3.35,0.53,5.04,0.65v-81.24h45.17v74.1c1.69-0.55,3.38-1.13,5.05-1.73
				v-72.37h65.08v64.74c1.71-0.46,3.38-1.03,5.01-1.73l0.04-0.02v-62.99h63.28v30.36c1.68-0.3,3.36-0.59,5.04-0.87v-29.49h45
				c0.15-0.3,0.29-0.59,0.44-0.89h-45.42v-28.82h54.54c0.06-0.3,0.11-0.59,0.16-0.89h-54.69L491.07-197.3z M302.4-197.3h45.16v30.31
				H302.4L302.4-197.3z M302.4-137.28v-28.82h45.16v28.82L302.4-137.28z M352.61-197.3h65.07v30.31h-65.07L352.61-197.3z
				 M352.61-137.28v-28.82h65.07v28.82L352.61-137.28z M486.01-137.28h-63.29v-28.82h63.29L486.01-137.28z M486.01-166.98h-63.29
				v-29.5l0.89-0.81h62.4L486.01-166.98z M443.72-137.28c0,0.01,0,0.01,0,0.02l-0.08,0.74v0.13h7.85v-0.06l0.56-0.84L443.72-137.28z
				 M453.97-137.28h-0.9v0.89h1.02L453.97-137.28z M422.73-137.28v-28.82h9.02c-0.1-0.08-0.19-0.16-0.29-0.23l-0.13-0.1
				c-0.06-0.04-0.11-0.09-0.17-0.13c-0.06-0.04-0.2-0.14-0.3-0.21s-0.17-0.11-0.27-0.17l-0.06-0.04h-7.8v-1.58l-0.21,0.1l-0.22,0.12
				h-0.01l-0.05,0.03l-0.14,0.09c-0.05,0.03-0.1,0.06-0.14,0.09c-0.14,0.09-0.26,0.19-0.41,0.3l-0.13,0.11
				c-0.09,0.07-0.18,0.14-0.27,0.21c-0.35,0.29-0.7,0.59-1.06,0.87c-0.09,0.07-0.18,0.14-0.26,0.21c-0.19,0.14-0.39,0.27-0.6,0.39
				c-0.09,0.05-0.17,0.1-0.27,0.15l-0.15,0.07l-0.14,0.06l0,0c-0.32,0.13-0.65,0.24-0.99,0.31v28.17h-13.53
				c0.01,0.03,0.01,0.06,0.03,0.09c0.07,0.26,0.15,0.53,0.22,0.8h13.28v30.9h0.21l0.24,0.02l0.43,0.03l0.7,0.07l0.31,0.04l0.35,0.04
				h0.05c0.2,0.03,0.4,0.06,0.6,0.09l0.13,0.02l0.29,0.05l0.42,0.07l0,0l1.01-0.05l0,0l0.14,0.03c0.06,0.01,0.11,0.02,0.17,0.03
				v-31.34h20.9v-0.13l0.08-0.74c0-0.01,0-0.01,0-0.02L422.73-137.28z"/>
			<path id="패스_579" class="st0" d="M324.11-218.17h0.4c-0.28-0.16-0.46-0.45-0.48-0.78l0,0c0-0.62,0.75-1.12,1.67-1.12h11.71
				c0.92,0,1.67,0.5,1.67,1.12l0,0c0,0.61-0.75,1.12-1.67,1.12h-0.39c0.28,0.16,0.46,0.45,0.48,0.78c0,0.53-0.55,0.96-1.28,1.09
				h3.37c0.92,0,1.67,0.5,1.67,1.12s-0.75,1.11-1.67,1.11h-11.72c-0.92,0-1.67-0.5-1.67-1.11c0-0.53,0.55-0.96,1.28-1.09h-3.37
				c-0.92,0-1.67-0.5-1.67-1.12S323.19-218.17,324.11-218.17z"/>
			<path id="패스_580" class="st0" d="M451.02-207.54h0.39c-0.28-0.16-0.46-0.46-0.48-0.78l0,0c0-0.61,0.75-1.11,1.67-1.11h11.71
				c0.92,0,1.67,0.5,1.67,1.11l0,0c0,0.62-0.75,1.12-1.67,1.12h-0.39c0.28,0.16,0.46,0.46,0.48,0.78c0,0.53-0.55,0.96-1.28,1.08
				h3.37c0.92,0,1.67,0.5,1.67,1.12s-0.75,1.12-1.67,1.12h-11.7c-0.92,0-1.67-0.5-1.67-1.12c0-0.53,0.55-0.96,1.28-1.08h-3.38
				c-0.92,0-1.67-0.5-1.67-1.12S450.1-207.54,451.02-207.54z"/>
			<path id="패스_581" class="st0" d="M306.15-162.06h0.39c-0.28-0.16-0.46-0.46-0.48-0.78l0,0c0-0.61,0.75-1.12,1.67-1.12h11.71
				c0.92,0,1.67,0.5,1.67,1.12l0,0c0,0.61-0.75,1.12-1.67,1.12h-0.39c0.28,0.16,0.46,0.46,0.48,0.78c0,0.53-0.55,0.96-1.28,1.08
				h3.37c0.92,0,1.67,0.5,1.67,1.12s-0.75,1.12-1.67,1.12h-11.72c-0.92,0-1.67-0.5-1.67-1.12c0-0.53,0.55-0.96,1.28-1.08h-3.37
				c-0.92,0-1.67-0.5-1.67-1.11S305.22-162.06,306.15-162.06z"/>
			<path id="패스_582" class="st1" d="M441.57-85.67l-1.97,1.56c-0.39,0.3-0.77,0.61-1.16,0.91c-0.28,0.22-0.56,0.44-0.85,0.66
				c-1.43,1.11-2.89,2.19-4.37,3.22c-0.35,0.25-0.71,0.49-1.06,0.73c-2.97,2.03-6.12,3.77-9.43,5.19l-0.04,0.02v-12.3H441.57z"/>
			
				<linearGradient id="패스_583_2_" gradientUnits="userSpaceOnUse" x1="-226.7836" y1="131.1802" x2="-226.7836" y2="132.1802" gradientTransform="matrix(121.4245 0 0 -97.3312 27947.7539 12666.6494)">
				<stop  offset="0" style="stop-color:#808080;stop-opacity:0.251"/>
				<stop  offset="0.54" style="stop-color:#808080;stop-opacity:0.122"/>
				<stop  offset="1" style="stop-color:#808080;stop-opacity:0.102"/>
			</linearGradient>
			<path id="패스_583" class="st2" d="M471.08-133.98l0.3-9.16c-0.18-0.14-0.36-0.27-0.53-0.39c0.07-2.73-0.08-5.47-0.47-8.17
				c-1.2-9.16-8.98-9.36-11.18-7.47c-0.29,0.25-0.61,0.47-0.95,0.65c0.2-1.31,0.45-2.62,0.62-3.91c0.96-6.98-0.53-14.83-5.95-19.35
				c-2.27-1.89-5.04-3.05-7.53-4.62c-4.46-2.81-7.99-6.97-12.5-9.71s-10.85-3.77-14.78-0.24c-1.52,1.36-2.51,3.25-4.07,4.57
				c-2.92,2.45-7.47,2.61-10.01,5.35l0,0c-0.13,0.14-0.25,0.28-0.37,0.43c-2.12,2.72-1.54,6.58-0.86,9.96
				c0.81,4.06,0.48,7.32,3.96,8.49c0.01,0.16,0.02,0.32,0.04,0.48c0.57,5.05,3.35,9.58,7.57,12.39l-0.57,0.2
				c-1.51,0.53-2.86,1.05-3.73,1.4c-3.18,1.3-9.88,2.99-9.88,2.99s-0.16,1.91-0.13,4.73c-2.23,2.43-5.96,6.69-7.05,9.22
				c-1.59,3.69-10.58,14.25-12.98,15.84s-4.99,3.48-4.99,3.48s-3.79,2.09-5.59,2.29c-1.71-0.05-3.41-0.26-5.09-0.6
				c0,0-15.37-18.83-14.37-4.38s13.27,14.94,13.27,14.94l12.38-0.2c0,0,6.69,0.9,9.68-1.59c2.56-2.12,15.81-13.76,20.06-19.04
				c0.1,0.11,0.2,0.21,0.3,0.32c0,0,1.7-2.19,1.9,0s-1.1,3.18-0.4,3.98s2.8,3.59,2.89,4.68s-2.79,5.57,2.1,8.96
				c0.08,0.05,0.16,0.1,0.25,0.15c0.87,1.99,3.65,3.93,3.65,3.93l14.97-0.2l28.25,2.19c0,0,0.84-0.74,1.98-1.95
				c1.52,1.4,3.63,2.59,6,1.86c0,0,3.39-4.08,3.5-6.77c0,0-2.2-5.68-3.18-7.37s0.7-5.38,0.7-5.38s1.2-3.59,1.9-3.59
				s0.2-2.39,0.2-2.39c-0.54-0.79-0.65-1.8-0.3-2.69C470.55-131.09,470.88-132.52,471.08-133.98z"/>
			<path id="패스_584" class="st3" d="M454.14-136.05l-1.06,1.24l0,0l-4.29,4.99l-5.6,0.34l-8.96,0.55c0,0-12.08-14.56-9.81-17.73
				c0.76-1.21,1.05-2.67,0.8-4.08c-0.02-0.2-0.05-0.39-0.09-0.59c-0.27-1.51-0.75-2.97-1.41-4.35l0.3-0.14l0.19-0.09l10.57-4.82
				l2.61-1.19c0.13,0.72,0.37,1.42,0.72,2.06c0.05,0.1,0.11,0.2,0.16,0.3c3.6,5.97,15.16,2.19,15.16,2.19L454.14-136.05z"/>
			<path id="패스_585" class="st3" d="M469.77-143.5c0.04,1.75-0.19,3.49-0.67,5.17l-14.96,2.28l-0.56-3.88l-2.21-15.33l2.08-2.08
				c1.68,0.36,3.44-0.08,4.76-1.19c2.18-1.88,9.9-1.68,11.09,7.43C469.65-148.58,469.8-146.04,469.77-143.5z"/>
			<path id="패스_586" class="st4" d="M466.23-101.19c0,0,3.37-4.06,3.47-6.73l-3.37-5.65l-2.97-3.18l-5.55,10.71
				C457.81-106.04,461.47-99.7,466.23-101.19z"/>
			<path id="패스_587" class="st5" d="M466.23-101.19c0,0,3.37-4.06,3.47-6.73l-3.37-5.65l-2.97-3.18l-5.55,10.71
				C457.81-106.04,461.47-99.7,466.23-101.19z"/>
			<path id="패스_588" class="st6" d="M438.44-83.2c-0.28,0.22-0.56,0.44-0.85,0.66c-1.43,1.11-2.89,2.19-4.37,3.22
				c-0.35,0.25-0.71,0.49-1.06,0.73h-84.6l-25.03-0.9l-20.13-0.17l-5.04-0.27l-25.14-1.33c-0.92-3.03-1.61-6.12-2.07-9.24
				c-0.1-0.71-0.2-1.41-0.27-2.12l27.47,1.52l5.04,0.28l45.16,2.52l5.05,0.28l65.07,3.63l5.01,0.28h0.04L438.44-83.2z"/>
			<path id="패스_589" class="st7" d="M472.37-102.96c-5.55,1.53-10.89,3.73-15.91,6.54c-0.4,0.23-0.8,0.47-1.2,0.71
				s-0.8,0.48-1.18,0.73c-0.38,0.25-0.77,0.5-1.15,0.75l-0.59,0.4l-0.58,0.39c-0.57,0.39-1.13,0.8-1.69,1.19l-0.02,0.02
				c-0.37,0.27-0.74,0.53-1.1,0.8c-2.07,1.53-4.09,3.13-6.1,4.74c-0.42,0.34-0.85,0.68-1.28,1.02l-1.96,1.56
				c-0.39,0.3-0.77,0.61-1.16,0.91c-0.28,0.22-0.56,0.44-0.85,0.66l-14.85-0.71h-0.04l-5.01-0.23l-65.1-3.08l-5.05-0.24l-45.16-2.15
				l-5.04-0.24l-27.21-1.28c-0.1-0.71-0.2-1.41-0.27-2.12c-0.14-1.21-0.24-2.43-0.31-3.66l27.78-9.81l5.04-1.78l4.58-1.62l8.34,0.43
				l19.28,0.99l0,0l12.97,0.68l5.05,0.27l3.23,0.17l0,0l0.77,0.04l0,0l27.16,1.42l0,0l0.29,0.02l0,0l12.12,0.63h0.22l1.21,0.06l0,0
				l4.13,0.22l5.17,0.27l0,0l1.7,0.09l0,0l0.32,0.02l2.41,0.12l0,0l0.69,0.03l0,0l2.3,0.12l0,0l0.91,0.05h0.22l2.15,0.11l3.33,0.17
				h0.02l1.03,0.05h0.11l0.62,0.03l1.52,0.08l0,0l1.33,0.07h0.01l1.49,0.08h0.02l1.13,0.06l0,0l0.86,0.04l3.07,0.16l0,0l0.55,0.03
				h0.19l0.26,0.02l0,0l0.9,0.05l0,0l0.4,0.02l0,0l3.13,0.16h0.29l4.62-0.04h0.03l17.57-0.14h1.74l5.65-0.04h0.84L472.37-102.96z"/>
			<path id="패스_590" class="st8" d="M353.82-102.6l1.63,8.69l44.42-0.67c0,0,3.34,0.97,3.27-1.71c0,0,6.76-6.39,41,1.04
				l-13.14-10.32l-35.94,1.93l-41.67-1.11L353.82-102.6z"/>
			<path id="패스_591" class="st9" d="M354.64-104.68l1.56,9.43c0,0,38.19-1.11,44.2-0.07l-4.54-8.62
				C395.86-103.93,372.76-106.09,354.64-104.68z"/>
			<path id="패스_592" class="st5" d="M354.64-104.68l1.56,9.43c0,0,38.19-1.11,44.2-0.07l-4.54-8.62
				C395.86-103.93,372.76-106.09,354.64-104.68z"/>
			<path id="패스_593" class="st9" d="M355.21-104.71l1.54,8.77c0,0,37.7-1.03,43.65-0.07l-4.47-8.01
				C395.92-104.02,373.1-106.03,355.21-104.71z"/>
			<path id="패스_594" class="st5" d="M355.9-104.44l1.5,8.21c0,0,36.88-0.97,42.7-0.06l-4.38-7.5
				C395.72-103.8,373.41-105.68,355.9-104.44z"/>
			<path id="패스_595" class="st9" d="M356.2-104.74l1.51,8.22c0,0,36.88-0.97,42.7-0.06l-4.39-7.51
				C396.02-104.09,373.7-105.97,356.2-104.74z"/>
			<path id="패스_596" class="st8" d="M330.1-127.05c0,0,1.93,2.52-0.89,6.33s-5.15,7.03-4.21,9.4c0,0,4.24-7.08,7.72-7.16
				S333.92-122.8,330.1-127.05z"/>
			<path id="패스_597" class="st5" d="M330.1-127.05c0.17,0.25,0.31,0.52,0.4,0.8c3.38,3.98,5.18,7.69,1.93,7.77
				c-3.03,0.09-6.65,5.5-7.52,6.86c0.03,0.1,0.06,0.21,0.1,0.31c0.05,0.16,4.24-7.08,7.72-7.16S333.92-122.8,330.1-127.05z"/>
			<path id="패스_598" class="st10" d="M333.69-123.84c0,0.89-0.1,1.61-0.22,1.61s-0.22-0.72-0.22-1.61s0.12-0.47,0.25-0.47
				S333.69-124.72,333.69-123.84z"/>
			<path id="패스_599" class="st10" d="M334.92-122.78c-0.78,0.43-1.46,0.68-1.52,0.58s0.53-0.53,1.3-0.97s0.47-0.12,0.53,0
				S335.7-123.2,334.92-122.78z"/>
			<path id="패스_600" class="st8" d="M319.91-127.05c0,0-1.93,2.52,0.89,6.33c2.82,3.81,5.14,7.03,4.21,9.4
				c0,0-4.26-7.08-7.72-7.16C313.83-118.57,316.1-122.8,319.91-127.05z"/>
			<path id="패스_601" class="st5" d="M319.91-127.05c-0.17,0.25-0.3,0.52-0.4,0.8c-3.38,3.98-5.18,7.69-1.93,7.77
				c3.03,0.09,6.66,5.5,7.53,6.86c-0.03,0.1-0.06,0.21-0.1,0.31c0,0-4.26-7.08-7.72-7.16C313.83-118.55,316.1-122.8,319.91-127.05z"
				/>
			<path id="패스_602" class="st10" d="M316.32-123.84c0,0.89,0.1,1.61,0.22,1.61c0.12,0,0.22-0.72,0.22-1.61
				s-0.12-0.47-0.25-0.47C316.4-124.31,316.32-124.72,316.32-123.84z"/>
			<path id="패스_603" class="st10" d="M315.09-122.78c0.78,0.43,1.46,0.68,1.52,0.58c0.06-0.11-0.53-0.53-1.3-0.97
				c-0.77-0.43-0.47-0.12-0.53,0C314.73-123.05,314.31-123.2,315.09-122.78z"/>
			<path id="패스_604" class="st1" d="M335.38-114.72l-0.1,0.8l-0.14,1.11l-0.06,0.46l-0.14,1.11l-0.06,0.46l-0.14,1.11L333.22-97
				c-0.14,1.13-1.98,2.01-4.21,2.01h-8.01c-2.23,0-4.07-0.88-4.21-2.01l-1.55-12.66l-0.14-1.11l-0.06-0.46l-0.13-1.12l-0.06-0.46
				l-0.13-1.11l-0.1-0.8c-0.08-0.64,0.92-1.18,2.18-1.18h16.41C334.47-115.9,335.47-115.36,335.38-114.72z"/>
			<path id="패스_605" class="st11" d="M335.3-113.93l-0.14,1.11h-20.3l-0.14-1.11H335.3z"/>
			<path id="패스_606" class="st11" d="M335.11-112.35l-0.14,1.11h-19.92l-0.14-1.11H335.11z"/>
			<path id="패스_607" class="st11" d="M334.91-110.78l-0.13,1.11h-19.54l-0.14-1.11H334.91z"/>
			<path id="패스_608" class="st3" d="M359.86-115.74c0,0-5.15-4.95-4.95,1.48S359.86-115.74,359.86-115.74z"/>
			<path id="패스_609" class="st3" d="M406.12-127.03c-0.36,0.88-0.88,1.68-1.53,2.36c-4.47,5.38-17.18,16.56-19.67,18.63
				c-2.97,2.48-9.61,1.59-9.61,1.59l-12.28,0.2c0,0-12.18-0.5-13.17-14.85s14.26,4.36,14.26,4.36c1.66,0.34,3.35,0.54,5.05,0.59
				c1.78-0.2,5.55-2.28,5.55-2.28s2.58-1.88,4.95-3.47s11.29-12.08,12.88-15.75c1.01-2.33,4.24-6.13,6.48-8.6
				c1.28-1.42,2.24-2.39,2.24-2.39S406.8-130.11,406.12-127.03z"/>
			<path id="패스_610" class="st5" d="M406.11-127.03c-0.36,0.88-0.88,1.68-1.53,2.36c-4.51-4.59-5.45-13.75-5.56-19.58
				c1.28-1.42,2.24-2.39,2.24-2.39S406.8-130.1,406.11-127.03z"/>
			<path id="패스_611" class="st5" d="M453.08-134.8L453.08-134.8l-4.28,4.99l-5.6,0.34l-8.96,0.55c0,0-12.08-14.56-9.81-17.73
				c0.76-1.21,1.05-2.67,0.8-4.08c-0.02-0.2-0.05-0.39-0.09-0.59c-0.27-1.51-0.75-2.97-1.41-4.35l0.3-0.14l0.19-0.09
				c0.47,1.31,0.8,2.68,0.97,4.06c0.03,0.19,0.06,0.39,0.08,0.59c0.09,0.72,0.18,1.51,0.27,2.39c0.69,8.02,5.73,11.03,8.01,11.99
				c0.73,0.31,1.45,0.65,2.14,1.04c2.19,1.21,4.71,1.66,7.19,1.3c5.62-0.74,10.2-4.82,10.2-4.82l0.02,4.02L453.08-134.8z"/>
			<path id="패스_612" class="st4" d="M453.25-103.66c0,0-36.84-0.1-41.7-3.47s-1.98-7.82-2.08-8.91s-2.18-3.86-2.87-4.66
				s0.59-1.78,0.4-3.96s-1.88,0-1.88,0c-6.93-7.03-5.45-24.86-5.45-24.86s6.63-1.68,9.81-2.97c0.86-0.35,2.2-0.85,3.71-1.39
				l0.56-0.2c3.89-1.39,8.52-2.96,8.52-2.96s0.89-0.63,1.78,1.25c0.59,1.43,0.98,2.94,1.15,4.48c0.03,0.19,0.06,0.39,0.08,0.59
				c0.09,0.72,0.18,1.51,0.27,2.39c0.69,8.02,5.73,11.03,8.01,11.99c0.73,0.31,1.45,0.65,2.14,1.04c2.19,1.21,4.71,1.66,7.19,1.3
				c5.62-0.74,10.2-4.82,10.2-4.82l0.02,4.02l0.07,12.07L453.25-103.66z"/>
			<path id="패스_613" class="st3" d="M451.67-119.31l-0.59,3.76c0,0-14.66,3.66-20.4,4.75s-18.12-0.3-19.02,2.08
				s3.76,5.65,3.76,5.65l14.85-0.2l28.03,2.18c0,0,10.7-9.41,7.23-15.95S451.67-119.31,451.67-119.31z"/>
			<path id="패스_614" class="st5" d="M421.46-149.02c0,0-6.74,5.55-5.45,8.22S421.46-149.02,421.46-149.02z"/>
			<path id="패스_615" class="st5" d="M413.14-139.02c0,0-6.84,11.79-6.44,12.68s2.28,4.06,2.18,1.68S413.14-139.02,413.14-139.02
				z"/>
			<path id="패스_616" class="st5" d="M415.92-136.94c0,0-1.59,7.33-3.17,10.4C411.17-123.46,415.92-136.94,415.92-136.94z"/>
			<path id="패스_617" class="st5" d="M438.29-159.53c-2.66,4.87-7.51,8.16-13.02,8.81h-0.03c-4.27,0.5-8.58-0.62-12.06-3.16
				c3.98-1.44,9.08-3.17,9.08-3.17s0.89-0.63,1.78,1.25l13.37-6.1C437.56-161.06,437.85-160.26,438.29-159.53L438.29-159.53z"/>
			<path id="패스_618" class="st3" d="M440.38-168.33c0,2.98-0.77,5.91-2.25,8.5c-0.71,1.23-1.57,2.38-2.55,3.4
				c-2.76,2.87-6.43,4.69-10.39,5.14h-0.03c-0.63,0.07-1.27,0.11-1.9,0.11c-8.71,0-16.04-6.54-17.02-15.2
				c-0.07-0.64-0.11-1.29-0.11-1.93c-0.07-9.46,7.54-17.19,17-17.26c9.46-0.07,17.19,7.54,17.26,17c0,0.09,0,0.17,0,0.26
				L440.38-168.33z"/>
			<path id="패스_619" class="st5" d="M451.47-135.91l1.59-2.39c0,0,8.72-10.4,17.24-3.76l-0.3,9.11
				c-0.2,1.44-0.53,2.86-0.99,4.24c-0.35,0.89-0.23,1.89,0.3,2.68c0,0,0.5,2.39-0.2,2.39s-1.88,3.56-1.88,3.56s-1.68,3.66-0.69,5.35
				s3.17,7.33,3.17,7.33s-3.47-2.08-4.46-5.55c0,0-8.42-6.54-14.96-2.39L451.47-135.91z"/>
			<path id="패스_620" class="st5" d="M469.77-143.5c0.04,1.75-0.19,3.49-0.67,5.17l-14.96,2.28l-0.56-3.88
				C455.54-141.97,462.66-148.46,469.77-143.5z"/>
			<path id="패스_621" class="st4" d="M451.47-136.44l1.59-2.39c0,0,8.72-10.4,17.24-3.76l-0.3,9.11
				c-0.2,1.44-0.53,2.86-0.99,4.24c-0.35,0.89-0.23,1.89,0.3,2.68c0,0,0.5,2.39-0.2,2.39s-1.88,3.56-1.88,3.56s-1.68,3.66-0.69,5.35
				s3.17,7.33,3.17,7.33s-3.47-2.08-4.46-5.55c0,0-8.42-6.54-14.96-2.39L451.47-136.44z"/>
			<path id="패스_622" class="st5" d="M465.53-143.18c0,0-14.36,8.82-13.67,16.55C451.87-126.63,459.89-140.8,465.53-143.18z"/>
			<path id="패스_623" class="st5" d="M453.08-134.8l0.07,12.07c-2.72,0.12-5.28-0.23-7.3-1.99c-1.37-1.26-2.29-2.92-2.65-4.75
				c-0.32-1.47-0.43-2.98-0.34-4.49c0-0.01,0-0.03,0-0.05c0.17-3.33,0.93-6.67,0.53-9.98s-2.41-6.81-5.69-7.51
				c-0.66-0.04-1.3-0.27-1.84-0.67c-0.43-0.61-0.58-1.36-0.43-2.09l0.1-1.24c0.02-0.32,0.03-0.63,0.03-0.95
				c0-5.81-4.11-10.8-9.81-11.92l-0.11-0.02c-0.91-0.25-1.87-0.3-2.81-0.16c-1.76,0.41-2.89,2.11-4.51,2.92
				c-3.1,1.55-8.28-0.15-11.53-0.68c-0.21-0.03-0.41-0.07-0.61-0.12c-0.07-0.64-0.11-1.29-0.11-1.93c0-9.46,7.67-17.13,17.14-17.13
				c9.46,0,17.13,7.67,17.13,17.14c0,2.98-0.78,5.91-2.26,8.49c0.05,0.1,0.11,0.2,0.16,0.3c3.6,5.97,15.16,2.19,15.16,2.19
				l0.7,21.29L453.08-134.8z"/>
			<path id="패스_624" class="st12" d="M418.95-165.9c1.61-0.81,2.74-2.51,4.51-2.92c0.94-0.15,1.89-0.09,2.81,0.15l0.11,0.02
				c6.05,1.2,10.24,6.73,9.77,12.87l-0.1,1.24c-0.16,0.73,0,1.48,0.43,2.09c0.53,0.4,1.17,0.63,1.83,0.66
				c3.28,0.7,5.29,4.18,5.69,7.51s-0.38,6.67-0.53,10.02s0.46,7.04,2.99,9.24c3.98,3.45,10.03,1.48,15.29,1.17
				c-2.33,0-4.07-2.4-4.2-4.73c-0.13-2.33,0.91-4.54,1.9-6.63s1.98-4.35,1.76-6.67c-0.3-3.18-2.81-5.73-3.77-8.79
				c-1.12-3.56-0.04-7.39,0.47-11.1c0.95-6.94-0.53-14.75-5.9-19.23c-2.25-1.88-5-3.03-7.47-4.6c-4.43-2.81-7.92-6.93-12.4-9.66
				s-10.76-3.74-14.67-0.24c-1.51,1.36-2.49,3.24-4.04,4.54c-3.04,2.56-7.86,2.61-10.3,5.75c-2.1,2.7-1.53,6.54-0.86,9.9
				c0.89,4.47,0.39,7.96,5.17,8.75C410.67-166.04,415.84-164.35,418.95-165.9z"/>
			<path id="패스_625" class="st5" d="M458.35-125.98c-3.83,0.47-7.63,0.71-10.42-1.71c-2.53-2.2-3.15-5.89-2.99-9.24
				s0.94-6.7,0.53-10.02s-2.41-6.8-5.69-7.51c-0.66-0.04-1.3-0.27-1.83-0.66c-0.43-0.61-0.59-1.36-0.43-2.09l0.1-1.24
				c0.47-6.14-3.72-11.67-9.77-12.87l-0.11-0.02c-0.92-0.25-1.87-0.3-2.81-0.15c-1.76,0.41-2.89,2.12-4.51,2.92
				c-3.11,1.55-8.28-0.14-11.53-0.68c-4.77-0.78-4.28-4.27-5.17-8.75c-0.5-2.5-0.94-5.28-0.27-7.65c-0.13,0.13-0.25,0.28-0.37,0.43
				c-2.1,2.7-1.53,6.54-0.86,9.9c0.89,4.47,0.39,7.96,5.17,8.75c3.25,0.53,8.42,2.23,11.53,0.68c1.61-0.81,2.74-2.51,4.51-2.92
				c0.94-0.15,1.89-0.09,2.81,0.15l0.11,0.02c6.05,1.2,10.24,6.73,9.77,12.87l-0.1,1.24c-0.16,0.73,0,1.48,0.43,2.09
				c0.53,0.4,1.17,0.63,1.83,0.66c3.28,0.7,5.29,4.18,5.69,7.51s-0.37,6.67-0.53,10.02s0.46,7.04,2.99,9.24
				c3.98,3.45,10.03,1.48,15.29,1.17C460.3-123.91,459.02-124.72,458.35-125.98z"/>
			<path id="패스_626" class="st13" d="M350.71-117.13l16.35-6.1c0.8-0.3,1.7,0.11,2,0.91l0,0c0.3,0.8-0.11,1.7-0.91,2l-16.35,6.1
				l-3.51-0.35L350.71-117.13z"/>
			<path id="패스_627" class="st14" d="M368.57-122.82L368.57-122.82c0.3,0.8-0.11,1.7-0.92,2l-16.36,6.12l-2.63-0.27l-0.38,0.4
				l3.51,0.35l16.35-6.1c0.8-0.3,1.21-1.2,0.91-2l0,0c-0.12-0.32-0.34-0.6-0.64-0.78C368.48-123.01,368.53-122.92,368.57-122.82
				L368.57-122.82z"/>
			<path id="패스_628" class="st15" d="M350.72-117.13l1.09,2.91l-2.88-0.29l-0.63-0.06l0.86-0.91L350.72-117.13z"/>
			<path id="패스_629" class="st16" d="M349.16-115.49c0.07,0.05,0.12,0.11,0.17,0.18c0.05,0.09,0.05,0.2,0,0.28
				c-0.05,0.05-0.1,0.09-0.16,0.11c-0.13,0.09-0.22,0.23-0.23,0.39l-0.63-0.06L349.16-115.49z"/>
			<path id="패스_630" class="st9" d="M402.05-98.52c0,0,14.16-2.97,37.92,0.8l-9.31-6.83l-16.94-3.47l-11.98,3.18L402.05-98.52z"
				/>
			<path id="패스_631" class="st5" d="M402.05-98.52c0,0,14.16-2.97,37.92,0.8l-9.31-6.83l-16.94-3.47l-11.98,3.18L402.05-98.52z"
				/>
			<path id="패스_632" class="st9" d="M400.39-95.3c0,0,7.13-19.29,43.76,0.06L431-103.7c0,0-31.49-8.7-35.13,1.33L400.39-95.3z"
				/>
			<path id="패스_633" class="st5" d="M400.39-95.32c0,0,7.13-20.63,43.76,0.37L431-104.12c0,0-31.5-10.41-35.15,0.48
				L400.39-95.32z"/>
			<path id="패스_634" class="st9" d="M400.39-95.31c0,0,7.13-20.93,43.76,0.07L431-104.42c0,0-31.49-10.11-35.13,0.8
				L400.39-95.31z"/>
			<path id="패스_635" class="st5" d="M400.39-95.3c0,0,7.13-23.26,43.76,0.36l-13.16-10.33c0,0-31.49-10.61-35.13,1.63
				L400.39-95.3z"/>
			<path id="패스_636" class="st9" d="M400.39-95.32c0,0,7.13-23.55,43.76,0.07l-13.16-10.33c0,0-31.49-10.61-35.13,1.63
				L400.39-95.32z"/>
			<path id="패스_637" class="st0" d="M510.28-97.53c0,0-8.79,9.42-0.88,13.99c0.62,0.72,1.63,0.96,2.51,0.59
				c0,0-0.5-0.44,0.5-1.3c0.35-0.31,0.67-0.65,0.94-1.03c0.37-0.51,0.56-1.13,0.55-1.77l0,0c0,0,1.15-3.74-2.51-8.59
				c0,0-0.33-1.62-0.61-1.8l-0.67,2.26c0.96,0.25,1.78,0.86,2.31,1.71c0,0-2.21-1.74-2.43-1.37c-0.04,0.07-0.3,1.22-0.3,1.22
				s2.92,0.75,3.83,2.76c0,0-2.36-2.42-3.93-2.33l-0.28,1.75c0,0,3.12,0.65,4.24,2.89c0,0-2.55-2.45-4.29-2.5l-0.05,1.75
				c0,0,3.03,0.69,3.96,2.56c0,0-3.23-2.53-3.94-2.16c0.01,0.69,0.1,1.37,0.27,2.04c0,0,2.16,0.53,2.6,1.68c0,0-2.34-1.46-2.54-1.24
				c0.31,1.07,0.82,2.08,1.5,2.97c-0.85-0.78-1.48-1.76-1.83-2.86c-0.34,0.62-0.49,1.33-0.44,2.03c0,0-0.87-0.96,0.29-2.54
				c-0.18-0.62-0.29-1.26-0.32-1.9c-0.74,0.76-1.33,1.66-1.72,2.65c0,0-0.27-1.57,1.71-3.11v-1.77c-0.92,0.81-1.69,1.77-2.3,2.84
				c0,0-0.03-1.64,2.34-3.28l0.27-1.72c-0.92,0.72-1.75,1.56-2.45,2.5c0.44-1.28,1.35-2.35,2.55-2.99l0.31-1.12
				c0,0-1.26,1.03-1.59,1.36s-0.45,0.27-0.45,0.27c0.52-0.89,1.27-1.62,2.17-2.11C509.91-95.94,510.13-96.73,510.28-97.53z"/>
			<path id="패스_638" class="st0" d="M549.58-250.77c0,0-11.75,5.3-6.21,12.57c0.29,0.9,1.14,1.52,2.09,1.52
				c0,0-0.29-0.6,0.96-1.01c0.44-0.15,0.87-0.34,1.27-0.59c0.54-0.33,0.95-0.83,1.19-1.42l0,0c0,0,2.5-3,1-8.89
				c0,0,0.32-1.63,0.13-1.9l-1.49,1.83c0.79,0.6,1.32,1.48,1.47,2.46c0,0-1.37-2.46-1.71-2.2c-0.07,0.05-0.74,1.01-0.74,1.01
				s2.39,1.82,2.47,4.02c0,0-1.24-3.14-2.73-3.66l-0.94,1.5c0,0,2.63,1.8,2.81,4.3c0,0-1.41-3.24-2.99-3.96l-0.72,1.59
				c0,0,2.53,1.81,2.65,3.89c0,0-2.01-3.58-2.8-3.51c-0.26,0.64-0.44,1.3-0.53,1.98c0,0,1.79,1.33,1.76,2.56
				c0,0-1.59-2.25-1.86-2.12c-0.13,1.11-0.04,2.24,0.24,3.32c-0.48-1.04-0.68-2.2-0.58-3.34c-0.56,0.44-0.97,1.03-1.19,1.71
				c0,0-0.43-1.22,1.25-2.23c0.07-0.64,0.22-1.27,0.44-1.88c-0.98,0.41-1.86,1.01-2.6,1.77c0,0,0.36-1.55,2.78-2.2l0.69-1.62
				c-1.16,0.4-2.24,0.98-3.21,1.73c0,0,0.61-1.53,3.42-2.12l0.9-1.48c-1.13,0.31-2.22,0.77-3.23,1.36c0.9-1.01,2.15-1.64,3.5-1.77
				l0.72-0.92c0,0-1.56,0.47-2,0.64c-0.44,0.17-0.53,0.07-0.53,0.07c0.82-0.62,1.81-1,2.83-1.1
				C548.64-249.46,549.14-250.1,549.58-250.77z"/>
			<path id="패스_640" class="st0" d="M490.16-50.86c0,0,8.89-9.33,1.02-13.98c-0.61-0.73-1.62-0.98-2.51-0.62
				c0,0,0.5,0.45-0.51,1.29c-0.36,0.3-0.68,0.65-0.95,1.02c-0.37,0.51-0.57,1.13-0.56,1.76l0,0c0,0-1.19,3.73,2.42,8.61
				c0,0,0.32,1.63,0.59,1.81l0.69-2.26c-0.96-0.26-1.78-0.88-2.29-1.73c0,0,2.19,1.76,2.41,1.4c0.04-0.07,0.31-1.21,0.31-1.21
				s-2.92-0.8-3.8-2.8c0,0,2.33,2.45,3.91,2.36l0.3-1.74c0,0-3.11-0.68-4.22-2.92c0,0,2.53,2.47,4.26,2.55l0.07-1.76
				c0,0-3.03-0.73-3.94-2.61c0,0,3.21,2.56,3.92,2.2c0-0.69-0.09-1.37-0.27-2.04c0,0-2.16-0.57-2.59-1.71c0,0,2.33,1.48,2.53,1.26
				c-0.3-1.08-0.8-2.09-1.47-2.99c0.84,0.79,1.46,1.78,1.8,2.87c0.35-0.62,0.51-1.32,0.46-2.03c0,0,0.86,0.97-0.32,2.54
				c0.17,0.62,0.27,1.26,0.3,1.91c0.75-0.75,1.34-1.64,1.74-2.62c0,0,0.27,1.57-1.74,3.09l-0.03,1.77c0.92-0.81,1.71-1.76,2.32-2.82
				c0,0,0,1.65-2.37,3.26l-0.27,1.71c0.93-0.71,1.76-1.55,2.48-2.47c-0.45,1.28-1.37,2.34-2.58,2.96l-0.32,1.12
				c0,0,1.27-1.02,1.61-1.35s0.46-0.27,0.46-0.27c-0.53,0.89-1.29,1.61-2.2,2.09C490.53-52.43,490.31-51.65,490.16-50.86z"/>
		</g>
	</g>
	<rect x="396.5" y="1.97" width="198.96" height="190.98"/>
	<g id="마스크_그룹_2_1_" transform="translate(5 0)">
		<g id="그룹_3106_1_" transform="translate(127.098 247.95)">
			<path id="패스_577_1_" class="st0" d="M147.07-166.99c-0.05,0.3-0.1,0.59-0.16,0.89c-1.68,9.98-4.75,19.68-9.1,28.82
				c-0.14,0.3-0.29,0.59-0.44,0.89c-2.8,5.65-6.24,10.95-10.25,15.81c-2.08,2.67-4.57,5-7.36,6.91c-3.95,2.52-8.57,3.54-13.11,4.38
				c-4.72,0.87-9.5,1.59-14.27,2.39c-1.69,0.28-3.37,0.56-5.04,0.87c-4.61,0.83-9.18,1.8-13.64,3.07
				c-5.55,1.53-10.89,3.73-15.91,6.54c-0.4,0.23-0.8,0.47-1.2,0.71c-0.4,0.24-0.8,0.48-1.18,0.73s-0.77,0.5-1.15,0.75l-0.59,0.4
				c-0.19,0.13-0.38,0.27-0.58,0.39c-0.57,0.39-1.13,0.8-1.69,1.19l-0.02,0.02c-0.37,0.27-0.74,0.53-1.1,0.8
				c-2.07,1.53-4.09,3.13-6.1,4.74l-1.27,1.02l-1.97,1.56c-0.38,0.3-0.77,0.61-1.16,0.91c-0.28,0.22-0.56,0.44-0.85,0.66
				c-1.43,1.11-2.89,2.19-4.37,3.22c-0.35,0.25-0.71,0.49-1.06,0.73c-2.97,2.03-6.12,3.77-9.43,5.19l-0.04,0.02
				c-1.63,0.69-3.3,1.27-5.01,1.73c-0.97,0.26-1.96,0.48-2.95,0.64c-2.64,0.46-5.34,0.5-8,0.14c-5.22-0.74-10.12-3.18-15.32-4
				c-10.75-1.67-21.18,3.71-31.3,7.94c-2.48,1.04-4.98,2.01-7.51,2.92c-1.68,0.6-3.36,1.18-5.05,1.73
				c-10.31,3.33-20.93,5.61-31.7,6.78c-4.47,0.53-8.97,0.66-13.46,0.36c-1.69-0.12-3.37-0.34-5.04-0.65c-5.7-0.91-11-3.5-15.22-7.43
				c-3.48-3.52-6.18-7.73-7.94-12.36c-0.77-1.84-1.44-3.73-2.02-5.66c-0.92-3.02-1.61-6.11-2.06-9.24c-0.1-0.7-0.2-1.41-0.26-2.12
				c-0.14-1.21-0.24-2.43-0.31-3.66c-0.37-6.51,0.26-13.04,1.89-19.36c1.81-7,4.82-13.7,6.14-20.77c0.06-0.3,0.11-0.59,0.16-0.89
				c0.18-1.06,0.31-2.14,0.4-3.24c0.67-8.64-1.92-17.1-3.96-25.57c-0.07-0.3-0.14-0.59-0.21-0.89c-0.22-0.94-0.43-1.88-0.63-2.82
				c-2.02-9.03-2.27-18.36-0.73-27.49c0.05-0.3,0.11-0.6,0.18-0.89c1.07-5.51,3.17-10.77,6.2-15.5c3.21-4.71,7.15-8.88,11.67-12.35
				c2.15-1.72,4.37-3.32,6.67-4.81c1.65-1.07,3.33-2.09,5.04-3.04c13.76-7.71,29.41-11.38,45.16-10.61c0.83,0.04,1.65,0.1,2.47,0.17
				c0.86,0.07,1.72,0.16,2.58,0.26c10.03,1.16,19.8,4.03,29.5,7.17c3.25,1.06,6.5,2.12,9.74,3.18c1.44,0.47,2.88,0.93,4.33,1.39
				c7.07,2.23,14.25,4.24,21.5,5.76c1.68,0.35,3.36,0.68,5.04,0.97c5.83,1.04,11.74,1.65,17.66,1.82c2.3,0.06,4.6,0.03,6.9-0.07
				c1.16-0.05,2.32-0.13,3.49-0.23c12.02-1.03,23.6-4.48,35.24-7.72c1.68-0.47,3.37-0.94,5.04-1.39c2.21-0.59,4.43-1.17,6.65-1.7
				c13.84-3.32,26.17-1.41,39.04,5.44c2.92,1.56,5.83,3.43,7.64,6.34s2.24,6.51,2.58,9.97c0.47,4.93,0.8,9.92,0.9,14.94
				c0,0.3,0,0.59,0.02,0.89C149.42-187.15,148.72-177,147.07-166.99z"/>
			<path id="패스_578_1_" class="st0" d="M55.28-137.28h-0.9v0.89h1.02L55.28-137.28z M45.03-137.28c0,0.01,0,0.01,0,0.02
				l-0.08,0.74v0.13h7.85v-0.06l0.56-0.84L45.03-137.28z M24.04-137.28v-28.82h9.02c-0.1-0.08-0.19-0.16-0.29-0.23l-0.13-0.1
				c-0.06-0.04-0.11-0.09-0.17-0.13s-0.2-0.14-0.3-0.21s-0.17-0.11-0.27-0.17l-0.06-0.04h-7.79v-1.58l-0.21,0.1l-0.22,0.12h-0.01
				l-0.05,0.03l-0.14,0.09c-0.05,0.03-0.1,0.06-0.14,0.09c-0.14,0.09-0.26,0.19-0.41,0.3l-0.13,0.11c-0.09,0.07-0.18,0.14-0.26,0.21
				c-0.35,0.29-0.7,0.59-1.06,0.87c-0.09,0.07-0.18,0.14-0.26,0.21c-0.19,0.14-0.39,0.27-0.6,0.39c-0.09,0.05-0.17,0.1-0.26,0.15
				l-0.15,0.07l-0.13,0.06l0,0c-0.32,0.13-0.65,0.24-0.99,0.31v28.17H5.47c0.01,0.03,0.01,0.06,0.03,0.09
				c0.07,0.26,0.15,0.53,0.22,0.8h13.28v30.9h0.21l0.24,0.02l0.43,0.03l0.7,0.07l0.31,0.04l0.35,0.04h0.05
				c0.2,0.03,0.4,0.06,0.6,0.09l0.13,0.02l0.29,0.05l0.42,0.07l0,0l1.01-0.05l0,0l0.14,0.03c0.06,0.01,0.11,0.02,0.17,0.03v-31.34
				h20.9v-0.13l0.08-0.74c0-0.01,0-0.01,0-0.02L24.04-137.28z M55.28-137.28h-0.9v0.89h1.02L55.28-137.28z M44.47-137.28l-0.09,0.89
				h8.73l0.59-0.89H44.47z M24.04-137.28v-28.82h9.02c-0.1-0.08-0.19-0.16-0.29-0.23l-0.13-0.1c-0.06-0.04-0.11-0.09-0.17-0.13
				s-0.2-0.14-0.3-0.21s-0.17-0.11-0.27-0.17l-0.06-0.04h-7.8v-1.58l-0.21,0.1l-0.22,0.12h-0.01l-0.05,0.03l-0.14,0.09
				c-0.05,0.03-0.1,0.06-0.14,0.09c-0.14,0.09-0.26,0.19-0.41,0.3l-0.13,0.11c-0.09,0.07-0.18,0.14-0.26,0.21
				c-0.35,0.29-0.7,0.59-1.06,0.87c-0.09,0.07-0.18,0.14-0.26,0.21c-0.19,0.14-0.39,0.27-0.6,0.39c-0.09,0.05-0.17,0.1-0.26,0.15
				l-0.15,0.07l-0.13,0.06l0,0c-0.32,0.13-0.65,0.24-0.99,0.31v28.17H5.47c0.01,0.03,0.01,0.06,0.03,0.09
				c0.07,0.26,0.15,0.53,0.22,0.8h13.27v30.89l0.21,0.01l0.24,0.02l0.43,0.03l0.7,0.07l0.31,0.04l0.35,0.04h0.05
				c0.2,0.03,0.4,0.06,0.6,0.09l0.13,0.02l0.29,0.05l0.42,0.07l0,0l1.01-0.05l0,0l0.14,0.03c0.06,0.01,0.11,0.02,0.17,0.03v-31.35
				h20.34l0.1-0.89L24.04-137.28z M92.38-197.3h56.81c0-0.3,0-0.59-0.02-0.89h-56.8v-34.99c-1.69,0.45-3.37,0.92-5.04,1.39v33.6
				H25.54l-0.16-0.17l0.24-0.26l0,0l22.98-25.22c-2.3,0.11-4.6,0.13-6.9,0.07l-17.67,19.39v-21.2c-1.69-0.29-3.37-0.61-5.04-0.97
				v21.19l-25.84-28.34c-3.24-1.06-6.49-2.14-9.74-3.18l35.12,38.53l-0.16,0.17h-64.46v-45.88c-0.86-0.1-1.72-0.19-2.58-0.26
				c-0.82-0.07-1.65-0.13-2.47-0.17v46.32h-45.16v-35.7c-1.71,0.95-3.39,1.97-5.04,3.04v32.66h-24.56
				c-0.06,0.29-0.12,0.59-0.18,0.89h24.71v30.31h-23.35c0.07,0.3,0.14,0.59,0.21,0.89h23.15v28.82h-19.6
				c-0.05,0.3-0.1,0.59-0.16,0.89h19.75v80.58c1.67,0.31,3.35,0.53,5.04,0.65v-81.24h45.17v74.1c1.69-0.55,3.38-1.13,5.05-1.73
				v-72.37h65.08v64.74c1.71-0.46,3.38-1.03,5.01-1.73l0.04-0.02v-62.99h63.28v30.36c1.68-0.3,3.36-0.59,5.04-0.87v-29.49h45
				c0.15-0.3,0.29-0.59,0.44-0.89H92.38v-28.82h54.54c0.06-0.3,0.11-0.59,0.16-0.89H92.38L92.38-197.3z M-96.29-197.3h45.16v30.31
				h-45.16L-96.29-197.3z M-96.29-137.28v-28.82h45.16v28.82L-96.29-137.28z M-46.07-197.3h65.07v30.31h-65.07L-46.07-197.3z
				 M-46.07-137.28v-28.82h65.07v28.82L-46.07-137.28z M87.33-137.28H24.04v-28.82h63.29L87.33-137.28z M87.33-166.98H24.04v-29.5
				l0.89-0.81h62.4L87.33-166.98z M45.03-137.28c0,0.01,0,0.01,0,0.02l-0.08,0.74v0.13h7.85v-0.06l0.56-0.84L45.03-137.28z
				 M55.28-137.28h-0.9v0.89h1.02L55.28-137.28z M24.04-137.28v-28.82h9.02c-0.1-0.08-0.19-0.16-0.29-0.23l-0.13-0.1
				c-0.06-0.04-0.11-0.09-0.17-0.13s-0.2-0.14-0.3-0.21s-0.17-0.11-0.27-0.17l-0.06-0.04h-7.8v-1.58l-0.21,0.1l-0.22,0.12h-0.01
				l-0.05,0.03l-0.14,0.09c-0.05,0.03-0.1,0.06-0.14,0.09c-0.14,0.09-0.26,0.19-0.41,0.3l-0.13,0.11c-0.09,0.07-0.18,0.14-0.26,0.21
				c-0.35,0.29-0.7,0.59-1.06,0.87c-0.09,0.07-0.18,0.14-0.26,0.21c-0.19,0.14-0.39,0.27-0.6,0.39c-0.09,0.05-0.17,0.1-0.26,0.15
				l-0.15,0.07l-0.13,0.06l0,0c-0.32,0.13-0.65,0.24-0.99,0.31v28.17H5.47c0.01,0.03,0.01,0.06,0.03,0.09
				c0.07,0.26,0.15,0.53,0.22,0.8h13.28v30.9h0.21l0.24,0.02l0.43,0.03l0.7,0.07l0.31,0.04l0.35,0.04h0.05
				c0.2,0.03,0.4,0.06,0.6,0.09l0.13,0.02l0.29,0.05l0.42,0.07l0,0l1.01-0.05l0,0l0.14,0.03c0.06,0.01,0.11,0.02,0.17,0.03v-31.34
				h20.9v-0.13l0.08-0.74c0-0.01,0-0.01,0-0.02L24.04-137.28z"/>
			<path id="패스_579_1_" class="st0" d="M-74.58-218.17h0.4c-0.28-0.16-0.46-0.45-0.48-0.78l0,0c0-0.62,0.75-1.12,1.67-1.12
				h11.71c0.92,0,1.67,0.5,1.67,1.12l0,0c0,0.61-0.75,1.12-1.67,1.12h-0.39c0.28,0.16,0.46,0.45,0.48,0.78
				c0,0.53-0.55,0.96-1.28,1.09h3.37c0.92,0,1.67,0.5,1.67,1.12s-0.75,1.11-1.67,1.11h-11.72c-0.92,0-1.67-0.5-1.67-1.11
				c0-0.53,0.55-0.96,1.28-1.09h-3.37c-0.92,0-1.67-0.5-1.67-1.12S-75.5-218.17-74.58-218.17z"/>
			<path id="패스_580_1_" class="st0" d="M52.33-207.54h0.39c-0.28-0.16-0.46-0.46-0.48-0.78l0,0c0-0.61,0.75-1.11,1.67-1.11
				h11.71c0.92,0,1.67,0.5,1.67,1.11l0,0c0,0.62-0.75,1.12-1.67,1.12h-0.39c0.28,0.16,0.46,0.46,0.48,0.78
				c0,0.53-0.55,0.96-1.28,1.08h3.37c0.92,0,1.67,0.5,1.67,1.12s-0.75,1.12-1.67,1.12H56.1c-0.92,0-1.67-0.5-1.67-1.12
				c0-0.53,0.55-0.96,1.28-1.08h-3.38c-0.92,0-1.67-0.5-1.67-1.12S51.42-207.54,52.33-207.54z"/>
			<path id="패스_581_1_" class="st0" d="M-92.54-162.06h0.39c-0.28-0.16-0.46-0.46-0.48-0.78l0,0c0-0.61,0.75-1.12,1.67-1.12
				h11.71c0.92,0,1.67,0.5,1.67,1.12l0,0c0,0.61-0.75,1.12-1.67,1.12h-0.39c0.28,0.16,0.46,0.46,0.48,0.78
				c0,0.53-0.55,0.96-1.28,1.08h3.37c0.92,0,1.67,0.5,1.67,1.12s-0.75,1.12-1.67,1.12h-11.72c-0.92,0-1.67-0.5-1.67-1.12
				c0-0.53,0.55-0.96,1.28-1.08h-3.37c-0.92,0-1.67-0.5-1.67-1.11S-93.46-162.06-92.54-162.06z"/>
			<path id="패스_582_1_" class="st1" d="M42.88-85.67l-1.97,1.56c-0.39,0.3-0.77,0.61-1.16,0.91c-0.28,0.22-0.56,0.44-0.85,0.66
				c-1.43,1.11-2.89,2.19-4.37,3.22c-0.35,0.25-0.71,0.49-1.06,0.73c-2.97,2.03-6.12,3.77-9.43,5.19l-0.04,0.02v-12.3H42.88z"/>
			
				<linearGradient id="패스_583_3_" gradientUnits="userSpaceOnUse" x1="-230.067" y1="131.1802" x2="-230.067" y2="132.1802" gradientTransform="matrix(121.4245 0 0 -97.3312 27947.7539 12666.6494)">
				<stop  offset="0" style="stop-color:#808080;stop-opacity:0.251"/>
				<stop  offset="0.54" style="stop-color:#808080;stop-opacity:0.122"/>
				<stop  offset="1" style="stop-color:#808080;stop-opacity:0.102"/>
			</linearGradient>
			<path id="패스_583_1_" class="st17" d="M72.39-133.98l0.3-9.16c-0.18-0.14-0.36-0.27-0.53-0.39c0.07-2.73-0.08-5.47-0.47-8.17
				c-1.2-9.16-8.98-9.36-11.18-7.47c-0.29,0.25-0.61,0.47-0.95,0.65c0.2-1.31,0.45-2.62,0.62-3.91c0.96-6.98-0.53-14.83-5.95-19.35
				c-2.27-1.89-5.04-3.05-7.53-4.62c-4.46-2.81-7.99-6.97-12.5-9.71s-10.85-3.77-14.78-0.24c-1.52,1.36-2.51,3.25-4.07,4.57
				c-2.92,2.45-7.47,2.61-10.01,5.35l0,0c-0.13,0.14-0.25,0.28-0.37,0.43c-2.12,2.72-1.54,6.58-0.86,9.96
				c0.81,4.06,0.48,7.32,3.96,8.49c0.01,0.16,0.02,0.32,0.04,0.48c0.57,5.05,3.35,9.58,7.57,12.39l-0.57,0.2
				c-1.51,0.53-2.86,1.05-3.73,1.4c-3.18,1.3-9.88,2.99-9.88,2.99s-0.16,1.91-0.13,4.73c-2.23,2.43-5.96,6.69-7.05,9.22
				c-1.59,3.69-10.58,14.25-12.98,15.84s-4.99,3.48-4.99,3.48s-3.79,2.09-5.59,2.29c-1.71-0.05-3.41-0.26-5.09-0.6
				c0,0-15.37-18.83-14.37-4.38s13.27,14.94,13.27,14.94l12.38-0.2c0,0,6.69,0.9,9.68-1.59c2.56-2.12,15.81-13.76,20.06-19.04
				c0.1,0.11,0.2,0.21,0.3,0.32c0,0,1.7-2.19,1.9,0s-1.1,3.18-0.4,3.98s2.8,3.59,2.89,4.68s-2.79,5.57,2.1,8.96
				c0.08,0.05,0.16,0.1,0.25,0.15c0.87,1.99,3.65,3.93,3.65,3.93l14.97-0.2l28.25,2.19c0,0,0.84-0.74,1.98-1.95
				c1.52,1.4,3.63,2.59,6,1.86c0,0,3.39-4.08,3.5-6.77c0,0-2.2-5.68-3.18-7.37s0.7-5.38,0.7-5.38s1.2-3.59,1.9-3.59
				s0.2-2.39,0.2-2.39c-0.54-0.79-0.65-1.8-0.3-2.69C71.86-131.09,72.19-132.52,72.39-133.98z"/>
			<path id="패스_584_1_" class="st3" d="M55.46-136.05l-1.06,1.24l0,0l-4.29,4.99l-5.6,0.34l-8.96,0.55
				c0,0-12.08-14.56-9.81-17.73c0.76-1.21,1.05-2.67,0.8-4.08c-0.02-0.2-0.05-0.39-0.09-0.59c-0.27-1.51-0.75-2.97-1.41-4.35
				l0.3-0.14l0.19-0.09l10.57-4.82l2.61-1.19c0.13,0.72,0.37,1.42,0.72,2.06c0.05,0.1,0.11,0.2,0.16,0.3
				c3.6,5.97,15.16,2.19,15.16,2.19L55.46-136.05z"/>
			<path id="패스_585_1_" class="st3" d="M71.08-143.5c0.04,1.75-0.19,3.49-0.67,5.17l-14.96,2.28l-0.56-3.88l-2.21-15.33
				l2.08-2.08c1.68,0.36,3.44-0.08,4.76-1.19c2.18-1.88,9.9-1.68,11.09,7.43C70.96-148.58,71.12-146.04,71.08-143.5z"/>
			<path id="패스_586_1_" class="st4" d="M67.54-101.19c0,0,3.37-4.06,3.47-6.73l-3.37-5.65l-2.97-3.18l-5.55,10.71
				C59.12-106.04,62.79-99.7,67.54-101.19z"/>
			<path id="패스_587_1_" class="st5" d="M67.54-101.19c0,0,3.37-4.06,3.47-6.73l-3.37-5.65l-2.97-3.18l-5.55,10.71
				C59.12-106.04,62.79-99.7,67.54-101.19z"/>
			<path id="패스_588_1_" class="st6" d="M39.75-83.2c-0.28,0.22-0.56,0.44-0.85,0.66c-1.43,1.11-2.89,2.19-4.37,3.22
				c-0.35,0.25-0.71,0.49-1.06,0.73h-84.6l-25.03-0.9l-20.13-0.17l-5.04-0.27l-25.14-1.33c-0.92-3.03-1.61-6.12-2.07-9.24
				c-0.1-0.71-0.2-1.41-0.26-2.12l27.47,1.52l5.04,0.28l45.16,2.52l5.05,0.28l65.07,3.63l5.01,0.28h0.04L39.75-83.2z"/>
			<path id="패스_589_1_" class="st7" d="M73.68-102.96c-5.55,1.53-10.89,3.73-15.91,6.54c-0.4,0.23-0.8,0.47-1.2,0.71
				s-0.8,0.48-1.18,0.73s-0.77,0.5-1.15,0.75l-0.59,0.4l-0.58,0.39c-0.57,0.39-1.13,0.8-1.69,1.19l-0.02,0.02
				c-0.37,0.27-0.74,0.53-1.1,0.8c-2.07,1.53-4.09,3.13-6.1,4.74c-0.42,0.34-0.85,0.68-1.28,1.02l-1.96,1.56
				c-0.38,0.3-0.77,0.61-1.16,0.91c-0.28,0.22-0.56,0.44-0.85,0.66l-14.85-0.71h-0.04l-5.01-0.23l-65.1-3.08l-5.05-0.24l-45.16-2.15
				l-5.04-0.24l-27.21-1.28c-0.1-0.71-0.2-1.41-0.26-2.12c-0.14-1.21-0.24-2.43-0.31-3.66l27.78-9.81l5.04-1.78l4.58-1.62l8.34,0.43
				l19.28,0.99l0,0l12.97,0.68l5.05,0.27l3.23,0.17l0,0l0.77,0.04l0,0l27.16,1.42l0,0l0.29,0.02l0,0l12.12,0.63h0.22l1.21,0.06l0,0
				l4.13,0.22l5.17,0.27l0,0l1.7,0.09l0,0l0.32,0.02l2.41,0.12l0,0l0.69,0.03l0,0l2.3,0.12l0,0l0.91,0.05h0.22l2.15,0.11l3.33,0.17
				h0.02l1.03,0.05h0.11l0.62,0.03l1.52,0.08l0,0l1.33,0.07h0.01l1.49,0.08h0.02l1.13,0.06l0,0l0.87,0.04l3.07,0.16l0,0l0.55,0.03
				h0.19l0.26,0.02l0,0l0.9,0.05l0,0l0.4,0.02l0,0l3.13,0.16h0.29l4.62-0.04h0.03l17.57-0.14h1.74l5.65-0.04h0.84L73.68-102.96z"/>
			<path id="패스_590_1_" class="st8" d="M-44.87-102.6l1.63,8.69l44.42-0.67c0,0,3.34,0.97,3.27-1.71c0,0,6.76-6.39,41,1.04
				l-13.14-10.32l-35.94,1.93l-41.67-1.11L-44.87-102.6z"/>
			<path id="패스_591_1_" class="st9" d="M-44.05-104.68l1.56,9.43c0,0,38.19-1.11,44.2-0.07l-4.54-8.62
				C-2.83-103.93-25.92-106.09-44.05-104.68z"/>
			<path id="패스_592_1_" class="st5" d="M-44.05-104.68l1.56,9.43c0,0,38.19-1.11,44.2-0.07l-4.54-8.62
				C-2.83-103.93-25.92-106.09-44.05-104.68z"/>
			<path id="패스_593_1_" class="st9" d="M-43.48-104.71l1.54,8.77c0,0,37.7-1.03,43.65-0.07l-4.47-8.01
				C-2.77-104.02-25.58-106.03-43.48-104.71z"/>
			<path id="패스_594_1_" class="st5" d="M-42.79-104.44l1.5,8.21c0,0,36.88-0.97,42.7-0.06l-4.38-7.5
				C-2.96-103.8-25.28-105.68-42.79-104.44z"/>
			<path id="패스_595_1_" class="st9" d="M-42.49-104.74l1.51,8.22c0,0,36.88-0.97,42.7-0.06l-4.39-7.51
				C-2.67-104.09-24.98-105.97-42.49-104.74z"/>
			<path id="패스_596_1_" class="st8" d="M-68.58-127.05c0,0,1.93,2.52-0.89,6.33s-5.15,7.03-4.21,9.4c0,0,4.24-7.08,7.72-7.16
				S-64.77-122.8-68.58-127.05z"/>
			<path id="패스_597_1_" class="st5" d="M-68.58-127.05c0.17,0.25,0.31,0.52,0.4,0.8c3.38,3.98,5.18,7.69,1.93,7.77
				c-3.03,0.09-6.65,5.5-7.52,6.86c0.03,0.1,0.06,0.21,0.1,0.31c0.05,0.16,4.24-7.08,7.72-7.16S-64.77-122.8-68.58-127.05z"/>
			<path id="패스_598_1_" class="st10" d="M-64.99-123.84c0,0.89-0.1,1.61-0.22,1.61s-0.22-0.72-0.22-1.61s0.12-0.47,0.25-0.47
				S-64.99-124.72-64.99-123.84z"/>
			<path id="패스_599_1_" class="st10" d="M-63.76-122.78c-0.78,0.43-1.46,0.68-1.52,0.58s0.53-0.53,1.3-0.97s0.47-0.12,0.53,0
				S-62.98-123.2-63.76-122.78z"/>
			<path id="패스_600_1_" class="st8" d="M-78.77-127.05c0,0-1.93,2.52,0.89,6.33s5.15,7.03,4.21,9.4c0,0-4.26-7.08-7.72-7.16
				S-82.58-122.8-78.77-127.05z"/>
			<path id="패스_601_1_" class="st5" d="M-78.77-127.05c-0.17,0.25-0.3,0.52-0.4,0.8c-3.38,3.98-5.18,7.69-1.93,7.77
				c3.03,0.09,6.66,5.5,7.53,6.86c-0.03,0.1-0.06,0.21-0.1,0.31c0,0-4.26-7.08-7.72-7.16S-82.58-122.8-78.77-127.05z"/>
			<path id="패스_602_1_" class="st10" d="M-82.36-123.84c0,0.89,0.1,1.61,0.22,1.61s0.22-0.72,0.22-1.61s-0.12-0.47-0.25-0.47
				S-82.36-124.72-82.36-123.84z"/>
			<path id="패스_603_1_" class="st10" d="M-83.59-122.78c0.78,0.43,1.46,0.68,1.52,0.58s-0.53-0.53-1.3-0.97s-0.47-0.12-0.53,0
				S-84.37-123.2-83.59-122.78z"/>
			<path id="패스_604_1_" class="st1" d="M-63.3-114.72l-0.1,0.8l-0.14,1.11l-0.06,0.46l-0.14,1.11l-0.06,0.46l-0.14,1.11
				L-65.47-97c-0.14,1.13-1.98,2.01-4.21,2.01h-8.01c-2.23,0-4.07-0.88-4.21-2.01l-1.55-12.66l-0.13-1.11l-0.06-0.46l-0.13-1.12
				l-0.06-0.46l-0.13-1.11l-0.1-0.8c-0.08-0.64,0.92-1.18,2.18-1.18h16.41C-64.21-115.9-63.21-115.36-63.3-114.72z"/>
			<path id="패스_605_1_" class="st11" d="M-63.39-113.93l-0.13,1.11h-20.3l-0.13-1.11H-63.39z"/>
			<path id="패스_606_1_" class="st11" d="M-63.58-112.35l-0.13,1.11h-19.92l-0.14-1.11H-63.58z"/>
			<path id="패스_607_1_" class="st11" d="M-63.77-110.78l-0.13,1.11h-19.54l-0.13-1.11H-63.77z"/>
			<path id="패스_608_1_" class="st3" d="M-38.82-115.74c0,0-5.15-4.95-4.95,1.48S-38.82-115.74-38.82-115.74z"/>
			<path id="패스_609_1_" class="st3" d="M7.43-127.03c-0.36,0.88-0.88,1.68-1.53,2.36c-4.47,5.38-17.18,16.56-19.67,18.63
				c-2.97,2.48-9.61,1.59-9.61,1.59l-12.28,0.2c0,0-12.18-0.5-13.17-14.85s14.26,4.36,14.26,4.36c1.66,0.34,3.35,0.54,5.05,0.59
				c1.78-0.2,5.55-2.28,5.55-2.28s2.58-1.88,4.95-3.47s11.29-12.08,12.88-15.75c1.01-2.33,4.24-6.13,6.48-8.6
				c1.28-1.42,2.24-2.39,2.24-2.39S8.12-130.11,7.43-127.03z"/>
			<path id="패스_610_1_" class="st5" d="M7.43-127.03c-0.36,0.88-0.88,1.68-1.53,2.36c-4.51-4.59-5.45-13.75-5.56-19.58
				c1.28-1.42,2.24-2.39,2.24-2.39S8.12-130.1,7.43-127.03z"/>
			<path id="패스_611_1_" class="st5" d="M54.39-134.8L54.39-134.8l-4.28,4.99l-5.6,0.34l-8.96,0.55c0,0-12.08-14.56-9.81-17.73
				c0.76-1.21,1.05-2.67,0.8-4.08c-0.02-0.2-0.05-0.39-0.09-0.59c-0.27-1.51-0.75-2.97-1.41-4.35l0.3-0.14l0.19-0.09
				c0.47,1.31,0.8,2.68,0.97,4.06c0.03,0.19,0.06,0.39,0.08,0.59c0.09,0.72,0.18,1.51,0.27,2.39c0.69,8.02,5.73,11.03,8.01,11.99
				c0.73,0.31,1.45,0.65,2.14,1.04c2.19,1.21,4.71,1.66,7.19,1.3c5.62-0.74,10.2-4.82,10.2-4.82l0.02,4.02L54.39-134.8z"/>
			<path id="패스_612_1_" class="st4" d="M54.57-103.66c0,0-36.84-0.1-41.7-3.47s-1.98-7.82-2.08-8.91s-2.18-3.86-2.87-4.66
				s0.59-1.78,0.4-3.96s-1.88,0-1.88,0c-6.93-7.03-5.45-24.86-5.45-24.86s6.63-1.68,9.81-2.97c0.86-0.35,2.2-0.85,3.71-1.39
				l0.56-0.2c3.89-1.39,8.52-2.96,8.52-2.96s0.89-0.63,1.78,1.25c0.59,1.43,0.98,2.94,1.15,4.48c0.03,0.19,0.06,0.39,0.08,0.59
				c0.09,0.72,0.18,1.51,0.27,2.39c0.69,8.02,5.73,11.03,8.01,11.99c0.73,0.31,1.45,0.65,2.14,1.04c2.19,1.21,4.71,1.66,7.19,1.3
				c5.62-0.74,10.2-4.82,10.2-4.82l0.02,4.02l0.07,12.07L54.57-103.66z"/>
			<path id="패스_613_1_" class="st3" d="M52.98-119.31l-0.59,3.76c0,0-14.66,3.66-20.4,4.75s-18.12-0.3-19.02,2.08
				s3.76,5.65,3.76,5.65l14.85-0.2l28.03,2.18c0,0,10.7-9.41,7.23-15.95S52.98-119.31,52.98-119.31z"/>
			<path id="패스_614_1_" class="st5" d="M22.78-149.02c0,0-6.74,5.55-5.45,8.22S22.78-149.02,22.78-149.02z"/>
			<path id="패스_615_1_" class="st5" d="M14.46-139.02c0,0-6.84,11.79-6.44,12.68c0.4,0.89,2.28,4.06,2.18,1.68
				S14.46-139.02,14.46-139.02z"/>
			<path id="패스_616_1_" class="st5" d="M17.23-136.94c0,0-1.59,7.33-3.17,10.4C12.48-123.46,17.23-136.94,17.23-136.94z"/>
			<path id="패스_617_1_" class="st5" d="M39.6-159.53c-2.66,4.87-7.51,8.16-13.02,8.81h-0.03c-4.27,0.5-8.58-0.62-12.06-3.16
				c3.98-1.44,9.08-3.17,9.08-3.17s0.89-0.63,1.78,1.25l13.37-6.1C38.87-161.06,39.17-160.26,39.6-159.53L39.6-159.53z"/>
			<path id="패스_618_1_" class="st3" d="M41.69-168.33c0,2.98-0.77,5.91-2.25,8.5c-0.71,1.23-1.57,2.38-2.55,3.4
				c-2.76,2.87-6.43,4.69-10.39,5.14h-0.03c-0.63,0.07-1.27,0.11-1.9,0.11c-8.71,0-16.04-6.54-17.02-15.2
				c-0.07-0.64-0.11-1.29-0.11-1.93c-0.07-9.46,7.54-17.19,17-17.26c9.46-0.07,17.19,7.54,17.26,17c0,0.09,0,0.17,0,0.26
				L41.69-168.33z"/>
			<path id="패스_619_1_" class="st5" d="M52.79-135.91l1.59-2.39c0,0,8.72-10.4,17.24-3.76l-0.3,9.11
				c-0.2,1.44-0.53,2.86-0.99,4.24c-0.35,0.89-0.23,1.89,0.3,2.68c0,0,0.5,2.39-0.2,2.39s-1.88,3.56-1.88,3.56s-1.68,3.66-0.69,5.35
				s3.17,7.33,3.17,7.33s-3.47-2.08-4.46-5.55c0,0-8.42-6.54-14.96-2.39L52.79-135.91z"/>
			<path id="패스_620_1_" class="st5" d="M71.08-143.5c0.04,1.75-0.19,3.49-0.67,5.17l-14.96,2.28l-0.56-3.88
				C56.86-141.97,63.97-148.46,71.08-143.5z"/>
			<path id="패스_621_1_" class="st4" d="M52.79-136.44l1.59-2.39c0,0,8.72-10.4,17.24-3.76l-0.3,9.11
				c-0.2,1.44-0.53,2.86-0.99,4.24c-0.35,0.89-0.23,1.89,0.3,2.68c0,0,0.5,2.39-0.2,2.39s-1.88,3.56-1.88,3.56s-1.68,3.66-0.69,5.35
				s3.17,7.33,3.17,7.33s-3.47-2.08-4.46-5.55c0,0-8.42-6.54-14.96-2.39L52.79-136.44z"/>
			<path id="패스_622_1_" class="st5" d="M66.85-143.18c0,0-14.36,8.82-13.67,16.55C53.18-126.63,61.2-140.8,66.85-143.18z"/>
			<path id="패스_623_1_" class="st5" d="M54.39-134.8l0.07,12.07c-2.72,0.12-5.28-0.23-7.3-1.99c-1.37-1.26-2.29-2.92-2.65-4.75
				c-0.32-1.47-0.43-2.98-0.34-4.49c0-0.01,0-0.03,0-0.05c0.17-3.33,0.93-6.67,0.53-9.98s-2.41-6.81-5.69-7.51
				c-0.66-0.04-1.3-0.27-1.84-0.67c-0.43-0.61-0.58-1.36-0.43-2.09l0.1-1.24c0.02-0.32,0.03-0.63,0.03-0.95
				c0-5.81-4.11-10.8-9.81-11.92l-0.11-0.02c-0.91-0.25-1.87-0.3-2.81-0.16c-1.76,0.41-2.89,2.11-4.51,2.92
				c-3.1,1.55-8.28-0.15-11.53-0.68c-0.21-0.03-0.41-0.07-0.61-0.12c-0.07-0.64-0.11-1.29-0.11-1.93c0-9.46,7.67-17.13,17.14-17.13
				c9.46,0,17.13,7.67,17.13,17.14c0,2.98-0.78,5.91-2.26,8.49c0.05,0.1,0.11,0.2,0.16,0.3c3.6,5.97,15.16,2.19,15.16,2.19
				l0.7,21.29L54.39-134.8z"/>
			<path id="패스_624_1_" class="st12" d="M20.26-165.9c1.61-0.81,2.74-2.51,4.51-2.92c0.94-0.15,1.89-0.09,2.81,0.15l0.11,0.02
				c6.05,1.2,10.24,6.73,9.77,12.87l-0.1,1.24c-0.16,0.73,0,1.48,0.43,2.09c0.53,0.4,1.17,0.63,1.83,0.66
				c3.28,0.7,5.29,4.18,5.69,7.51s-0.38,6.67-0.53,10.02s0.46,7.04,2.99,9.24c3.98,3.45,10.03,1.48,15.29,1.17
				c-2.33,0-4.07-2.4-4.2-4.73c-0.13-2.33,0.91-4.54,1.9-6.63s1.98-4.35,1.76-6.67c-0.3-3.18-2.81-5.73-3.77-8.79
				c-1.12-3.56-0.04-7.39,0.47-11.1c0.95-6.94-0.53-14.75-5.9-19.23c-2.25-1.88-5-3.03-7.47-4.6c-4.43-2.81-7.92-6.93-12.4-9.66
				S22.68-199,18.78-195.5c-1.51,1.36-2.49,3.24-4.04,4.54c-3.04,2.56-7.86,2.61-10.3,5.75c-2.1,2.7-1.53,6.54-0.86,9.9
				c0.89,4.47,0.39,7.96,5.17,8.75C11.98-166.04,17.16-164.35,20.26-165.9z"/>
			<path id="패스_625_1_" class="st5" d="M59.66-125.98c-3.83,0.47-7.63,0.71-10.42-1.71c-2.53-2.2-3.15-5.89-2.99-9.24
				s0.94-6.7,0.53-10.02s-2.41-6.8-5.69-7.51c-0.66-0.04-1.3-0.27-1.83-0.66c-0.43-0.61-0.59-1.36-0.43-2.09l0.1-1.24
				c0.47-6.14-3.72-11.67-9.77-12.87l-0.11-0.02c-0.92-0.25-1.87-0.3-2.81-0.15c-1.76,0.41-2.89,2.12-4.51,2.92
				c-3.11,1.55-8.28-0.14-11.53-0.68c-4.77-0.78-4.28-4.27-5.17-8.75c-0.5-2.5-0.94-5.28-0.27-7.65c-0.13,0.13-0.25,0.28-0.37,0.43
				c-2.1,2.7-1.53,6.54-0.86,9.9c0.89,4.47,0.39,7.96,5.17,8.75c3.25,0.53,8.42,2.23,11.53,0.68c1.61-0.81,2.74-2.51,4.51-2.92
				c0.94-0.15,1.89-0.09,2.81,0.15l0.11,0.02c6.05,1.2,10.24,6.73,9.77,12.87l-0.1,1.24c-0.16,0.73,0,1.48,0.43,2.09
				c0.53,0.4,1.17,0.63,1.83,0.66c3.28,0.7,5.29,4.18,5.69,7.51s-0.37,6.67-0.53,10.02s0.46,7.04,2.99,9.24
				c3.98,3.45,10.03,1.48,15.29,1.17C61.62-123.91,60.33-124.72,59.66-125.98z"/>
			<path id="패스_626_1_" class="st13" d="M-47.97-117.13l16.35-6.1c0.8-0.3,1.7,0.11,2,0.91l0,0c0.3,0.8-0.11,1.7-0.91,2
				l-16.35,6.1l-3.51-0.35L-47.97-117.13z"/>
			<path id="패스_627_1_" class="st14" d="M-30.11-122.82L-30.11-122.82c0.3,0.8-0.11,1.7-0.92,2l-16.36,6.12l-2.63-0.27
				l-0.38,0.4l3.51,0.35l16.35-6.1c0.8-0.3,1.21-1.2,0.91-2l0,0c-0.12-0.32-0.34-0.6-0.64-0.78
				C-30.21-123.01-30.16-122.92-30.11-122.82L-30.11-122.82z"/>
			<path id="패스_628_1_" class="st15" d="M-47.97-117.13l1.09,2.91l-2.88-0.29l-0.63-0.06l0.86-0.91L-47.97-117.13z"/>
			<path id="패스_629_1_" class="st16" d="M-49.53-115.49c0.07,0.05,0.12,0.11,0.17,0.18c0.05,0.09,0.05,0.2,0,0.28
				c-0.05,0.05-0.1,0.09-0.16,0.11c-0.13,0.09-0.22,0.23-0.23,0.39l-0.63-0.06L-49.53-115.49z"/>
			<path id="패스_630_1_" class="st9" d="M3.36-98.52c0,0,14.16-2.97,37.92,0.8l-9.31-6.83l-16.94-3.47l-11.98,3.18L3.36-98.52z"
				/>
			<path id="패스_631_1_" class="st5" d="M3.36-98.52c0,0,14.16-2.97,37.92,0.8l-9.31-6.83l-16.94-3.47l-11.98,3.18L3.36-98.52z"
				/>
			<path id="패스_632_1_" class="st9" d="M1.7-95.3c0,0,7.13-19.29,43.76,0.06l-13.15-8.46c0,0-31.49-8.7-35.13,1.33L1.7-95.3z"/>
			<path id="패스_633_1_" class="st5" d="M1.71-95.32c0,0,7.13-20.63,43.76,0.37l-13.15-9.18c0,0-31.5-10.41-35.15,0.48
				L1.71-95.32z"/>
			<path id="패스_634_1_" class="st9" d="M1.7-95.31c0,0,7.13-20.93,43.76,0.07l-13.15-9.18c0,0-31.49-10.11-35.13,0.8L1.7-95.31z
				"/>
			<path id="패스_635_1_" class="st5" d="M1.71-95.3c0,0,7.13-23.26,43.76,0.36l-13.16-10.33c0,0-31.49-10.61-35.13,1.63
				L1.71-95.3z"/>
			<path id="패스_636_1_" class="st9" d="M1.71-95.32c0,0,7.13-23.55,43.76,0.07l-13.16-10.33c0,0-31.49-10.61-35.13,1.63
				L1.71-95.32z"/>
			<path id="패스_637_1_" class="st0" d="M111.59-97.53c0,0-8.79,9.42-0.88,13.99c0.62,0.72,1.63,0.96,2.51,0.59
				c0,0-0.5-0.44,0.5-1.3c0.35-0.31,0.67-0.65,0.94-1.03c0.37-0.51,0.56-1.13,0.55-1.77l0,0c0,0,1.15-3.74-2.51-8.59
				c0,0-0.33-1.62-0.61-1.8l-0.67,2.26c0.96,0.25,1.78,0.86,2.31,1.71c0,0-2.21-1.74-2.43-1.37c-0.04,0.07-0.3,1.22-0.3,1.22
				s2.92,0.75,3.83,2.76c0,0-2.36-2.42-3.93-2.33l-0.28,1.75c0,0,3.12,0.65,4.24,2.89c0,0-2.55-2.45-4.29-2.5l-0.05,1.75
				c0,0,3.03,0.69,3.96,2.56c0,0-3.23-2.53-3.94-2.16c0.01,0.69,0.1,1.37,0.27,2.04c0,0,2.16,0.53,2.6,1.68c0,0-2.34-1.46-2.54-1.24
				c0.31,1.07,0.82,2.08,1.5,2.97c-0.85-0.78-1.48-1.76-1.83-2.86c-0.34,0.62-0.49,1.33-0.44,2.03c0,0-0.87-0.96,0.29-2.54
				c-0.18-0.62-0.29-1.26-0.32-1.9c-0.74,0.76-1.33,1.66-1.72,2.65c0,0-0.27-1.57,1.71-3.11v-1.77c-0.92,0.81-1.69,1.77-2.3,2.84
				c0,0-0.03-1.64,2.34-3.28l0.27-1.72c-0.92,0.72-1.75,1.56-2.45,2.5c0.44-1.28,1.35-2.35,2.55-2.99l0.31-1.12
				c0,0-1.26,1.03-1.59,1.36s-0.45,0.27-0.45,0.27c0.52-0.89,1.27-1.62,2.17-2.11C111.22-95.94,111.45-96.73,111.59-97.53z"/>
			<path id="패스_638_1_" class="st0" d="M150.9-250.77c0,0-11.75,5.3-6.21,12.57c0.29,0.9,1.14,1.52,2.09,1.52
				c0,0-0.29-0.6,0.96-1.01c0.44-0.15,0.87-0.34,1.27-0.59c0.54-0.33,0.95-0.83,1.19-1.42l0,0c0,0,2.5-3,1-8.89
				c0,0,0.32-1.63,0.13-1.9l-1.49,1.83c0.79,0.6,1.32,1.48,1.47,2.46c0,0-1.37-2.46-1.71-2.2c-0.07,0.05-0.74,1.01-0.74,1.01
				s2.39,1.82,2.47,4.02c0,0-1.24-3.14-2.73-3.66l-0.94,1.5c0,0,2.63,1.8,2.81,4.3c0,0-1.41-3.24-2.99-3.96l-0.72,1.59
				c0,0,2.53,1.81,2.65,3.89c0,0-2.01-3.58-2.8-3.51c-0.26,0.64-0.44,1.3-0.53,1.98c0,0,1.79,1.33,1.76,2.56
				c0,0-1.59-2.25-1.86-2.12c-0.13,1.11-0.04,2.24,0.24,3.32c-0.48-1.04-0.68-2.2-0.58-3.34c-0.56,0.44-0.97,1.03-1.19,1.71
				c0,0-0.43-1.22,1.25-2.23c0.07-0.64,0.22-1.27,0.44-1.88c-0.98,0.41-1.86,1.01-2.6,1.77c0,0,0.36-1.55,2.78-2.2l0.69-1.62
				c-1.16,0.4-2.24,0.98-3.21,1.73c0,0,0.61-1.53,3.42-2.12l0.9-1.48c-1.13,0.31-2.22,0.77-3.23,1.36c0.9-1.01,2.15-1.64,3.5-1.77
				l0.72-0.92c0,0-1.56,0.47-2,0.64c-0.44,0.17-0.53,0.07-0.53,0.07c0.82-0.62,1.81-1,2.83-1.1
				C149.95-249.46,150.45-250.1,150.9-250.77z"/>
			<path id="패스_640_1_" class="st0" d="M91.47-50.86c0,0,8.89-9.33,1.02-13.98c-0.61-0.73-1.62-0.98-2.51-0.62
				c0,0,0.5,0.45-0.51,1.29c-0.36,0.3-0.68,0.65-0.95,1.02c-0.37,0.51-0.57,1.13-0.56,1.76l0,0c0,0-1.19,3.73,2.42,8.61
				c0,0,0.32,1.63,0.59,1.81l0.69-2.26c-0.96-0.26-1.78-0.88-2.29-1.73c0,0,2.19,1.76,2.41,1.4c0.04-0.07,0.31-1.21,0.31-1.21
				s-2.92-0.8-3.8-2.8c0,0,2.33,2.45,3.91,2.36l0.3-1.74c0,0-3.11-0.68-4.22-2.92c0,0,2.53,2.47,4.26,2.55l0.07-1.76
				c0,0-3.03-0.73-3.94-2.61c0,0,3.21,2.56,3.92,2.2c0-0.69-0.09-1.37-0.27-2.04c0,0-2.16-0.57-2.59-1.71c0,0,2.33,1.48,2.53,1.26
				c-0.3-1.08-0.8-2.09-1.47-2.99c0.84,0.79,1.46,1.78,1.8,2.87c0.35-0.62,0.51-1.32,0.46-2.03c0,0,0.86,0.97-0.32,2.54
				c0.17,0.62,0.27,1.26,0.3,1.91c0.75-0.75,1.34-1.64,1.74-2.62c0,0,0.27,1.57-1.74,3.09L93-57.43c0.92-0.81,1.71-1.76,2.32-2.82
				c0,0,0,1.65-2.37,3.26l-0.27,1.71c0.93-0.71,1.76-1.55,2.48-2.47c-0.45,1.28-1.37,2.34-2.58,2.96l-0.32,1.12
				c0,0,1.27-1.02,1.61-1.35s0.46-0.27,0.46-0.27c-0.53,0.89-1.29,1.61-2.2,2.09C91.85-52.43,91.62-51.65,91.47-50.86z"/>
		</g>
	</g>
</g>
<g id="Layer_2">
</g>
</svg>
