<svg xmlns="http://www.w3.org/2000/svg" width="97.764" height="79.866" viewBox="0 0 97.764 79.866"><g transform="translate(-0.001 -0.022)"><path d="M203.938,94.812v.181q-.016,1.57-.186,3.131a.108.108,0,0,1,0,.019c-.009.087-.019.172-.029.259-.017.146-.035.291-.055.438a31.48,31.48,0,0,1-1.147,5.251h0a28.316,28.316,0,0,1-2.994,6.593q-.589.945-1.254,1.829h0c-.237.312-.478.618-.728.918q-.263.315-.535.621l-.113.125a29.511,29.511,0,0,1-3.083,2.93,48.4,48.4,0,0,1-5.676,3.973c-.111.069-.224.136-.336.2a.164.164,0,0,1-.025.015,59.863,59.863,0,0,1-8.266,4.224,37.49,37.49,0,0,1-9.626,2.61,47.371,47.371,0,0,1-13.82-.684,89.811,89.811,0,0,1-11.24-2.686l-.607-.19q-.471-.15-.942-.306-2.842-.94-5.62-2.089a73.87,73.87,0,0,1-13.262-7.121q-.8-.535-1.569-1.094-1.08-.778-2.135-1.6l-.434-.336a44.587,44.587,0,0,1-5.154-4.734,26.282,26.282,0,0,1-5.172-7.957q-.284-.707-.521-1.441l-.015-.049c-.08-.249-.153-.5-.221-.756q-.149-.555-.262-1.124c-.016-.073-.03-.145-.043-.219a18.819,18.819,0,0,1-.313-3.872,17.9,17.9,0,0,1,.4-3.382h0a15.257,15.257,0,0,1,1.127-3.339h0a12.035,12.035,0,0,1,1.724-2.659h0a10.168,10.168,0,0,1,1.624-1.518,13.267,13.267,0,0,1,3.516-1.806h0c.583-.209,1.174-.392,1.768-.562.421-.121.843-.237,1.264-.35l1.241-.335c.8-.217,1.591-.44,2.375-.68a26.754,26.754,0,0,0,6.167-2.62c.306-.186.619-.39.931-.609q.6-.415,1.178-.9h0c.392-.328.776-.679,1.142-1.051.057-.058.112-.115.168-.174.3-.314.588-.644.856-.986.131-.167.259-.337.38-.51.168-.24.327-.483.474-.734h0a7.515,7.515,0,0,0,1.14-4.093,6.3,6.3,0,0,0-.065-.717c-.129-.878-.254-1.736-.345-2.574C135.236,58.8,135.4,55.653,138,52.7c3.237-3.673,8.316-4.422,12.94-4.129,13.369.845,25.54,8.478,36.235,17.566q1.388,1.178,2.741,2.387.341.3.683.613c1.691,1.523,3.356,3.1,4.907,4.794.125.137.251.275.374.413.076.086.152.17.227.257q.725.821,1.407,1.681a31.845,31.845,0,0,1,3.215,4.874,27.668,27.668,0,0,1,2.823,8.621h0a30.718,30.718,0,0,1,.341,3.3c.017.325.028.651.034.977v.312C203.939,94.513,203.939,94.661,203.938,94.812Z" transform="translate(-108.55 -48.49)" fill="#6c63ff" opacity="0.1"/><path d="M379.571,445.138l-1.591,28.327,1.591.021,1.293-28.745Z" transform="translate(-340.383 -400.484)" fill="#3f3d56"/><rect width="19.694" height="4.277" transform="translate(13.626 59.006)" fill="#6c63ff"/><path d="M253.018,679.51V682.2H232.675q-1.08-.778-2.135-1.6V679.51Z" transform="translate(-218.405 -616.726)" fill="#3f3d56"/><path d="M206.542,514.15c-.056.258-.128.512-.2.766a9.984,9.984,0,0,0-.55,2.218c-.071,1.007.2,2.177-.5,2.908-.179.189-.413.33-.573.532a.938.938,0,0,0-.068.1,1.542,1.542,0,0,0-.162.8,13.924,13.924,0,0,0,.112,1.726c.236,1.969.7,3.943.09,5.8a8.948,8.948,0,0,1-.387.946,7.393,7.393,0,0,0-.721,2.015,12.7,12.7,0,0,0-.054,1.606q-.471-.15-.942-.306-2.842-.94-5.62-2.089c0-.027.01-.055.014-.082a6.337,6.337,0,0,0-.289-2.654c-.5-1.829-1.2-3.64-1.618-5.482a13.875,13.875,0,0,1-.329-2.188c-.012-.165-.019-.331-.02-.5,0-.217,0-.434.009-.653.021-.437.04-.955-.309-1.22a2.675,2.675,0,0,0-.669-.257,3.8,3.8,0,0,1-1.069-.87,1.4,1.4,0,0,0-1.252-.368c-2.236.512-3.879,2.409-5.96,3.368-.081.038-.161.074-.243.107a3.534,3.534,0,0,0-.763.39.869.869,0,0,0-.342.482,1.805,1.805,0,0,0,.019.648,3.311,3.311,0,0,1-.045,1.057,3.231,3.231,0,0,1-.106.4c-.08.236-.186.467-.287.7q-.8-.535-1.569-1.094-1.08-.778-2.135-1.6l-.427-.343a44.58,44.58,0,0,1-5.154-4.734,18.026,18.026,0,0,0,.665-1.763c.084-.351.114-.716.23-1.057a3.8,3.8,0,0,1,.549-.985,13.328,13.328,0,0,1,3.058-3.06,41.435,41.435,0,0,0,3.765-2.594,5.94,5.94,0,0,0,1.151-1.364.848.848,0,0,0,.053-.1,2.064,2.064,0,0,0,.178-.569c.08-.446.068-.935.107-1.363a14.537,14.537,0,0,0,4.091.123c1.586-.178,3.138-.619,4.725-.79.119-.014.24-.025.36-.035.508-.041,1.018-.05,1.528-.044.427,0,.853.019,1.28.033l4.7.159a4.61,4.61,0,0,1,1.536.228,3.356,3.356,0,0,1,1.4,1.17c.047.064.093.127.137.193a6.069,6.069,0,0,1,.724,1.431c.019.052.037.1.054.156.045.138.084.278.118.419.027.11.051.221.073.332a14.262,14.262,0,0,0,.347,1.646c.012.039.025.078.039.115.208.583.553,1.105.814,1.665a6.186,6.186,0,0,1,.428,1.266A6.258,6.258,0,0,1,206.542,514.15Z" transform="translate(-167.867 -457.478)" fill="#35323e"/><path d="M238.007,258.7c-.42-.334-1.028-.09-1.52.126a9.759,9.759,0,0,1-1.269.459.536.536,0,0,1-.279.029c-.2-.048-.282-.284-.431-.427a.959.959,0,0,0-1.012-.055,2.308,2.308,0,0,1-1.017.3c-.38-.03-.71-.31-1.094-.319-.676-.016-1.244.818-1.884.6-.39-.134-.7-.642-1.08-.5-.3.113-.325.526-.505.8a1.92,1.92,0,0,1-.978.542,2.809,2.809,0,0,0-1.7,2.868,9.884,9.884,0,0,0,.608,1.882c.623,1.819.409,3.871,1.194,5.626.1-.094.155-.128.252-.221a2.3,2.3,0,0,0-.134,1.651c.083.276.217.532.318.8a7.185,7.185,0,0,1,.255.925l.865,3.818a24.781,24.781,0,0,1,.736,4.512,13.165,13.165,0,0,1-.227,2.964c1.568-.26,3-.955,4.59-.946a12.8,12.8,0,0,1,1.739.179,35.788,35.788,0,0,0,5.086.345,2.018,2.018,0,0,0,.78-.109,5.846,5.846,0,0,0,.6-.38,2.676,2.676,0,0,1,1.362-.3c2.128-.039,4.178.74,6.291,1.015a7.574,7.574,0,0,0,.244-5.681,8.486,8.486,0,0,1-.521-1.646,8.328,8.328,0,0,1-.024-1.057,7.67,7.67,0,0,0-.48-2.644,2.718,2.718,0,0,1-.259-1.022,2.322,2.322,0,0,1,.358-.995,6.9,6.9,0,0,1,2.939-3.209l1.535-1.03a15.143,15.143,0,0,0-1.042-3.942,7.009,7.009,0,0,0-2.539-3.054,8.392,8.392,0,0,0-1.2-.6,5.573,5.573,0,0,0-1.815-.5,9.62,9.62,0,0,0-2.129.271C242.394,260.154,239.774,260.108,238.007,258.7Z" transform="translate(-213.611 -237.626)" fill="#6c63ff"/><path d="M152.644,487.476l-.73.922-1.377,1.738-1.591,2.008-.445.561h-.862l-21.354.025-13.373.015h-.6c-.08-.249-.153-.5-.221-.756q-.149-.555-.262-1.124c-.016-.073-.03-.145-.043-.219l4.852-3.172,1.824-.01h0l5.58-.032h0l3.116-.018h.926l2.077-.011h0l15.829-.091h0l.81-.005h.351l.93,0,3.46-.02.664-.253.049.052Z" transform="translate(-111.466 -443.391)" fill="#3f3d56"/><path d="M149.43,447.814l-.083.1-.543.64-1.118,1.32-2.344,2.764-20.768-.53-15.661-.4c-.016-.073-.03-.145-.043-.219a18.819,18.819,0,0,1-.313-3.872l1.737-.889.4-.2,3.1-1.591,2.717-1.393,7.088.921,1.57.2.71.092,1.039.135.088.012,16.3,2.114,1.8.234,1.057.137,3.258.424Z" transform="translate(-108.55 -404.226)" fill="#504f60"/><path d="M460.36,534.51l-.017.391-.1,2.207-.535,12.135-.113,2.623-.3,6.748-.168,3.812-.607-.19q-.471-.15-.942-.306l1.455-26.458.031-.555.641-.2Z" transform="translate(-422.862 -486.148)" fill="#3f3d56"/><path d="M115.677,534.22l-.045,1.021-.066,1.492q-.284-.707-.521-1.441l-.015-.049c-.08-.249-.153-.5-.221-.756Z" transform="translate(-114.186 -485.887)" fill="#3f3d56"/><ellipse cx="4.575" cy="6.167" rx="4.575" ry="6.167" transform="translate(22.926 20.96)" fill="#a1616a"/><ellipse cx="4.575" cy="6.167" rx="4.575" ry="6.167" transform="translate(22.926 20.96)" opacity="0.1"/><circle cx="6.366" cy="6.366" r="6.366" transform="translate(21.782 17.031)" fill="#a1616a"/><path d="M329.092,183.6a8.146,8.146,0,0,0-1.155.176,9.35,9.35,0,0,0-2.724,1.321,3.242,3.242,0,0,0-1.007.841c-.424.632-.26,1.435-.5,2.137a6.153,6.153,0,0,1-.542,1.019,12.125,12.125,0,0,0-1.076,2.928c-.056.207-.072.487.154.567a.622.622,0,0,0,.386-.044,2.264,2.264,0,0,1,2.148.175c.529.478.484,1.327,1.114,1.691.721.421,1.847-.088,2.5.409.28.213.382.554.612.811a2.782,2.782,0,0,0,2.421.448c.491-.07,1.094-.116,1.393.229.143.163.184.387.35.534a.913.913,0,0,0,1.136-.142,7.644,7.644,0,0,0,.673-.951c.472-.6,1.3-.922,1.79-1.512a3.642,3.642,0,0,0,.643-1.721l.415-2.227a3.668,3.668,0,0,0-.187-2.686c-.181-.286-.441-.533-.6-.83-.1-.2-.163-.409-.284-.6a2.478,2.478,0,0,0-.51-.515l-.982-.813a8.254,8.254,0,0,0-1.073-.8C332.792,183.233,330.693,183.448,329.092,183.6Z" transform="translate(-300.818 -170.012)" fill="#464353"/><path d="M119.5,338.957c-.236.251-.454.521-.706.756a8.555,8.555,0,0,1-.7.557q-.585.438-1.144.906a6.408,6.408,0,0,0-1.048,1.047c-.531.713-.783,1.6-1.28,2.337-.44.654-1.059,1.17-1.506,1.818a2.813,2.813,0,0,0-.43.9,4.191,4.191,0,0,0-.089.954,7.084,7.084,0,0,0,.091,1.571,2.382,2.382,0,0,0,.747,1.357,3.277,3.277,0,0,0,1.334.577,1.2,1.2,0,0,0,.742.021,1.223,1.223,0,0,0,.432-.364l1.21-1.393a9.317,9.317,0,0,1,2.762-2.437c.348-.17.715-.3,1.064-.464a5.732,5.732,0,0,0,2.932-3.765c.1-.389.163-.786.228-1.183l.175-1.088a.347.347,0,0,0,0-.166.358.358,0,0,0-.127-.151,21.1,21.1,0,0,1-2.361-2.228,5.452,5.452,0,0,0-.535-.613c-.251-.2-.232-.184-.533,0A6.393,6.393,0,0,0,119.5,338.957Z" transform="translate(-112.189 -308.973)" fill="#a1616a"/><path d="M261.306,421.523a.187.187,0,1,0-.336.163l-.1.049,2.966,6.079.536-.262-2.966-6.083Z" transform="translate(-245.718 -384.298)" fill="#3f3d56"/><path d="M119.5,338.957c-.236.251-.454.521-.706.756a8.555,8.555,0,0,1-.7.557q-.585.438-1.144.906a6.408,6.408,0,0,0-1.048,1.047c-.531.713-.783,1.6-1.28,2.337-.44.654-1.059,1.17-1.506,1.818a2.813,2.813,0,0,0-.43.9,4.191,4.191,0,0,0-.089.954,7.084,7.084,0,0,0,.091,1.571,2.382,2.382,0,0,0,.747,1.357,3.277,3.277,0,0,0,1.334.577,1.2,1.2,0,0,0,.742.021,1.223,1.223,0,0,0,.432-.364l1.21-1.393a9.317,9.317,0,0,1,2.762-2.437c.348-.17.715-.3,1.064-.464a5.732,5.732,0,0,0,2.932-3.765c.1-.389.163-.786.228-1.183l.175-1.088a.347.347,0,0,0,0-.166.358.358,0,0,0-.127-.151,21.1,21.1,0,0,1-2.361-2.228,5.452,5.452,0,0,0-.535-.613c-.251-.2-.232-.184-.533,0A6.393,6.393,0,0,0,119.5,338.957Z" transform="translate(-112.189 -308.973)" opacity="0.04"/><path d="M459.861,380.381a4.645,4.645,0,0,1-.3,1.867.994.994,0,0,1-.553.58,1.287,1.287,0,0,1-.486.018,17.573,17.573,0,0,0-5.818.462c.507-1.015.216-2.231.356-3.357.039-.307.109-.61.136-.918a11.622,11.622,0,0,0-.584-3.237,7.241,7.241,0,0,1,0-2.833,1.89,1.89,0,0,1,.244-.681,1.6,1.6,0,0,1,.559-.486,4.692,4.692,0,0,1,2.661-.451,5.469,5.469,0,0,1,2.34.358c.556.411.732,1.79.882,2.428a20.534,20.534,0,0,1,.458,2.971A31.919,31.919,0,0,1,459.861,380.381Z" transform="translate(-418.264 -339.193)" fill="#a1616a"/><path d="M59.98,436.03l3.581,2.387,16.113-.6-10.643-1.79Z" transform="translate(-54.013 -392.64)" fill="#fff"/><path d="M178.52,284.9c-.588.518-1.086,1.129-1.643,1.681a22.61,22.61,0,0,1-2.5,2.044,1.858,1.858,0,0,1,1.293,1.3c.038.146.057.3.1.442a2.413,2.413,0,0,0,.553.9c1.009,1.137,2.42,1.978,3.015,3.382a.312.312,0,0,0,.119.169.261.261,0,0,0,.154.018,2.108,2.108,0,0,0,1.293-.912,9.534,9.534,0,0,0,1.691-2.976,5.3,5.3,0,0,0,.025-3.382,8.656,8.656,0,0,0-.783-1.525l-.772-1.285c-.134-.226-.305-.684-.569-.8C179.93,283.71,178.885,284.532,178.52,284.9Z" transform="translate(-167.831 -260.474)" fill="#6c63ff"/><path d="M450.257,340.233l.846,1.989a6.15,6.15,0,0,0-5.56.771,3.123,3.123,0,0,0-1.143,1.33.581.581,0,0,1-.576-.226,1.155,1.155,0,0,1-.213-.609,4.8,4.8,0,0,1,.5-2.227,3.208,3.208,0,0,1,.507-.947,2.963,2.963,0,0,1,.865-.62,19.269,19.269,0,0,1,3.138-1.387.939.939,0,0,1,1.194.283C450.111,339.1,450.024,339.69,450.257,340.233Z" transform="translate(-410.272 -309.382)" fill="#6c63ff"/><path d="M125.341,412.312c.212.169.4.369.616.53a4.4,4.4,0,0,0,.732.411l.981.471a5.494,5.494,0,0,0,.95.386c.42.112.86.123,1.282.228.532.131,1.019.4,1.543.563a1.783,1.783,0,0,0,1.576-.145c.274-.206.48-.546.82-.6a1.084,1.084,0,0,1,.625.179l2.552,1.342a1.945,1.945,0,0,1,.888.727.671.671,0,0,1-.32.959,3.494,3.494,0,0,1-.4.023.312.312,0,0,0-.292.226.453.453,0,0,0,.063.234.978.978,0,0,1,.015.832.6.6,0,0,1-.722.3c.045.385-.374.654-.747.757a6.755,6.755,0,0,1-2.9-.064,3.976,3.976,0,0,1-1.106-.3c-.165-.081-.318-.184-.485-.259a3.464,3.464,0,0,0-1.481-.168,34.308,34.308,0,0,1-6.9-.817,3.336,3.336,0,0,1-1.218-.4,2.259,2.259,0,0,1-.84-2.208,6.63,6.63,0,0,1,.943-2.294l.532-.938a1.208,1.208,0,0,1,.286-.378C123.118,411.316,124.671,411.772,125.341,412.312Z" transform="translate(-119.353 -375.492)" fill="#a1616a"/><path d="M125.341,412.312c.212.169.4.369.616.53a4.4,4.4,0,0,0,.732.411l.981.471a5.494,5.494,0,0,0,.95.386c.42.112.86.123,1.282.228.532.131,1.019.4,1.543.563a1.783,1.783,0,0,0,1.576-.145c.274-.206.48-.546.82-.6a1.084,1.084,0,0,1,.625.179l2.552,1.342a1.945,1.945,0,0,1,.888.727.671.671,0,0,1-.32.959,3.494,3.494,0,0,1-.4.023.312.312,0,0,0-.292.226.453.453,0,0,0,.063.234.978.978,0,0,1,.015.832.6.6,0,0,1-.722.3c.045.385-.374.654-.747.757a6.755,6.755,0,0,1-2.9-.064,3.976,3.976,0,0,1-1.106-.3c-.165-.081-.318-.184-.485-.259a3.464,3.464,0,0,0-1.481-.168,34.308,34.308,0,0,1-6.9-.817,3.336,3.336,0,0,1-1.218-.4,2.259,2.259,0,0,1-.84-2.208,6.63,6.63,0,0,1,.943-2.294l.532-.938a1.208,1.208,0,0,1,.286-.378C123.118,411.316,124.671,411.772,125.341,412.312Z" transform="translate(-119.353 -375.492)" opacity="0.04"/><path d="M291.938,432.649a16.182,16.182,0,0,1-1.654.457,9.8,9.8,0,0,0-1.5.8,13.387,13.387,0,0,1-4.25,1.254,12.4,12.4,0,0,1-2.686.28,17.269,17.269,0,0,1-3.549-.76,6.788,6.788,0,0,0-3.589-.167,4.039,4.039,0,0,0-2.636,2.529,5.826,5.826,0,0,0-.231,2.24c.245.18.587-.07.72-.343s.206-.609.465-.768c.449.152.558.75.928,1.045a1.675,1.675,0,0,0,.833.275l1.512.215a1.236,1.236,0,0,0,1.05-.17c.128-.124.2-.3.316-.432a1.173,1.173,0,0,1,1-.277c1.118.111,2.166.836,3.276.664a6.213,6.213,0,0,0,1.1-.35c2.157-.762,4.555-.3,6.8-.735a15.176,15.176,0,0,0,2.5-.771,5.047,5.047,0,0,0,1.268-.629,2.67,2.67,0,0,0,1.03-2.368,2.707,2.707,0,0,0-.956-1.755,3.382,3.382,0,0,0-.615-.528C292.672,432.184,292.279,432.489,291.938,432.649Z" transform="translate(-255.588 -394.111)" fill="#a1616a"/><g transform="translate(21.437 15.126)" opacity="0.1"><path d="M336.063,211.066c-.166-.147-.207-.371-.35-.534-.3-.345-.9-.3-1.393-.229a2.782,2.782,0,0,1-2.421-.448c-.23-.257-.331-.6-.612-.811-.654-.5-1.78.012-2.5-.409-.63-.367-.589-1.218-1.114-1.691a2.279,2.279,0,0,0-2.148-.175.621.621,0,0,1-.386.044c-.226-.08-.21-.36-.154-.567a12.126,12.126,0,0,1,1.076-2.928,6.147,6.147,0,0,0,.542-1.019,17.918,17.918,0,0,1,.389-1.941,2.678,2.678,0,0,0-.785.7c-.424.632-.26,1.435-.5,2.137a6.151,6.151,0,0,1-.542,1.018,12.127,12.127,0,0,0-1.076,2.928c-.056.207-.072.487.154.567a.622.622,0,0,0,.386-.044,2.264,2.264,0,0,1,2.148.175c.529.478.484,1.327,1.114,1.691.721.421,1.847-.088,2.5.409.28.213.382.554.612.811a2.782,2.782,0,0,0,2.421.448c.491-.07,1.094-.116,1.393.229.143.163.184.387.35.534a.913.913,0,0,0,1.136-.142,3.015,3.015,0,0,0,.475-.651A.74.74,0,0,1,336.063,211.066Z" transform="translate(-324.055 -200.36)"/><path d="M461.388,288.823a2.825,2.825,0,0,0-.178.258,5.39,5.39,0,0,0,1.072-.874,2.114,2.114,0,0,0,.2-.286A5.225,5.225,0,0,0,461.388,288.823Z" transform="translate(-447.568 -279.211)"/></g><path d="M556.48,446.53l.3,28.547,1.392-.2-.3-28.348Z" transform="translate(-501.128 -402.096)" fill="#3f3d56"/><path d="M640.48,498.53l.3,28.547,1.393-.2-.3-28.348Z" transform="translate(-576.773 -448.924)" fill="#3f3d56"/><path d="M996.548,561.422h0l-.006-.548v-.326l-.053-5.021-.083-7.85-.014-.677H995l.007.652.044,4.2.019,1.82h0l.016,1.474.026,2.548.016,1.5h0v.159l.021,1.975.018,1.742.113-.125q.274-.305.535-.621Z" transform="translate(-906.828 -497.396)" fill="#3f3d56"/><path d="M617.776,545.03l-.8,1.19.8,5.42,6.764,1.851h10.941l6.565.4,3.127-2.14-.541-3.676-2.387-3.041Z" transform="translate(-555.611 -490.799)" fill="#6c63ff"/><path d="M721.179,605.48l-.4,3.3s-2.089,6.478,14.721,6.081,13.925-1.719,13.925-1.719l-.1-3.833s.586,1.814-7.957,1.569-16.511-1.039-16.511-1.039S721.875,610.371,721.179,605.48Z" transform="translate(-659.809 -550.059)" fill="#3f3d56"/><path d="M829.886,303.722a4.806,4.806,0,0,0-2.171,2.219,14.321,14.321,0,0,0-1.029,2.984,26.563,26.563,0,0,0-.717,3.258,9.87,9.87,0,0,0,.835,5.785,6.52,6.52,0,0,0,4.516,3.522,8.309,8.309,0,0,0,2.288.027,18.6,18.6,0,0,0,4.039-.89,5.427,5.427,0,0,0,3.4-2.487,5.559,5.559,0,0,0,.366-2.466,26.227,26.227,0,0,0-1.025-6.743,5.741,5.741,0,0,0-.788-1.814,5.561,5.561,0,0,0-1.467-1.293C835.8,304.258,832.747,302.421,829.886,303.722Z" transform="translate(-754.511 -277.918)" fill="#fbbebe"/><path d="M829.886,303.722a4.806,4.806,0,0,0-2.171,2.219,14.321,14.321,0,0,0-1.029,2.984,26.563,26.563,0,0,0-.717,3.258,9.87,9.87,0,0,0,.835,5.785,6.52,6.52,0,0,0,4.516,3.522,8.309,8.309,0,0,0,2.288.027,18.6,18.6,0,0,0,4.039-.89,5.427,5.427,0,0,0,3.4-2.487,5.559,5.559,0,0,0,.366-2.466,26.227,26.227,0,0,0-1.025-6.743,5.741,5.741,0,0,0-.788-1.814,5.561,5.561,0,0,0-1.467-1.293C835.8,304.258,832.747,302.421,829.886,303.722Z" transform="translate(-754.511 -277.918)" opacity="0.05"/><path d="M776.217,356.033a4.514,4.514,0,0,0,.995.995,6.069,6.069,0,0,0,3.312.779,3.06,3.06,0,0,0,2.56-.745,2.983,2.983,0,0,0,.483-1.141,50.621,50.621,0,0,0,1.383-7.536l2.634.009c1.14,4.881,1.046,9.954.947,14.967l-.144,7.309-1.7-.18c-4.029-.427-8.065-.853-12.116-.927a69.315,69.315,0,0,0-7.114.235l3.7-10.987a18.183,18.183,0,0,0,1.076-4.376c.162-2.177-.449-4.476.4-6.49a.789.789,0,0,1,.307-.415.873.873,0,0,1,.526-.041c.334.045,1.356,0,1.6.214.358.31.121.357-.005.857a10.468,10.468,0,0,0-.437,2.657A7.847,7.847,0,0,0,776.217,356.033Z" transform="translate(-701.92 -317.709)" fill="#6c63ff"/><path d="M951.348,345.076h0q.665-.883,1.254-1.829c-.2-.426-.418-.841-.592-1.276a12.831,12.831,0,0,1-.571-2.074q-.077-.358-.154-.716a47.05,47.05,0,0,1-1.189-7.864q-.015-.328-.019-.656v-.818c.012-.6.05-1.2.118-1.8.013-.117.028-.235.044-.352a.506.506,0,0,1,.01-.077l6.764-.247h0l.569-.021a2.085,2.085,0,0,0,1.127-.258,2.051,2.051,0,0,0,.6-1.79,26.57,26.57,0,0,0-.561-4.928,7.342,7.342,0,0,0-1.444-3.4c-.674-.77-1.651-1.33-2-2.288a10.318,10.318,0,0,0-.332-1.087,3.385,3.385,0,0,0-.712-.852,11.87,11.87,0,0,1-2.278-3.155,9.969,9.969,0,0,0-1.366-2.268c-.026-.029-.052-.056-.079-.082a1.267,1.267,0,0,0-1.567-.335,2.009,2.009,0,0,0-.31.193h0a3.78,3.78,0,0,0-.59.561,13.43,13.43,0,0,0-1.6,2.288,12.728,12.728,0,0,0-.82,1.79,12.357,12.357,0,0,0-.443,1.492c-.086.375-.153.754-.207,1.134a27.593,27.593,0,0,0-.171,4.331c.03,1.329.089,2.661.209,3.985q.045.48.1.96.109.948.271,1.89c.043.24.086.479.135.718.012.064.025.127.038.19l.006.027a16.147,16.147,0,0,1,.305,1.682q.012.106.018.212a8.2,8.2,0,0,1-.008.976c-.023.384-.059.767-.077,1.151a1.872,1.872,0,0,1-.007.2c0,.194,0,.388,0,.582a9.223,9.223,0,0,0,.165,1.382,8.941,8.941,0,0,0,.86,2.431c.038.072.077.142.115.212.5.9,1.141,1.728,1.607,2.65a11.44,11.44,0,0,1,.9,2.607q.1.447.189.9c.092.477.175.959.26,1.44.008.048.017.1.026.143.112.639.231,1.274.383,1.9.089.363.188.721.3,1.073Z" transform="translate(-861.628 -281.05)" fill="#464353"/><path d="M830.239,569.249c0,.089-.006.179-.01.27a12.765,12.765,0,0,1-.12,1.3,8.485,8.485,0,0,1-.431,1.73,5.831,5.831,0,0,1-.513,1.055,4.869,4.869,0,0,1-.639.823,5.1,5.1,0,0,1-2.288,1.08,5.624,5.624,0,0,0-1.1.451c-.063.035-.124.073-.184.112l-1.04.689a3.112,3.112,0,0,0-.878.753,1.631,1.631,0,0,0-.1.168,3.818,3.818,0,0,0-.306.919c-.541,2.254-1.083,4.51-1.454,6.8-.025.151-.049.3-.075.456l-.009.048a.24.24,0,0,0-.016-.033,59.867,59.867,0,0,1-8.266,4.224l-.618-5.172a6.257,6.257,0,0,1-.064-1.271c.059-.669.331-1.3.4-1.971a3.36,3.36,0,0,0-.355-1.9,2.073,2.073,0,0,1-.291-.7.437.437,0,0,1,.374-.511.919.919,0,0,0,.156-.821,2.39,2.39,0,0,0-.139-.455,1.911,1.911,0,0,1-.238-1.293.483.483,0,0,0,.05-.249.044.044,0,0,0,0-.016c-.034-.111-.166-.16-.235-.255-.129-.176,0-.416.08-.619a2.36,2.36,0,0,0,.133-.677c.011-.128.019-.258.033-.385a3.884,3.884,0,0,1,.092-.511,4.035,4.035,0,0,1,1.634-2.339c.387-.261.818-.451,1.212-.7a11.1,11.1,0,0,0,1.156-.9q1.314-1.094,2.732-2.063a34.5,34.5,0,0,1,3.155-1.916q.348-.188.7-.366.379-.2.763-.377a3.731,3.731,0,0,1,2.656.016c.38.108.755.238,1.117.355a5.172,5.172,0,0,1,1.015.456,3.741,3.741,0,0,1,1.742,2.047.1.1,0,0,1,0,.017A5.207,5.207,0,0,1,830.239,569.249Z" transform="translate(-741.848 -513.062)" fill="#f86d70"/><path d="M830.239,569.249c0,.089-.006.179-.01.27a12.765,12.765,0,0,1-.12,1.3,8.485,8.485,0,0,1-.431,1.73,5.831,5.831,0,0,1-.513,1.055,4.869,4.869,0,0,1-.639.823,5.1,5.1,0,0,1-2.288,1.08,5.624,5.624,0,0,0-1.1.451c-.063.035-.124.073-.184.112l-1.04.689a3.112,3.112,0,0,0-.878.753,1.631,1.631,0,0,0-.1.168,3.818,3.818,0,0,0-.306.919c-.541,2.254-1.083,4.51-1.454,6.8-.025.151-.049.3-.075.456l-.009.048a.24.24,0,0,0-.016-.033,59.867,59.867,0,0,1-8.266,4.224l-.618-5.172a6.257,6.257,0,0,1-.064-1.271c.059-.669.331-1.3.4-1.971a3.36,3.36,0,0,0-.355-1.9,2.073,2.073,0,0,1-.291-.7.437.437,0,0,1,.374-.511.919.919,0,0,0,.156-.821,2.39,2.39,0,0,0-.139-.455,1.911,1.911,0,0,1-.238-1.293.483.483,0,0,0,.05-.249.044.044,0,0,0,0-.016c-.034-.111-.166-.16-.235-.255-.129-.176,0-.416.08-.619a2.36,2.36,0,0,0,.133-.677c.011-.128.019-.258.033-.385a3.884,3.884,0,0,1,.092-.511,4.035,4.035,0,0,1,1.634-2.339c.387-.261.818-.451,1.212-.7a11.1,11.1,0,0,0,1.156-.9q1.314-1.094,2.732-2.063a34.5,34.5,0,0,1,3.155-1.916q.348-.188.7-.366.379-.2.763-.377a3.731,3.731,0,0,1,2.656.016c.38.108.755.238,1.117.355a5.172,5.172,0,0,1,1.015.456,3.741,3.741,0,0,1,1.742,2.047.1.1,0,0,1,0,.017A5.207,5.207,0,0,1,830.239,569.249Z" transform="translate(-741.848 -513.062)" opacity="0.1"/><path d="M898.306,446.523a.187.187,0,1,0-.336.163l-.1.049,2.966,6.079.536-.262-2.966-6.083Z" transform="translate(-819.359 -406.811)" fill="#3f3d56"/><circle cx="6.366" cy="6.366" r="6.366" transform="translate(76.289 20.612)" fill="#fbbebe"/><path d="M891.639,174.6a8.463,8.463,0,0,0-.225-1.5,8.815,8.815,0,0,0-2.234-4.347,8.7,8.7,0,0,0-.26-.835.163.163,0,0,0-.007-.02,9.34,9.34,0,0,0-1.5-2.663,2.105,2.105,0,0,0-1.451-.939,1.176,1.176,0,0,1-.5-.054.9.9,0,0,1-.278-.284,2.605,2.605,0,0,0-2.522-.944l-.062.013c-.035.007-.07.015-.1.024l-.125.037q.069.113.134.23.177.315.328.645.125.275.232.558a4.981,4.981,0,0,0-2.606,1.528l-1.784,1.619-.009.009-.052.05c-.013.013-.026.026-.038.04a.089.089,0,0,0-.013.014c-.015.016-.029.033-.043.05a.75.75,0,0,0-.067.1.371.371,0,0,0-.026.047.1.1,0,0,0-.007.015.356.356,0,0,0-.017.042.012.012,0,0,0,0,.006.221.221,0,0,0-.007.025.3.3,0,0,0,.017.211l1.177.013h.138c.006.157.011.315.017.472a6.7,6.7,0,0,0-.537.448,5.827,5.827,0,0,0-.524.553,7.632,7.632,0,0,0-1.671,4.605v.609c0,.1.009.2.017.3a.745.745,0,0,0,.1.369.335.335,0,0,0,.028.036.685.685,0,0,0,.211.155l.086.042h0c.043.021.083.041.123.064.375.212.6.621.938.883.02.015.04.03.06.043l.045.03.028.018.038.022a.806.806,0,0,0,.077.041h0l.048.024h.008c.04.018.08.035.12.05l.057.02.017.006c.016,0,.033.011.05.015l.1.027.1.022c.039.007.079.014.118.019l.059.008.06.006q.142.013.286.015h0a7.159,7.159,0,0,0,.9-.063l2.538-.3a5.469,5.469,0,0,1,1.732-.016,11.419,11.419,0,0,1,1.393.49c.105.037.211.071.317.1.039.011.079.023.118.033l.055.014.127.031c.046.011.092.022.137.031.065.014.128.026.193.038.044.009.089.016.133.024h.009l.127.02h.031l.094.013c.046.007.091.013.138.018q.152.019.3.033c.164.016.329.028.5.038l.165.01.165.008.5.022h.092a2.567,2.567,0,0,0,.619-.032c.036-.007.071-.015.105-.025s.064-.02.1-.032a1.7,1.7,0,0,0,.835-.825c.04-.075.077-.149.11-.226s.065-.154.092-.232c.035-.1.065-.194.091-.293.008-.027.015-.054.021-.082s.02-.083.028-.124c.025-.114.044-.23.058-.346a1.064,1.064,0,0,1,.013-.111c.009-.1.016-.192.02-.289v-.223C891.646,174.811,891.639,174.7,891.639,174.6Zm-2.55-5.938c-.081-.076-.163-.148-.247-.217a1.028,1.028,0,0,1,.246.217Z" transform="translate(-800.582 -151.565)" fill="#464353"/><path d="M713.723,304.608a6.751,6.751,0,0,0-2.231-.26,3.092,3.092,0,0,0-1.23.682,14.961,14.961,0,0,0-3.458,3.954,2.088,2.088,0,0,0-.319.748,1.982,1.982,0,0,0,.137.923c.68,2.01,2.135,3.689,2.8,5.705a12.275,12.275,0,0,1-.059,6.61,27.623,27.623,0,0,1-3.068,7.629,4.349,4.349,0,0,1-.706.967c-.362.348-.849.6-1.063,1.052a4.7,4.7,0,0,0-.2.639c-.2.6-.68,1.108-.727,1.738a3.961,3.961,0,0,0,.331,1.393,3.838,3.838,0,0,1-.071,2.4c-.5,1.383-1.823,2.64-1.44,4.061a3.309,3.309,0,0,0,2.2-1.358,2.419,2.419,0,0,1,.453-.82c.478-.407,1.293-.039,1.8-.413a1.139,1.139,0,0,0,.227-1.315c-.171-.448-.466-.841-.6-1.3a13.747,13.747,0,0,1,.07-2.567c-.032-.4-.154-.779-.163-1.175a2.759,2.759,0,0,1,.975-2.014,8.1,8.1,0,0,1,1.953-1.21l2.6-1.293a3.955,3.955,0,0,0,2.288-2.044,4.135,4.135,0,0,0,.124-1.173c.089-6.019,1.6-11.916,3.1-17.746a22,22,0,0,1,.816-2.678c.346-.867,1.024-1.564,1.369-2.369C717.632,303.137,715.8,304.868,713.723,304.608Z" transform="translate(-643.285 -277.98)" fill="#464353"/><path d="M769.96,559.039c.23,1.393.37,2.815.479,4.23a48.4,48.4,0,0,1-5.676,3.973c-.111.069-.224.136-.336.2l-.009.048a.249.249,0,0,0-.016-.033,1.5,1.5,0,0,0-.748-.738q-1.1-2.313-2.2-4.625a12.139,12.139,0,0,1-.995-2.571.4.4,0,0,0-.012-.058c-.151-.7-.186-1.419-.286-2.125a6.138,6.138,0,0,0-.272-1.188c-.119-.343-.283-.676-.429-1.011a3.37,3.37,0,0,1-.336-1.279.837.837,0,0,0-.061-.418,1.086,1.086,0,0,0-.272-.263,1.035,1.035,0,0,1-.334-.946c-.6.031-.933.672-1.173,1.216a6.632,6.632,0,0,1-.851,1.492,2.829,2.829,0,0,1-.943.785c-.033.016-.066.032-.1.046a4.665,4.665,0,0,1-2.7.072,5.062,5.062,0,0,1-2.233-.813l-.068-.054a2.921,2.921,0,0,1-.5-.531,5.781,5.781,0,0,1-.9-2.586c-.012-.085-.024-.171-.035-.257a9.568,9.568,0,0,1-.075-1.938c.012-.159.029-.318.05-.476.014-.1.029-.207.046-.31a.032.032,0,0,1,0-.009c.026-.164.054-.329.082-.5a4.571,4.571,0,0,1,.5-1.628,3.083,3.083,0,0,1,.732-.784c.108-.085.218-.165.329-.243.181-.125.367-.245.556-.357a9.621,9.621,0,0,1,1.492-.726c.123-.048.249-.092.374-.135a2.936,2.936,0,0,1,1.52-.12,8,8,0,0,0,1.361.08,34.3,34.3,0,0,0,3.5-.39,7.612,7.612,0,0,1,4.765.6c.068.039.133.08.2.122a5.893,5.893,0,0,1,1.71,1.807c.1.15.186.3.271.461a11.74,11.74,0,0,1,.534,1.1,1.372,1.372,0,0,1,.148.6.785.785,0,0,1-.016.117c-.027.141-.081.279-.1.422-.063.542.4.995.57,1.511a7.4,7.4,0,0,1,.162,1.05,5.465,5.465,0,0,0,.553,1.393,17.422,17.422,0,0,1,.885,2.225c.173.53.321,1.068.452,1.611q.064.262.12.524C769.793,558.093,769.881,558.564,769.96,559.039Z" transform="translate(-685.178 -494.653)" fill="#f86d70"/><path d="M594.263,449.5v.7l-.128,0-.143,0-1.6-.02-3.941-.052-1.106-.014-.286,0-1.66-.021-2.339-.031-4.963-.065-8.613-.111-3.108-.04-1.247-.016-1.148-.015-.715-.01-.677-.009-5.022-.065-1.393-.018-.3,0-.2-.508-1.431-3.691-.262-.674.2-.8.9.6.551.069,9.072,1.128,1.7.212,3.611.45,3.537.44,1.387.172,8.2,1.021,2.293.285,1.9.236,6.748.839Z" transform="translate(-498.877 -399.845)" fill="#3f3d56"/><path d="M555.98,444.03l1.79,4.675,38.294.8v-5.073Z" transform="translate(-500.678 -399.845)" fill="#504f60"/><path d="M575.98,496.03l.3,28.547,1.392-.2-.3-28.348Z" transform="translate(-518.689 -446.672)" fill="#3f3d56"/><path d="M1050.292,550.465h-.143a31.46,31.46,0,0,1-1.147,5.251l-.453-5.272-.019-.225,1.673-.193.056-.006Z" transform="translate(-955.033 -500.115)" fill="#3f3d56"/><path d="M730.077,454.92l-14.572.3-4.526-1.492,12.135-.7Z" transform="translate(-640.261 -407.95)" fill="#fff"/><path d="M820.385,456.708a.976.976,0,0,0-.4.284,1.052,1.052,0,0,0-.148.452l-.245,1.459a.646.646,0,0,0,.019.4c.064.122.249.186.341.085a1.31,1.31,0,0,0,.179.823.574.574,0,0,0,.749.193.485.485,0,0,0,.731.113c-.141.048-.151.264-.051.373a.65.65,0,0,0,.406.162,9.926,9.926,0,0,0,5.162-.649,9.02,9.02,0,0,0-.293-2.159,2.175,2.175,0,0,0-.536-1.327,5.765,5.765,0,0,0-3.7-.8A6.367,6.367,0,0,0,820.385,456.708Z" transform="translate(-748.847 -415.539)" fill="#fbbebe"/><path d="M879.319,451.472c-3.6.069-7.27.127-10.7-.95a7.262,7.262,0,0,1-.066,3.866l16.822,1.393a28.277,28.277,0,0,0,4.366.225c.7-.168-5.834-2.319-5.57-2.984.725-1.833,3.154-2.907,1.4-2.976C883.363,449.958,881.544,451.431,879.319,451.472Z" transform="translate(-792.955 -410.082)" opacity="0.1"/><path d="M880.319,453.472c-3.6.069-7.27.127-10.7-.95a7.261,7.261,0,0,1-.066,3.866l16.822,1.393a27.681,27.681,0,0,0,4.366.225c.7-.173.532-1.026.8-1.691.725-1.833-3.212-4.2-4.961-4.269C884.363,451.959,882.544,453.431,880.319,453.472Z" transform="translate(-793.856 -411.883)" fill="#464353"/><path d="M858.929,463.708a.974.974,0,0,1,.4.284,1.064,1.064,0,0,1,.149.452l.245,1.459a.653.653,0,0,1-.019.4c-.064.122-.25.186-.341.085a1.316,1.316,0,0,1-.179.823.575.575,0,0,1-.75.193.485.485,0,0,1-.731.113c.141.048.152.264.052.373a.653.653,0,0,1-.407.162,9.922,9.922,0,0,1-5.161-.649,8.97,8.97,0,0,1,.292-2.159,2.175,2.175,0,0,1,.536-1.327,5.764,5.764,0,0,1,3.7-.8A6.366,6.366,0,0,1,858.929,463.708Z" transform="translate(-778.186 -421.843)" fill="#fbbebe"/><path d="M670.424,365.519a6.37,6.37,0,0,0-.874,1.357,6.6,6.6,0,0,0-.279,3.048,1.777,1.777,0,0,0,.2.85,1.436,1.436,0,0,0,.519.443,7.349,7.349,0,0,0,2.855.745q2.262.251,4.54.305c3.762.092,7.581-.216,11.246.637a2.817,2.817,0,0,1-.2-2.387,8.126,8.126,0,0,1,1.22-2.143c-1.677-.531-3.475.3-5.232.216-1.8-.085-3.472-1.127-5.278-1.126a4.8,4.8,0,0,1-1.16-.045.966.966,0,0,1-.777-.765,1.112,1.112,0,0,0,1.137-.755c.2-.452.235-.962.428-1.416.48-1.131,1.778-1.655,2.586-2.586a.634.634,0,0,0,.045-.961,13.75,13.75,0,0,0-2.523-2.089c-.292-.243-.882-1.158-1.211-1.242-.609-.156-1.125.723-1.521,1.152Q673.146,362.013,670.424,365.519Z" transform="translate(-613.453 -326.821)" fill="#464353"/><path d="M882.39,434.81a3.292,3.292,0,0,1,.665.659,1.135,1.135,0,0,1,.208.889,1.329,1.329,0,0,1,.829-1.376Z" transform="translate(-805.419 -396.365)" opacity="0.07"/><g transform="translate(76.423 11.451)" opacity="0.1"><path d="M931.564,164.33a8.631,8.631,0,0,0-.4-.91,2.438,2.438,0,0,0-.29.075,8.422,8.422,0,0,1,.461.878A1.664,1.664,0,0,1,931.564,164.33Z" transform="translate(-925.5 -163.42)"/><path d="M995.87,212c.027.022.053.047.079.07a.147.147,0,0,0-.007-.019Z" transform="translate(-984.034 -207.168)"/><path d="M891.993,210.907c.052-.041.1-.084.155-.123l-.016-.472-1.062-.011c-.172.158-.355.385-.254.6Z" transform="translate(-889.404 -205.637)"/><path d="M891.08,279.412a1.7,1.7,0,0,1-.834.825,2.262,2.262,0,0,1-.911.086,10.649,10.649,0,0,1-3.105-.437,10.963,10.963,0,0,0-1.393-.491,5.441,5.441,0,0,0-1.732.017l-2.538.3a2.978,2.978,0,0,1-2.181-.306c-.342-.263-.563-.671-.938-.882a1.193,1.193,0,0,1-.449-.3.746.746,0,0,1-.1-.369c-.008-.1-.013-.209-.017-.313a8.416,8.416,0,0,0,.017.91.746.746,0,0,0,.1.369,1.192,1.192,0,0,0,.449.3c.375.211.6.62.938.882a2.958,2.958,0,0,0,2.181.306l2.538-.3a5.441,5.441,0,0,1,1.732-.017,11.244,11.244,0,0,1,1.393.491,10.536,10.536,0,0,0,3.105.437,2.281,2.281,0,0,0,.911-.086,1.7,1.7,0,0,0,.834-.825,4.221,4.221,0,0,0,.43-2.233,3.885,3.885,0,0,1-.43,1.636Z" transform="translate(-876.877 -266.189)"/></g><path d="M937.56,179l1.393,1.293S937.759,179.8,937.56,179Z" transform="translate(-855.101 -165.999)" opacity="0.1"/></g></svg>