<svg xmlns="http://www.w3.org/2000/svg" width="54.48" height="50.854" viewBox="0 0 54.48 50.854"><g transform="translate(-6501.946 -165.932)"><path d="M9452.435,2946.508c-1.469,6.123-5.767,9.974-10.741,13.022s-9.893,3.193-16.017,1.721-11.356-3.271-14.4-8.247a22.527,22.527,0,0,1-3.036-17.114c1.471-6.12,6.389-9.37,11.365-12.417s9.119-1.859,15.244-.39,13.336.464,16.384,5.441S9453.905,2940.385,9452.435,2946.508Z" transform="translate(-2901.298 -2750.533)" fill="#beb3ff"/><g transform="translate(6501.946 165.932)"><path d="M9442.691,2963.652a6.122,6.122,0,0,1-5.126,2.795H9416.2a6.125,6.125,0,0,1-6.11-6.114v-30.472a6.121,6.121,0,0,1,6.11-6.115h21.361a6.109,6.109,0,0,1,5.493,3.448,17.682,17.682,0,0,1,2.657-.2,15.36,15.36,0,0,1,1.657.083,10.208,10.208,0,0,0-9.808-7.412H9416.2a10.2,10.2,0,0,0-10.187,10.191v30.472a10.2,10.2,0,0,0,10.188,10.191h21.361a10.2,10.2,0,0,0,9.564-6.679c-.469.043-.941.06-1.414.06A17.881,17.881,0,0,1,9442.691,2963.652Z" transform="translate(-9406.017 -2919.669)" fill="#424b4b"/><g transform="translate(24.914 10.999)"><path d="M9430.076,2953.332a14.784,14.784,0,1,1,14.783-14.783A14.8,14.8,0,0,1,9430.076,2953.332Zm0-25.49a10.707,10.707,0,1,0,10.707,10.707A10.719,10.719,0,0,0,9430.076,2927.842Z" transform="translate(-9415.293 -2923.765)" fill="#424b4b"/></g><g transform="translate(7.797 13.52)"><rect width="14.28" height="4.076" fill="#424b4b"/></g><g transform="translate(7.797 21.956)"><rect width="10.816" height="4.076" fill="#424b4b"/></g><g transform="translate(7.797 38.826)"><rect width="16.42" height="4.076" fill="#424b4b"/></g><g transform="translate(7.797 30.391)"><rect width="8.638" height="4.076" fill="#424b4b"/></g><g transform="translate(35.672 18.286)"><path d="M9425.787,2937.083H9419.3v-4.076h2.4l-.021-6.516,4.075-.013Z" transform="translate(-9419.298 -2926.478)" fill="#424b4b"/></g></g></g></svg>