<svg xmlns="http://www.w3.org/2000/svg" xmlns:xlink="http://www.w3.org/1999/xlink" viewBox="0 0 115.74 26.13"><defs><style>.cls-1{isolation:isolate;}.cls-2{mix-blend-mode:overlay;}.cls-3{fill:#86a1fd;}.cls-4{fill:url(#New_Gradient_Swatch_copy_2);}.cls-5{fill:#4545b5;}.cls-6{fill:#aed7ff;}</style><radialGradient id="New_Gradient_Swatch_copy_2" cx="57.87" cy="13.07" r="41.95" gradientUnits="userSpaceOnUse"><stop offset="0" stop-color="#fff"/><stop offset="1" stop-color="#f3f3f9"/></radialGradient></defs><g class="cls-1"><g id="레이어_2" data-name="레이어 2"><g id="레이어_1-2" data-name="레이어 1"><g class="cls-2"><rect class="cls-3" x="2.5" y="2.5" width="110.74" height="21.13" rx="10.57"/><path class="cls-4" d="M102.67,2.5a10.57,10.57,0,1,1,0,21.13H13.07a10.57,10.57,0,1,1,0-21.13h89.6m0-2.5H13.07a13.07,13.07,0,1,0,0,26.13h89.6a13.07,13.07,0,1,0,0-26.13Z"/></g><path class="cls-5" d="M102.11,14.21A4.48,4.48,0,0,0,103.46,13h0a3.81,3.81,0,0,0,.67-2.25,4.49,4.49,0,0,0-.56-2.19A4.27,4.27,0,0,0,102,6.86a5,5,0,0,0-2.54-.62H65.49v8.63a2,2,0,0,1-.18.89,1.17,1.17,0,0,1-.5.53,1.59,1.59,0,0,1-.77.18,1.34,1.34,0,0,1-1.05-.4,1.74,1.74,0,0,1-.38-1.2V6.24H47.44V9.66h3.19V19.78H54.4V9.66h4.44v5.28a4.88,4.88,0,0,0,.7,2.59,4.72,4.72,0,0,0,1.9,1.75,5.74,5.74,0,0,0,2.59.61,6,6,0,0,0,2-.34,5,5,0,0,0,1.68-1A4.55,4.55,0,0,0,68.85,17a5,5,0,0,0,.41-2V9.66H73.7V19.78h3.77V9.66H82a.3.3,0,0,0,0,.1,13.77,13.77,0,0,0-.24,2.82v.87A13.6,13.6,0,0,0,82,16.26a4.09,4.09,0,0,0,1.16,2.09,5.33,5.33,0,0,0,1.07.85,4.78,4.78,0,0,0,1.25.52,6.31,6.31,0,0,0,1.5.17,5.05,5.05,0,0,0,3.83-1.54,4.21,4.21,0,0,0,.93-1.42,5.77,5.77,0,0,0,.38-1.59c0-.53.08-1.16.08-1.89v-.87c0-.73,0-1.37-.08-1.9a6.09,6.09,0,0,0-.19-1H94V19.78h3.76V15h.61l2.3,4.82H105Zm-1.75-3.5a1.08,1.08,0,0,1-.12.5,1,1,0,0,1-.38.37,1.2,1.2,0,0,1-.59.14H97.75v-2h1.52a1.1,1.1,0,0,1,.59.15.9.9,0,0,1,.38.37A1.1,1.1,0,0,1,100.36,10.71Zm-12,2.3a14.6,14.6,0,0,1-.1,2.18A2,2,0,0,1,88,16a1.4,1.4,0,0,1-2.09,0,1.45,1.45,0,0,1-.22-.41,4.46,4.46,0,0,1-.14-.85c0-.39,0-1,0-1.73s0-1.34,0-1.74a4.32,4.32,0,0,1,.14-.84,1.38,1.38,0,0,1,.22-.42,1.1,1.1,0,0,1,.43-.33,1.33,1.33,0,0,1,.61-.13,1.62,1.62,0,0,1,.64.13A1,1,0,0,1,88,10a1.83,1.83,0,0,1,.31.8A15.12,15.12,0,0,1,88.39,13Z"/><polygon class="cls-6" points="14.52 12.39 12.26 7.89 10.74 7.89 13.81 13.97 13.81 18.24 15.19 18.24 15.19 13.97 18.25 7.89 16.74 7.89 14.52 12.39"/><path class="cls-6" d="M25.66,9.92h0a2.88,2.88,0,0,0-.69-1,3.68,3.68,0,0,0-1.21-.81,3.9,3.9,0,0,0-2.89,0,3.58,3.58,0,0,0-1.21.81,2.88,2.88,0,0,0-.69,1,4.25,4.25,0,0,0-.26,1.19c0,.42,0,1.06,0,2s0,1.53,0,1.95A4.25,4.25,0,0,0,19,16.21a2.88,2.88,0,0,0,.69,1,3.58,3.58,0,0,0,1.21.81,3.87,3.87,0,0,0,2.89,0A3.68,3.68,0,0,0,25,17.23a2.88,2.88,0,0,0,.69-1A4.25,4.25,0,0,0,25.91,15c0-.42.05-1.08.05-1.95s0-1.54-.05-2A4.25,4.25,0,0,0,25.66,9.92Zm-1.08,3.15c0,.75,0,1.33,0,1.72a3.65,3.65,0,0,1-.18.93,1.76,1.76,0,0,1-.43.64,2.09,2.09,0,0,1-.73.49,2.31,2.31,0,0,1-1.75,0,2,2,0,0,1-.74-.49,1.74,1.74,0,0,1-.42-.63,3.34,3.34,0,0,1-.18-.94c0-.39-.05-1-.05-1.72,0-.51,0-1,0-1.31a6.11,6.11,0,0,1,.09-.93,2.29,2.29,0,0,1,.2-.61,1.76,1.76,0,0,1,.34-.46,2.13,2.13,0,0,1,.74-.49,2.47,2.47,0,0,1,1.75,0,2.18,2.18,0,0,1,.73.49,1.73,1.73,0,0,1,.42.64,3.24,3.24,0,0,1,.19.93C24.56,11.73,24.58,12.31,24.58,13.07Z"/><path class="cls-6" d="M33.71,14.68a2.58,2.58,0,0,1-.29,1.24,1.93,1.93,0,0,1-.79.81,2.59,2.59,0,0,1-2.38,0,1.93,1.93,0,0,1-.79-.81,2.58,2.58,0,0,1-.29-1.24V7.89H27.79v6.88a3.64,3.64,0,0,0,.47,1.83,3.27,3.27,0,0,0,1.31,1.27,4.13,4.13,0,0,0,3.75,0,3.27,3.27,0,0,0,1.31-1.27,3.63,3.63,0,0,0,.46-1.83V7.89H33.71Z"/><path class="cls-6" d="M42.35,13.65a3,3,0,0,0,1.41-.87,3,3,0,0,0,.67-2A3,3,0,0,0,44,9.24a2.63,2.63,0,0,0-1.12-1,3.62,3.62,0,0,0-1.57-.33h-4V18.24h1.38V13.77h2.15l2.32,4.47h1.59ZM38.69,9.19h2.54a2,2,0,0,1,1.35.42,1.52,1.52,0,0,1,.47,1.22,1.88,1.88,0,0,1-.14.74,1.19,1.19,0,0,1-.35.49,1.58,1.58,0,0,1-.56.3,2.65,2.65,0,0,1-.77.11H38.69Z"/></g></g></g></svg>