<svg xmlns="http://www.w3.org/2000/svg" viewBox="0 0 88.8 139.1"><g id="Layer_2" data-name="Layer 2"><g id="Layer_1-2" data-name="Layer 1"><path d="M71.7,137.8a47.5,47.5,0,0,0,10.7-27.2,48.6,48.6,0,0,0-6.6-28.4c-5.3-8.6-13.8-15.9-24-17.5S32.2,66.8,27.3,75s-3.2,17.8,3.3,23.4c3.7,3.3,8.8,4.3,13.6,3.6a22,22,0,0,0,13.4-7.2c7.2-7.7,9.9-19,10-29.3a62.4,62.4,0,0,0-7.9-30.4A65.8,65.8,0,0,0,38.1,12.2,78.2,78.2,0,0,0,8.2.9C5.7.5,3.1.2.5,0a.5.5,0,1,0,0,1A77.3,77.3,0,0,1,30.3,9,66,66,0,0,1,54.1,28.4,60.5,60.5,0,0,1,65.9,56.2c1.6,10,.6,20.8-3.7,30-2.2,4.6-5.5,9-9.8,11.7a19.9,19.9,0,0,1-14.4,3,14.7,14.7,0,0,1-10.1-7.5,18.5,18.5,0,0,1-1.8-12.2c1.8-9.2,10.5-15,19.4-15.7S64.7,69.9,71,77.3a45.4,45.4,0,0,1,10.4,26.5A48.4,48.4,0,0,1,75,131.4a44.9,44.9,0,0,1-4,5.7c-.4.5.3,1.2.7.7Z" fill="#aed7ff"/><path d="M88.2,130.5c-6.1,2.4-11.9,5.3-17.9,7.6l.6.5c.2-6.1.5-12.1.8-18.2a.5.5,0,0,0-1,0c-.3,6.1-.6,12.1-.8,18.2a.5.5,0,0,0,.6.5c6.1-2.4,11.9-5.3,18-7.6.5-.2.3-1.2-.3-1Z" fill="#aed7ff"/></g></g></svg>